<svg width="346" height="310" viewBox="0 0 346 310" fill="none" xmlns="http://www.w3.org/2000/svg">
<rect width="346" height="310" rx="20" fill="white"/>
<line x1="47" y1="100" x2="300" y2="100" stroke="#B9B9B9" stroke-width="2"/>
<line x1="46" y1="265" x2="300" y2="265" stroke="#B9B9B9" stroke-width="2"/>
<line x1="114" y1="163" x2="164" y2="163" stroke="url(#paint0_linear_429_2676)" stroke-width="20"/>
<line x1="250" y1="163" x2="300" y2="163" stroke="url(#paint1_linear_429_2676)" stroke-width="20"/>
<line x1="182" y1="163" x2="232" y2="163" stroke="url(#paint2_linear_429_2676)" stroke-width="20"/>
<line x1="46" y1="163" x2="96" y2="163" stroke="url(#paint3_linear_429_2676)" stroke-width="20"/>
<line x1="114" y1="201" x2="164" y2="201" stroke="url(#paint4_linear_429_2676)" stroke-width="20"/>
<line x1="250" y1="201" x2="300" y2="201" stroke="url(#paint5_linear_429_2676)" stroke-width="20"/>
<line x1="182" y1="201" x2="232" y2="201" stroke="url(#paint6_linear_429_2676)" stroke-width="20"/>
<line x1="46" y1="201" x2="96" y2="201" stroke="url(#paint7_linear_429_2676)" stroke-width="20"/>
<line x1="114" y1="239" x2="164" y2="239" stroke="url(#paint8_linear_429_2676)" stroke-width="20"/>
<line x1="250" y1="239" x2="300" y2="239" stroke="url(#paint9_linear_429_2676)" stroke-width="20"/>
<line x1="182" y1="239" x2="232" y2="239" stroke="url(#paint10_linear_429_2676)" stroke-width="20"/>
<line x1="46" y1="239" x2="96" y2="239" stroke="url(#paint11_linear_429_2676)" stroke-width="20"/>
<line x1="91" y1="53.5" x2="255" y2="53.5" stroke="#B9B9B9" stroke-width="15"/>
<path d="M58.7713 136H55.4759L60.4972 121.455H64.4602L69.4744 136H66.179L62.5355 124.778H62.4219L58.7713 136ZM58.5653 130.283H66.3494V132.683H58.5653V130.283ZM83.3754 126.547H80.2646C80.2077 126.144 80.0917 125.787 79.9165 125.474C79.7414 125.157 79.5165 124.887 79.2418 124.665C78.9672 124.442 78.65 124.272 78.2901 124.153C77.935 124.035 77.5491 123.976 77.1325 123.976C76.3796 123.976 75.7238 124.163 75.1651 124.537C74.6064 124.906 74.1732 125.446 73.8654 126.156C73.5576 126.862 73.4038 127.719 73.4038 128.727C73.4038 129.764 73.5576 130.635 73.8654 131.341C74.1779 132.046 74.6135 132.579 75.1722 132.939C75.7309 133.299 76.3772 133.479 77.1112 133.479C77.5231 133.479 77.9042 133.424 78.2546 133.315C78.6097 133.206 78.9246 133.048 79.1992 132.839C79.4738 132.626 79.7011 132.368 79.881 132.065C80.0657 131.762 80.1935 131.417 80.2646 131.028L83.3754 131.043C83.2949 131.71 83.0936 132.354 82.7717 132.974C82.4544 133.59 82.0259 134.142 81.4862 134.629C80.9511 135.112 80.3119 135.496 79.5685 135.78C78.8299 136.059 77.9942 136.199 77.0614 136.199C75.7641 136.199 74.604 135.905 73.5813 135.318C72.5633 134.731 71.7584 133.881 71.1665 132.768C70.5794 131.656 70.2859 130.309 70.2859 128.727C70.2859 127.141 70.5842 125.792 71.1808 124.679C71.7773 123.566 72.587 122.719 73.6097 122.136C74.6325 121.549 75.783 121.256 77.0614 121.256C77.9042 121.256 78.6855 121.374 79.4052 121.611C80.1296 121.848 80.7712 122.193 81.3299 122.648C81.8886 123.098 82.3432 123.649 82.6935 124.303C83.0487 124.956 83.2759 125.704 83.3754 126.547ZM85.5806 136V121.455H91.4045C92.4746 121.455 93.3671 121.613 94.082 121.93C94.797 122.248 95.3344 122.688 95.6942 123.251C96.0541 123.81 96.234 124.454 96.234 125.183C96.234 125.751 96.1204 126.251 95.8931 126.682C95.6658 127.108 95.3533 127.458 94.9556 127.733C94.5626 128.003 94.1128 128.195 93.6062 128.308V128.45C94.1602 128.474 94.6786 128.63 95.1616 128.919C95.6493 129.208 96.0446 129.613 96.3477 130.134C96.6507 130.65 96.8022 131.265 96.8022 131.98C96.8022 132.752 96.6104 133.441 96.2269 134.047C95.8481 134.648 95.2871 135.124 94.5437 135.474C93.8003 135.825 92.8841 136 91.7951 136H85.5806ZM88.6559 133.486H91.163C92.02 133.486 92.645 133.322 93.038 132.996C93.431 132.664 93.6275 132.224 93.6275 131.675C93.6275 131.272 93.5304 130.917 93.3363 130.609C93.1422 130.302 92.8652 130.06 92.5053 129.885C92.1502 129.71 91.7264 129.622 91.234 129.622H88.6559V133.486ZM88.6559 127.541H90.9357C91.3571 127.541 91.7312 127.468 92.0579 127.321C92.3893 127.17 92.6497 126.956 92.8391 126.682C93.0333 126.407 93.1303 126.078 93.1303 125.695C93.1303 125.169 92.9433 124.745 92.5692 124.423C92.1999 124.101 91.6744 123.94 90.9925 123.94H88.6559V127.541Z" fill="#86CAFF"/>
<path d="M125.771 136H122.476L127.497 121.455H131.46L136.474 136H133.179L129.536 124.778H129.422L125.771 136ZM125.565 130.283H133.349V132.683H125.565V130.283ZM150.375 126.547H147.265C147.208 126.144 147.092 125.787 146.917 125.474C146.741 125.157 146.516 124.887 146.242 124.665C145.967 124.442 145.65 124.272 145.29 124.153C144.935 124.035 144.549 123.976 144.132 123.976C143.38 123.976 142.724 124.163 142.165 124.537C141.606 124.906 141.173 125.446 140.865 126.156C140.558 126.862 140.404 127.719 140.404 128.727C140.404 129.764 140.558 130.635 140.865 131.341C141.178 132.046 141.614 132.579 142.172 132.939C142.731 133.299 143.377 133.479 144.111 133.479C144.523 133.479 144.904 133.424 145.255 133.315C145.61 133.206 145.925 133.048 146.199 132.839C146.474 132.626 146.701 132.368 146.881 132.065C147.066 131.762 147.194 131.417 147.265 131.028L150.375 131.043C150.295 131.71 150.094 132.354 149.772 132.974C149.454 133.59 149.026 134.142 148.486 134.629C147.951 135.112 147.312 135.496 146.569 135.78C145.83 136.059 144.994 136.199 144.061 136.199C142.764 136.199 141.604 135.905 140.581 135.318C139.563 134.731 138.758 133.881 138.167 132.768C137.579 131.656 137.286 130.309 137.286 128.727C137.286 127.141 137.584 125.792 138.181 124.679C138.777 123.566 139.587 122.719 140.61 122.136C141.632 121.549 142.783 121.256 144.061 121.256C144.904 121.256 145.685 121.374 146.405 121.611C147.13 121.848 147.771 122.193 148.33 122.648C148.889 123.098 149.343 123.649 149.694 124.303C150.049 124.956 150.276 125.704 150.375 126.547ZM152.581 136V121.455H158.404C159.475 121.455 160.367 121.613 161.082 121.93C161.797 122.248 162.334 122.688 162.694 123.251C163.054 123.81 163.234 124.454 163.234 125.183C163.234 125.751 163.12 126.251 162.893 126.682C162.666 127.108 162.353 127.458 161.956 127.733C161.563 128.003 161.113 128.195 160.606 128.308V128.45C161.16 128.474 161.679 128.63 162.162 128.919C162.649 129.208 163.045 129.613 163.348 130.134C163.651 130.65 163.802 131.265 163.802 131.98C163.802 132.752 163.61 133.441 163.227 134.047C162.848 134.648 162.287 135.124 161.544 135.474C160.8 135.825 159.884 136 158.795 136H152.581ZM155.656 133.486H158.163C159.02 133.486 159.645 133.322 160.038 132.996C160.431 132.664 160.627 132.224 160.627 131.675C160.627 131.272 160.53 130.917 160.336 130.609C160.142 130.302 159.865 130.06 159.505 129.885C159.15 129.71 158.726 129.622 158.234 129.622H155.656V133.486ZM155.656 127.541H157.936C158.357 127.541 158.731 127.468 159.058 127.321C159.389 127.17 159.65 126.956 159.839 126.682C160.033 126.407 160.13 126.078 160.13 125.695C160.13 125.169 159.943 124.745 159.569 124.423C159.2 124.101 158.674 123.94 157.993 123.94H155.656V127.541Z" fill="#86CAFF"/>
<path d="M192.771 136H189.476L194.497 121.455H198.46L203.474 136H200.179L196.536 124.778H196.422L192.771 136ZM192.565 130.283H200.349V132.683H192.565V130.283ZM217.375 126.547H214.265C214.208 126.144 214.092 125.787 213.917 125.474C213.741 125.157 213.516 124.887 213.242 124.665C212.967 124.442 212.65 124.272 212.29 124.153C211.935 124.035 211.549 123.976 211.132 123.976C210.38 123.976 209.724 124.163 209.165 124.537C208.606 124.906 208.173 125.446 207.865 126.156C207.558 126.862 207.404 127.719 207.404 128.727C207.404 129.764 207.558 130.635 207.865 131.341C208.178 132.046 208.614 132.579 209.172 132.939C209.731 133.299 210.377 133.479 211.111 133.479C211.523 133.479 211.904 133.424 212.255 133.315C212.61 133.206 212.925 133.048 213.199 132.839C213.474 132.626 213.701 132.368 213.881 132.065C214.066 131.762 214.194 131.417 214.265 131.028L217.375 131.043C217.295 131.71 217.094 132.354 216.772 132.974C216.454 133.59 216.026 134.142 215.486 134.629C214.951 135.112 214.312 135.496 213.569 135.78C212.83 136.059 211.994 136.199 211.061 136.199C209.764 136.199 208.604 135.905 207.581 135.318C206.563 134.731 205.758 133.881 205.167 132.768C204.579 131.656 204.286 130.309 204.286 128.727C204.286 127.141 204.584 125.792 205.181 124.679C205.777 123.566 206.587 122.719 207.61 122.136C208.632 121.549 209.783 121.256 211.061 121.256C211.904 121.256 212.685 121.374 213.405 121.611C214.13 121.848 214.771 122.193 215.33 122.648C215.889 123.098 216.343 123.649 216.694 124.303C217.049 124.956 217.276 125.704 217.375 126.547ZM219.581 136V121.455H225.404C226.475 121.455 227.367 121.613 228.082 121.93C228.797 122.248 229.334 122.688 229.694 123.251C230.054 123.81 230.234 124.454 230.234 125.183C230.234 125.751 230.12 126.251 229.893 126.682C229.666 127.108 229.353 127.458 228.956 127.733C228.563 128.003 228.113 128.195 227.606 128.308V128.45C228.16 128.474 228.679 128.63 229.162 128.919C229.649 129.208 230.045 129.613 230.348 130.134C230.651 130.65 230.802 131.265 230.802 131.98C230.802 132.752 230.61 133.441 230.227 134.047C229.848 134.648 229.287 135.124 228.544 135.474C227.8 135.825 226.884 136 225.795 136H219.581ZM222.656 133.486H225.163C226.02 133.486 226.645 133.322 227.038 132.996C227.431 132.664 227.627 132.224 227.627 131.675C227.627 131.272 227.53 130.917 227.336 130.609C227.142 130.302 226.865 130.06 226.505 129.885C226.15 129.71 225.726 129.622 225.234 129.622H222.656V133.486ZM222.656 127.541H224.936C225.357 127.541 225.731 127.468 226.058 127.321C226.389 127.17 226.65 126.956 226.839 126.682C227.033 126.407 227.13 126.078 227.13 125.695C227.13 125.169 226.943 124.745 226.569 124.423C226.2 124.101 225.674 123.94 224.993 123.94H222.656V127.541Z" fill="#86CAFF"/>
<path d="M259.771 136H256.476L261.497 121.455H265.46L270.474 136H267.179L263.536 124.778H263.422L259.771 136ZM259.565 130.283H267.349V132.683H259.565V130.283ZM284.375 126.547H281.265C281.208 126.144 281.092 125.787 280.917 125.474C280.741 125.157 280.516 124.887 280.242 124.665C279.967 124.442 279.65 124.272 279.29 124.153C278.935 124.035 278.549 123.976 278.132 123.976C277.38 123.976 276.724 124.163 276.165 124.537C275.606 124.906 275.173 125.446 274.865 126.156C274.558 126.862 274.404 127.719 274.404 128.727C274.404 129.764 274.558 130.635 274.865 131.341C275.178 132.046 275.614 132.579 276.172 132.939C276.731 133.299 277.377 133.479 278.111 133.479C278.523 133.479 278.904 133.424 279.255 133.315C279.61 133.206 279.925 133.048 280.199 132.839C280.474 132.626 280.701 132.368 280.881 132.065C281.066 131.762 281.194 131.417 281.265 131.028L284.375 131.043C284.295 131.71 284.094 132.354 283.772 132.974C283.454 133.59 283.026 134.142 282.486 134.629C281.951 135.112 281.312 135.496 280.569 135.78C279.83 136.059 278.994 136.199 278.061 136.199C276.764 136.199 275.604 135.905 274.581 135.318C273.563 134.731 272.758 133.881 272.167 132.768C271.579 131.656 271.286 130.309 271.286 128.727C271.286 127.141 271.584 125.792 272.181 124.679C272.777 123.566 273.587 122.719 274.61 122.136C275.632 121.549 276.783 121.256 278.061 121.256C278.904 121.256 279.685 121.374 280.405 121.611C281.13 121.848 281.771 122.193 282.33 122.648C282.889 123.098 283.343 123.649 283.694 124.303C284.049 124.956 284.276 125.704 284.375 126.547ZM286.581 136V121.455H292.404C293.475 121.455 294.367 121.613 295.082 121.93C295.797 122.248 296.334 122.688 296.694 123.251C297.054 123.81 297.234 124.454 297.234 125.183C297.234 125.751 297.12 126.251 296.893 126.682C296.666 127.108 296.353 127.458 295.956 127.733C295.563 128.003 295.113 128.195 294.606 128.308V128.45C295.16 128.474 295.679 128.63 296.162 128.919C296.649 129.208 297.045 129.613 297.348 130.134C297.651 130.65 297.802 131.265 297.802 131.98C297.802 132.752 297.61 133.441 297.227 134.047C296.848 134.648 296.287 135.124 295.544 135.474C294.8 135.825 293.884 136 292.795 136H286.581ZM289.656 133.486H292.163C293.02 133.486 293.645 133.322 294.038 132.996C294.431 132.664 294.627 132.224 294.627 131.675C294.627 131.272 294.53 130.917 294.336 130.609C294.142 130.302 293.865 130.06 293.505 129.885C293.15 129.71 292.726 129.622 292.234 129.622H289.656V133.486ZM289.656 127.541H291.936C292.357 127.541 292.731 127.468 293.058 127.321C293.389 127.17 293.65 126.956 293.839 126.682C294.033 126.407 294.13 126.078 294.13 125.695C294.13 125.169 293.943 124.745 293.569 124.423C293.2 124.101 292.674 123.94 291.993 123.94H289.656V127.541Z" fill="#86CAFF"/>
<defs>
<linearGradient id="paint0_linear_429_2676" x1="139" y1="173" x2="139" y2="174" gradientUnits="userSpaceOnUse">
<stop stop-color="#D9D9D9"/>
<stop offset="0.270833" stop-color="#D4AED6" stop-opacity="0.125"/>
<stop offset="1" stop-color="#B497B5" stop-opacity="0"/>
</linearGradient>
<linearGradient id="paint1_linear_429_2676" x1="275" y1="173" x2="275" y2="174" gradientUnits="userSpaceOnUse">
<stop stop-color="#D9D9D9"/>
<stop offset="0.270833" stop-color="#D4AED6" stop-opacity="0.125"/>
<stop offset="1" stop-color="#B497B5" stop-opacity="0"/>
</linearGradient>
<linearGradient id="paint2_linear_429_2676" x1="207" y1="173" x2="207" y2="174" gradientUnits="userSpaceOnUse">
<stop stop-color="#D9D9D9"/>
<stop offset="0.270833" stop-color="#D4AED6" stop-opacity="0.125"/>
<stop offset="1" stop-color="#B497B5" stop-opacity="0"/>
</linearGradient>
<linearGradient id="paint3_linear_429_2676" x1="71" y1="173" x2="71" y2="174" gradientUnits="userSpaceOnUse">
<stop stop-color="#D9D9D9"/>
<stop offset="0.270833" stop-color="#D4AED6" stop-opacity="0.125"/>
<stop offset="1" stop-color="#B497B5" stop-opacity="0"/>
</linearGradient>
<linearGradient id="paint4_linear_429_2676" x1="139" y1="211" x2="139" y2="212" gradientUnits="userSpaceOnUse">
<stop stop-color="#D9D9D9"/>
<stop offset="0.270833" stop-color="#D4AED6" stop-opacity="0.125"/>
<stop offset="1" stop-color="#B497B5" stop-opacity="0"/>
</linearGradient>
<linearGradient id="paint5_linear_429_2676" x1="275" y1="211" x2="275" y2="212" gradientUnits="userSpaceOnUse">
<stop stop-color="#D9D9D9"/>
<stop offset="0.270833" stop-color="#D4AED6" stop-opacity="0.125"/>
<stop offset="1" stop-color="#B497B5" stop-opacity="0"/>
</linearGradient>
<linearGradient id="paint6_linear_429_2676" x1="207" y1="211" x2="207" y2="212" gradientUnits="userSpaceOnUse">
<stop stop-color="#D9D9D9"/>
<stop offset="0.270833" stop-color="#D4AED6" stop-opacity="0.125"/>
<stop offset="1" stop-color="#B497B5" stop-opacity="0"/>
</linearGradient>
<linearGradient id="paint7_linear_429_2676" x1="71" y1="211" x2="71" y2="212" gradientUnits="userSpaceOnUse">
<stop stop-color="#D9D9D9"/>
<stop offset="0.270833" stop-color="#D4AED6" stop-opacity="0.125"/>
<stop offset="1" stop-color="#B497B5" stop-opacity="0"/>
</linearGradient>
<linearGradient id="paint8_linear_429_2676" x1="139" y1="249" x2="139" y2="250" gradientUnits="userSpaceOnUse">
<stop stop-color="#D9D9D9"/>
<stop offset="0.270833" stop-color="#D4AED6" stop-opacity="0.125"/>
<stop offset="1" stop-color="#B497B5" stop-opacity="0"/>
</linearGradient>
<linearGradient id="paint9_linear_429_2676" x1="275" y1="249" x2="275" y2="250" gradientUnits="userSpaceOnUse">
<stop stop-color="#D9D9D9"/>
<stop offset="0.270833" stop-color="#D4AED6" stop-opacity="0.125"/>
<stop offset="1" stop-color="#B497B5" stop-opacity="0"/>
</linearGradient>
<linearGradient id="paint10_linear_429_2676" x1="207" y1="249" x2="207" y2="250" gradientUnits="userSpaceOnUse">
<stop stop-color="#D9D9D9"/>
<stop offset="0.270833" stop-color="#D4AED6" stop-opacity="0.125"/>
<stop offset="1" stop-color="#B497B5" stop-opacity="0"/>
</linearGradient>
<linearGradient id="paint11_linear_429_2676" x1="71" y1="249" x2="71" y2="250" gradientUnits="userSpaceOnUse">
<stop stop-color="#D9D9D9"/>
<stop offset="0.270833" stop-color="#D4AED6" stop-opacity="0.125"/>
<stop offset="1" stop-color="#B497B5" stop-opacity="0"/>
</linearGradient>
</defs>
</svg>
