<svg width="22" height="23" viewBox="0 0 22 23" fill="none" xmlns="http://www.w3.org/2000/svg">
<path d="M17.4478 21.8927H15.7946C15.6937 21.8927 15.6113 21.8104 15.6113 21.7087C15.6113 21.6077 15.6937 21.5254 15.7946 21.5254H17.4478C17.5488 21.5254 17.6311 21.6077 17.6311 21.7087C17.6319 21.8104 17.5495 21.8927 17.4478 21.8927Z" fill="#2E2D2D"/>
<path d="M21.6726 22.8102H18.548C18.4471 22.8102 18.3647 22.7279 18.3647 22.6262C18.3647 22.6154 18.3655 22.6061 18.3669 22.5961V0.403996C18.3669 0.303042 18.4492 0.220703 18.5502 0.220703H21.6726C21.7736 0.220703 21.8559 0.303042 21.8559 0.403996V22.6269C21.8559 22.7279 21.7736 22.8102 21.6726 22.8102ZM18.7342 22.4429H21.4893V0.588006H18.7342V22.4429Z" fill="#2E2D2D"/>
<path d="M20.0192 1.68859H18.55C18.449 1.68859 18.3667 1.60625 18.3667 1.5053C18.3667 1.40434 18.449 1.32129 18.55 1.32129H20.0192C20.1202 1.32129 20.2032 1.40363 20.2032 1.5053C20.2032 1.60625 20.1209 1.68859 20.0192 1.68859Z" fill="#2E2D2D"/>
<path d="M20.0192 4.62707H18.55C18.449 4.62707 18.3667 4.54473 18.3667 4.44306C18.3667 4.34211 18.449 4.25977 18.55 4.25977H20.0192C20.1202 4.25977 20.2032 4.34211 20.2032 4.44306C20.2032 4.54473 20.1209 4.62707 20.0192 4.62707Z" fill="#2E2D2D"/>
<path d="M20.5701 3.15806H18.5654C18.4644 3.15806 18.3813 3.07572 18.3813 2.97405C18.3813 2.87238 18.4637 2.79004 18.5654 2.79004H20.5701C20.6711 2.79004 20.7534 2.87238 20.7534 2.97405C20.7534 3.07572 20.6711 3.15806 20.5701 3.15806Z" fill="#2E2D2D"/>
<path d="M20.5705 6.09751H18.55C18.449 6.09751 18.3667 6.01517 18.3667 5.9135C18.3667 5.81255 18.449 5.72949 18.55 5.72949H20.5705C20.6715 5.72949 20.7538 5.81183 20.7538 5.9135C20.7538 6.01517 20.6715 6.09751 20.5705 6.09751Z" fill="#2E2D2D"/>
<path d="M20.0192 7.56529H18.6037C18.5027 7.56529 18.4204 7.48295 18.4204 7.38127C18.4204 7.2796 18.5027 7.19727 18.6037 7.19727H20.0192C20.1202 7.19727 20.2032 7.2796 20.2032 7.38127C20.2032 7.48295 20.1209 7.56529 20.0192 7.56529Z" fill="#2E2D2D"/>
<path d="M20.5705 9.03527H18.5937C18.4927 9.03527 18.4097 8.95293 18.4097 8.85198C18.4097 8.75102 18.492 8.66797 18.5937 8.66797H20.5705C20.6715 8.66797 20.7538 8.75031 20.7538 8.85198C20.7538 8.95365 20.6715 9.03527 20.5705 9.03527Z" fill="#2E2D2D"/>
<path d="M20.0192 10.5043H18.55C18.449 10.5043 18.3667 10.4219 18.3667 10.321C18.3667 10.22 18.449 10.1377 18.55 10.1377H20.0192C20.1202 10.1377 20.2032 10.22 20.2032 10.321C20.2032 10.4219 20.1209 10.5043 20.0192 10.5043Z" fill="#2E2D2D"/>
<path d="M20.5705 11.9737H18.55C18.449 11.9737 18.3667 11.8914 18.3667 11.7897C18.3667 11.6888 18.449 11.6064 18.55 11.6064H20.5705C20.6715 11.6064 20.7538 11.6888 20.7538 11.7897C20.7538 11.8914 20.6715 11.9737 20.5705 11.9737Z" fill="#2E2D2D"/>
<path d="M20.0192 13.4435H18.55C18.449 13.4435 18.3667 13.3611 18.3667 13.2602C18.3667 13.1592 18.449 13.0762 18.55 13.0762H20.0192C20.1202 13.0762 20.2032 13.1585 20.2032 13.2602C20.2032 13.3611 20.1209 13.4435 20.0192 13.4435Z" fill="#2E2D2D"/>
<path d="M20.5705 14.9125H18.55C18.449 14.9125 18.3667 14.8301 18.3667 14.7292C18.3667 14.6282 18.449 14.5459 18.55 14.5459H20.5705C20.6715 14.5459 20.7538 14.6282 20.7538 14.7292C20.7538 14.8301 20.6715 14.9125 20.5705 14.9125Z" fill="#2E2D2D"/>
<path d="M20.0192 16.382H18.55C18.449 16.382 18.3667 16.2996 18.3667 16.1979C18.3667 16.097 18.449 16.0146 18.55 16.0146H20.0192C20.1202 16.0146 20.2032 16.097 20.2032 16.1979C20.2032 16.2996 20.1209 16.382 20.0192 16.382Z" fill="#2E2D2D"/>
<path d="M20.5705 17.8517H18.55C18.449 17.8517 18.3667 17.7693 18.3667 17.6677C18.3667 17.5667 18.449 17.4844 18.55 17.4844H20.5705C20.6715 17.4844 20.7538 17.5667 20.7538 17.6677C20.7538 17.7693 20.6715 17.8517 20.5705 17.8517Z" fill="#2E2D2D"/>
<path d="M20.0192 19.3204H18.55C18.449 19.3204 18.3667 19.2381 18.3667 19.1371C18.3667 19.0362 18.449 18.9531 18.55 18.9531H20.0192C20.1202 18.9531 20.2032 19.0355 20.2032 19.1371C20.2032 19.2381 20.1209 19.3204 20.0192 19.3204Z" fill="#2E2D2D"/>
<path d="M20.5705 20.7902H18.55C18.449 20.7902 18.3667 20.7078 18.3667 20.6069C18.3667 20.5059 18.449 20.4229 18.55 20.4229H20.5705C20.6715 20.4229 20.7538 20.5052 20.7538 20.6069C20.7538 20.7078 20.6715 20.7902 20.5705 20.7902Z" fill="#2E2D2D"/>
<path d="M0.18401 20.7905C0.083055 20.7905 0 20.7082 0 20.6072C0 18.7499 0.223389 16.8175 0.664439 14.8621C1.01671 13.2991 1.50859 11.7182 2.12434 10.1631C2.67279 8.77977 3.22124 7.67285 3.58425 6.98765C3.86635 6.45567 4.08115 6.09409 4.18425 5.92512C3.78902 5.39242 3.45967 4.79314 3.20263 4.1423C2.98497 3.59027 2.81886 2.99958 2.71074 2.38813C2.5253 1.34493 2.56897 0.608174 2.57041 0.57667C2.5747 0.511515 2.61265 0.45352 2.67136 0.424165C2.69929 0.410561 3.35728 0.0862173 4.27804 0.0153342C4.82077 -0.0261932 5.34344 0.0289379 5.83031 0.180728C6.44034 0.371181 6.9938 0.711277 7.47494 1.19385C7.54654 1.26545 7.54654 1.38144 7.47494 1.45376C7.40334 1.52536 7.28735 1.52536 7.21504 1.45376C6.42029 0.659009 5.44511 0.29815 4.31886 0.381205C3.66229 0.429177 3.14105 0.622494 2.9327 0.709845C2.9284 0.948986 2.93413 1.55973 3.07303 2.33586C3.23771 3.25519 3.62721 4.6034 4.55155 5.80412C4.59881 5.86569 4.60239 5.94946 4.56086 6.01462C4.55012 6.03109 3.49905 7.68932 2.46158 10.3077C1.50573 12.7206 0.365155 16.4659 0.365155 20.6087C0.368019 20.7082 0.28568 20.7905 0.18401 20.7905Z" fill="#2E2D2D"/>
<path d="M14.5104 20.7903C14.4094 20.7903 14.3271 20.7079 14.3271 20.607C14.3271 16.4657 13.1879 12.7196 12.2306 10.306C11.1932 7.68765 10.1421 6.0287 10.1314 6.01295C10.0898 5.94779 10.0941 5.86331 10.1407 5.80245C11.0636 4.60173 11.4538 3.25424 11.6192 2.33419C11.7581 1.55806 11.7645 0.947317 11.7595 0.708176C11.5512 0.620826 11.0299 0.427508 10.3734 0.379537C9.24639 0.296482 8.27264 0.657341 7.47718 1.45209C7.40558 1.52369 7.28959 1.52369 7.21727 1.45209C7.14567 1.38049 7.14567 1.2645 7.21727 1.19219C7.69985 0.709608 8.25331 0.369513 8.8619 0.179059C9.34949 0.0272695 9.87074 -0.0285776 10.4142 0.0136659C11.3349 0.0845489 11.9929 0.408892 12.0209 0.422496C12.0796 0.451852 12.1182 0.509847 12.1218 0.575002C12.1232 0.60579 12.1669 1.34398 11.9815 2.38646C11.8726 2.99863 11.7073 3.58861 11.4896 4.14063C11.2333 4.79147 10.9032 5.38932 10.508 5.92345C10.6111 6.09242 10.8252 6.454 11.108 6.98598C11.471 7.67047 12.0194 8.77739 12.5679 10.1614C13.1843 11.7165 13.6762 13.2974 14.0278 14.8604C14.4688 16.8158 14.6922 18.749 14.6922 20.6055C14.6944 20.7079 14.612 20.7903 14.5104 20.7903Z" fill="#2E2D2D"/>
<path d="M7.1292 6.50496C6.72467 6.50496 6.32944 6.48276 5.94925 6.4398C4.92467 6.32309 4.3619 6.09183 4.33827 6.08252C4.24447 6.04314 4.20008 5.93574 4.23946 5.84266C4.27884 5.74887 4.38553 5.70448 4.47932 5.74386C4.48505 5.74601 5.03063 5.96796 6.00867 6.07751C6.91225 6.17846 8.38003 6.20066 10.2409 5.73527C10.3397 5.71092 10.4392 5.77035 10.4636 5.86916C10.4879 5.96796 10.4285 6.06749 10.3297 6.09183C9.48051 6.30376 8.63922 6.43622 7.82801 6.48419C7.59316 6.49851 7.35975 6.50496 7.1292 6.50496Z" fill="#2E2D2D"/>
<path d="M1.20765 21.814C0.542494 21.814 0.000488281 21.2727 0.000488281 20.6069C0.000488281 20.5059 0.0828273 20.4229 0.184498 20.4229C0.285453 20.4229 0.368507 20.5052 0.368507 20.6069C0.368507 21.0694 0.745119 21.4467 1.20837 21.4467C1.67233 21.4467 2.04822 21.0701 2.04822 20.6069C2.04822 20.5059 2.13056 20.4229 2.23152 20.4229C2.33247 20.4229 2.41553 20.5052 2.41553 20.6069C2.41409 21.272 1.87281 21.814 1.20765 21.814Z" fill="#2E2D2D"/>
<path d="M3.25393 22.1809C2.92171 22.1809 2.61241 22.0692 2.384 21.8666C2.13198 21.6439 1.99451 21.331 1.98735 20.963C1.9852 20.862 2.06539 20.7776 2.16706 20.7754C2.26945 20.774 2.3525 20.8535 2.35465 20.9551C2.36682 21.548 2.81503 21.8129 3.25393 21.8129C3.71646 21.8129 4.09379 21.4363 4.09379 20.973C4.09379 20.8721 4.17613 20.7897 4.2778 20.7897C4.37875 20.7897 4.46181 20.8721 4.46181 20.973C4.46038 21.6389 3.91909 22.1809 3.25393 22.1809Z" fill="#2E2D2D"/>
<path d="M5.30117 22.3649C4.97897 22.3649 4.67396 22.2382 4.44341 22.0091C4.21143 21.7793 4.08398 21.475 4.08398 21.1528C4.08398 21.0518 4.16632 20.9688 4.26799 20.9688C4.36895 20.9688 4.452 21.0511 4.452 21.1528C4.452 21.6189 4.83291 21.9976 5.30188 21.9976C5.76441 21.9976 6.14174 21.621 6.14174 21.1578C6.14174 21.0568 6.22408 20.9745 6.32575 20.9745C6.42742 20.9745 6.50976 21.0568 6.50976 21.1578C6.50833 21.8229 5.96632 22.3649 5.30117 22.3649Z" fill="#2E2D2D"/>
<path d="M7.34745 22.5486C6.99733 22.5486 6.67943 22.4204 6.45532 22.1884C6.23336 21.9593 6.12167 21.6522 6.13312 21.2985C6.1367 21.1975 6.22048 21.1173 6.32215 21.1202C6.4231 21.1238 6.50329 21.2083 6.50043 21.3092C6.49255 21.5605 6.56845 21.776 6.72024 21.9321C6.87561 22.0918 7.099 22.1806 7.34888 22.1806C7.8336 22.1806 8.20162 21.8577 8.2231 21.4123C8.22811 21.3114 8.31475 21.2326 8.4157 21.2376C8.51666 21.2426 8.59542 21.3293 8.5904 21.4302C8.57465 21.7467 8.43647 22.0352 8.20019 22.2407C7.97179 22.439 7.66893 22.5486 7.34745 22.5486Z" fill="#2E2D2D"/>
<path d="M9.39368 22.3641C8.72853 22.3641 8.18652 21.8228 8.18652 21.1569C8.18652 21.056 8.26886 20.9736 8.36982 20.9736C8.47077 20.9736 8.55311 21.056 8.55311 21.1569C8.55311 21.6195 8.92972 21.9968 9.39297 21.9968C9.86481 21.9968 10.2486 21.6302 10.2486 21.1798C10.2486 21.0789 10.3309 20.9965 10.4319 20.9965C10.5328 20.9965 10.6159 21.0789 10.6159 21.1798C10.6159 21.5013 10.4863 21.802 10.2507 22.0254C10.0209 22.2431 9.71588 22.3641 9.39368 22.3641Z" fill="#2E2D2D"/>
<path d="M11.4401 22.1821C10.7749 22.1821 10.2329 21.6408 10.2329 20.9749C10.2329 20.874 10.3152 20.7909 10.4162 20.7909C10.5172 20.7909 10.6002 20.8733 10.6002 20.9749C10.6002 21.4375 10.9768 21.8148 11.4401 21.8148C11.6871 21.8148 11.9248 21.716 12.0931 21.5449C12.2026 21.4332 12.3315 21.2398 12.325 20.9513C12.3229 20.8503 12.4031 20.7659 12.5048 20.7637C12.6057 20.7616 12.6902 20.8418 12.6923 20.9434C12.6995 21.2685 12.5806 21.5728 12.3558 21.8019C12.1188 22.0432 11.7852 22.1821 11.4401 22.1821Z" fill="#2E2D2D"/>
<path d="M13.4869 21.814C12.8218 21.814 12.2798 21.2727 12.2798 20.6069C12.2798 20.5059 12.3621 20.4229 12.4638 20.4229C12.5647 20.4229 12.6471 20.5052 12.6471 20.6069C12.6471 21.0694 13.0237 21.4467 13.4869 21.4467C13.9502 21.4467 14.3268 21.0701 14.3268 20.6069C14.3268 20.5059 14.4091 20.4229 14.5101 20.4229C14.6111 20.4229 14.6941 20.5052 14.6941 20.6069C14.6941 21.272 14.1521 21.814 13.4869 21.814Z" fill="#2E2D2D"/>
<path d="M17.4482 1.87414H13.2245C13.1236 1.87414 13.0405 1.7918 13.0405 1.69013C13.0405 1.58917 13.1229 1.50684 13.2245 1.50684H17.4482C17.5491 1.50684 17.6315 1.58917 17.6315 1.69013C17.6322 1.7918 17.5498 1.87414 17.4482 1.87414Z" fill="#2E2D2D"/>
<path d="M7.1257 7.34362C6.6868 7.34362 6.2572 7.31784 5.84407 7.26414C4.73142 7.12238 4.11782 6.84099 4.09133 6.82882C3.99897 6.78658 3.95887 6.67703 4.00255 6.58467C4.04479 6.49231 4.15434 6.45293 4.2467 6.49589C4.25243 6.49804 4.84741 6.7694 5.90923 6.90257C6.88942 7.025 8.48035 7.05293 10.4916 6.48658C10.5897 6.45866 10.6906 6.51593 10.7185 6.61403C10.7465 6.71212 10.6892 6.81307 10.5911 6.84099C9.67391 7.09947 8.76245 7.26056 7.88393 7.31928C7.62761 7.33503 7.37415 7.34362 7.1257 7.34362Z" fill="#2E2D2D"/>
<path d="M4.40867 9.58625C4.38934 9.58625 4.36929 9.58267 4.35068 9.57622C4.25402 9.54472 4.20247 9.44018 4.23469 9.34353C4.60342 8.23589 5.29937 7.04305 5.32872 6.99293C5.38027 6.90558 5.49268 6.87622 5.58003 6.92777C5.66738 6.97933 5.69674 7.09174 5.6459 7.17909C5.63874 7.19126 4.94065 8.38983 4.58409 9.46023C4.55688 9.53827 4.48528 9.58625 4.40867 9.58625Z" fill="#2E2D2D"/>
<path d="M10.0776 9.58625C10.001 9.58625 9.9294 9.53756 9.90362 9.46023C9.54706 8.38983 8.84825 7.19126 8.84181 7.17909C8.79026 7.09174 8.81961 6.97933 8.90768 6.92777C8.99503 6.87622 9.10744 6.90558 9.15899 6.99293C9.18835 7.04377 9.88358 8.23589 10.253 9.34353C10.2845 9.44018 10.2337 9.54329 10.137 9.57622C10.117 9.5841 10.0969 9.58625 10.0776 9.58625Z" fill="#2E2D2D"/>
<path d="M7.34661 9.77004C7.24565 9.77004 7.1626 9.6877 7.1626 9.58603V7.19892C7.1626 7.09796 7.24494 7.01562 7.34661 7.01562C7.44828 7.01562 7.53062 7.09796 7.53062 7.19892V9.58603C7.5299 9.68842 7.44828 9.77004 7.34661 9.77004Z" fill="#2E2D2D"/>
<path d="M5.63337 6.34415C5.62191 6.33055 5.34626 5.99904 4.97251 5.06396C4.93528 4.97017 4.98038 4.86348 5.0749 4.82554C5.16869 4.7883 5.27537 4.83341 5.31332 4.92792C5.65986 5.79642 5.91189 6.10501 5.91475 6.10787L5.91404 6.10716L5.63337 6.34415Z" fill="#2E2D2D"/>
<path d="M8.97637 6.30156L8.70287 6.05597L8.70215 6.0574C8.7043 6.05525 8.93055 5.78819 9.27494 4.92685C9.31217 4.83306 9.41957 4.78724 9.51337 4.82447C9.60716 4.8617 9.65298 4.9691 9.61575 5.06289C9.24773 5.9858 9.00358 6.2722 8.97637 6.30156Z" fill="#2E2D2D"/>
<path d="M7.34661 6.28074C7.24565 6.28074 7.1626 6.1984 7.1626 6.09744V4.99553C7.1626 4.89458 7.24494 4.81152 7.34661 4.81152C7.44828 4.81152 7.53062 4.89386 7.53062 4.99553V6.09744C7.5299 6.1984 7.44828 6.28074 7.34661 6.28074Z" fill="#2E2D2D"/>
</svg>
