<svg width="22" height="22" viewBox="0 0 22 22" fill="none" xmlns="http://www.w3.org/2000/svg">
<path fill-rule="evenodd" clip-rule="evenodd" d="M8.34483 8.34483V20.4828C8.34483 20.8848 8.18476 21.271 7.90028 21.5554C7.61579 21.8399 7.22966 22 6.82759 22H1.51724C1.11517 22 0.729033 21.8399 0.444551 21.5554C0.160068 21.271 0 20.8848 0 20.4828V1.51724C0 0.678966 0.678966 0 1.51724 0H20.4828C20.8848 0 21.271 0.160068 21.5554 0.444551C21.8399 0.729033 22 1.11517 22 1.51724V6.82759C22 7.22966 21.8399 7.61579 21.5554 7.90028C21.271 8.18476 20.8848 8.34483 20.4828 8.34483H8.34483ZM17.4483 6.82759H20.4828V1.51724H1.51724V20.4828H6.82759V17.4483H5.31034C4.89159 17.4483 4.55172 17.1084 4.55172 16.6897C4.55172 16.2709 4.89159 15.931 5.31034 15.931H6.82759V12.8966H5.31034C4.89159 12.8966 4.55172 12.5567 4.55172 12.1379C4.55172 11.7192 4.89159 11.3793 5.31034 11.3793H6.82759V8.34483H5.31034C4.89159 8.34483 4.55172 8.00497 4.55172 7.58621C4.55172 7.16745 4.89159 6.82759 5.31034 6.82759H6.82759V5.31034C6.82759 4.89159 7.16745 4.55172 7.58621 4.55172C8.00497 4.55172 8.34483 4.89159 8.34483 5.31034V6.82759H11.3793V5.31034C11.3793 4.89159 11.7192 4.55172 12.1379 4.55172C12.5567 4.55172 12.8966 4.89159 12.8966 5.31034V6.82759H15.931V5.31034C15.931 4.89159 16.2709 4.55172 16.6897 4.55172C17.1084 4.55172 17.4483 4.89159 17.4483 5.31034V6.82759Z" fill="#2E2D2D"/>
</svg>
