<svg width="22" height="22" viewBox="0 0 22 22" fill="none" xmlns="http://www.w3.org/2000/svg">
<path d="M15.6152 10.1978C15.2205 9.40841 13.6663 8.15032 12.7289 7.63228C12.8523 6.64554 13.099 5.63413 13.5923 4.3267C13.691 4.05535 13.7403 3.75933 13.7403 3.4633C13.7403 2.64924 13.3457 1.88452 12.6796 1.36648C12.3836 1.1198 12.1862 0.749771 12.1862 0.355075C12.1862 0.231733 12.1122 0.10839 12.0136 0.0590534C11.9149 0.0097164 11.7669 0.00971638 11.6682 0.0837218L11.2488 0.355075C10.8541 0.60176 10.3361 0.60176 9.9414 0.355075L9.4727 0.0590534C9.37403 -0.0149521 9.22602 -0.0149522 9.12734 0.0343848C9.02867 0.0837218 8.95466 0.207064 8.95466 0.330407C8.95466 0.725102 8.78198 1.09513 8.46129 1.34181C7.79524 1.88452 7.40055 2.64924 7.40055 3.43864C7.40055 3.73466 7.44988 4.03068 7.54856 4.30203C8.01726 5.60946 8.28861 6.62087 8.41195 7.60761C7.49922 8.10098 5.94511 9.35907 5.55041 10.1731C0 18.6344 0 18.8071 0 18.9304C0 20.7806 5.4764 21.94 10.5581 21.94C15.6398 21.94 21.1162 20.8053 21.1162 18.9304C21.1162 18.8071 21.1162 18.6344 15.6152 10.1978ZM10.5581 21.2493C4.58834 21.2493 0.863397 19.8185 0.690718 19.0044C1.03608 18.3631 4.0703 13.6514 6.11779 10.5678C6.11779 10.5432 6.14245 10.5432 6.14245 10.5185C6.43848 9.87711 8.09126 8.52034 8.90532 8.15032C9.02867 8.10098 9.12734 8.07631 9.12734 8.07631L9.078 7.73095C8.97933 6.64554 8.68331 5.51079 8.16527 4.08002C8.09126 3.88267 8.0666 3.66065 8.0666 3.4633C8.0666 2.87126 8.36262 2.30389 8.85599 1.88452C9.17668 1.63784 9.39869 1.29248 9.52204 0.897782L9.57137 0.947119C10.1881 1.34181 10.9775 1.34181 11.5695 0.947119C11.6929 1.31715 11.9149 1.66251 12.2356 1.90919C12.7536 2.30389 13.025 2.89593 13.025 3.48797C13.025 3.70999 12.9756 3.90734 12.9263 4.10469C12.4083 5.53546 12.1369 6.67021 12.0136 7.75562V7.80496C12.0136 7.87896 11.9889 8.07631 11.9889 8.07631C11.9889 8.07631 12.1369 8.12565 12.2109 8.15032C13.025 8.52034 14.7024 9.87711 14.9984 10.5185C14.9984 10.5432 15.0231 10.5432 15.0231 10.5678C17.0459 13.6514 20.0802 18.3384 20.4255 18.9798C20.2528 19.8185 16.5279 21.2493 10.5581 21.2493ZM11.3228 12.3686V16.5129H13.7157L10.5581 19.6952L7.37588 16.5129H9.76872V12.3686H7.37588L10.5581 9.18639L13.7403 12.3686H11.3228Z" fill="#2E2D2D"/>
</svg>
