<svg width="22" height="23" viewBox="0 0 22 23" fill="none" xmlns="http://www.w3.org/2000/svg">
<path d="M9.50692 0.821874C9.72521 0.741154 9.95488 0.699085 10.1868 0.69795H14.6617C14.8925 0.700224 15.121 0.742289 15.337 0.821874C14.6901 1.79393 13.5998 2.3772 12.4333 2.3772C11.2657 2.3772 10.1754 1.79396 9.52849 0.821874H9.50692ZM5.09341 8.9623H6.56345V6.60432H7.33087V16.482C7.40249 16.972 7.81975 17.337 8.31544 17.3427H16.5263C17.022 17.3381 17.4415 16.972 17.5143 16.482V6.60432H18.2817V8.9623H19.7517C20.0451 8.96571 20.3236 8.83724 20.5123 8.61327C20.6999 8.3893 20.7784 8.09255 20.725 7.80493L20.028 3.90542C19.9177 3.27669 19.5062 2.74235 18.9275 2.47516L15.9407 1.09834C15.1801 2.31031 13.8499 3.04702 12.4196 3.04702C10.9882 3.04702 9.65799 2.31031 8.89727 1.09834L5.91748 2.47516C5.33765 2.74348 4.9261 3.27669 4.81352 3.90542L4.12568 7.80493C4.07338 8.09144 4.15183 8.3859 4.33828 8.60987C4.52474 8.83384 4.80119 8.96344 5.09341 8.9623ZM20.7738 20.0747V20.7864H18.5455V20.0747H17.8781V20.7864H15.6497V20.0747H14.9824V20.7864H12.754V20.0747H12.0866L12.0878 20.7864H9.86168V20.0747H9.20455V20.7864H6.96708V20.0747H6.2963V20.7864H4.07135V20.0747H3.4017V22.17H4.07135V21.4572H6.2963V22.17H6.96595L6.96709 21.4572H9.20455V22.17H9.8742V21.4572H12.0991V22.17H12.7665V21.4572H14.9949V22.17H15.6623V21.4572H17.8906V22.17H18.558L18.5569 21.4572H20.7852V22.17H21.4526V20.0747H20.7738ZM0 0.670818H0.715114V2.89917H0V3.56655H0.715114V5.7949H0V6.46228L0.715114 6.46115V8.6895H0V9.35688H0.715114V11.5852H0V12.2526H0.715114V14.481H0V15.1483L0.715114 15.1472V17.3756H0V18.0429H2.09534V17.3756H1.37909V15.1449H2.09421V14.4775H1.37909V12.2492H2.09421V11.5818H1.37909V9.35344H2.09421V8.68606L1.37909 8.6872V6.45885H2.09421V5.79147H1.37909V3.56311H2.09421V2.89917H1.37909V0.667382H2.09421V0L0 0.0011372V0.670818Z" fill="#2E2D2D"/>
</svg>
