<svg width="19" height="23" viewBox="0 0 19 23" fill="none" xmlns="http://www.w3.org/2000/svg">
<path d="M6.09386 22.0431C6.08573 22.1098 6.02505 22.1572 5.95836 22.1491C5.89167 22.141 5.8442 22.0803 5.85234 22.0136C5.89106 21.6999 5.96483 21.4913 6.03987 21.2791C6.11754 21.0593 6.19669 20.8355 6.23407 20.4795L6.23549 20.47C6.35156 19.8406 6.38799 19.0162 6.41934 18.3068C6.43898 17.8622 6.45667 17.462 6.49021 17.1808L6.49026 17.1809L6.73269 15.0573L6.73364 15.0526C6.78295 14.7383 6.86188 14.4957 6.95666 14.3257C6.99213 14.2621 7.03035 14.2076 7.07071 14.1624C6.85256 14.0639 6.66055 13.8737 6.43907 13.6543C6.33516 13.5514 6.22429 13.4415 6.10456 13.3353C6.05441 13.291 6.04973 13.2143 6.0941 13.1642C6.13847 13.114 6.2151 13.1094 6.26525 13.1537C6.39325 13.2672 6.50525 13.3782 6.61023 13.4822C6.89137 13.7608 7.11857 13.9858 7.38485 13.9914C7.68477 13.9851 7.98183 13.6745 8.3044 13.3372C8.35845 13.2807 8.41319 13.2234 8.47217 13.1633C8.51916 13.1155 8.59601 13.1149 8.6438 13.1619C8.69158 13.2089 8.69221 13.2857 8.64522 13.3335C8.59157 13.3882 8.53558 13.4467 8.4803 13.5045C8.21722 13.7797 7.96937 14.0388 7.69777 14.1609C7.73864 14.2064 7.77733 14.2613 7.8132 14.3257C7.90797 14.4957 7.98691 14.7383 8.03622 15.0526L8.03717 15.0573L8.2796 17.1809L8.27965 17.1808C8.31319 17.462 8.33088 17.8622 8.35053 18.3068C8.38187 19.0162 8.4183 19.8406 8.53437 20.47L8.53579 20.4795C8.57317 20.8355 8.65232 21.0593 8.73 21.2791C8.80503 21.4913 8.8788 21.6999 8.91752 22.0136C8.92566 22.0803 8.87819 22.141 8.8115 22.1491C8.74481 22.1572 8.68414 22.1098 8.676 22.0431C8.64038 21.7546 8.5712 21.5589 8.50084 21.3599C8.41889 21.1281 8.33541 20.8919 8.2947 20.5083C8.17637 19.863 8.13966 19.0324 8.10806 18.3173C8.08879 17.8811 8.07144 17.4886 8.03813 17.2094V17.2089L7.79565 15.0849L7.79585 15.0849C7.75124 14.8031 7.68252 14.5896 7.60116 14.4436C7.52924 14.3146 7.45407 14.2465 7.38493 14.2393C7.3158 14.2465 7.24062 14.3146 7.1687 14.4436C7.08734 14.5896 7.01862 14.8031 6.97401 15.0849L6.97421 15.0849L6.73173 17.2089V17.2094C6.69842 17.4886 6.68107 17.8811 6.6618 18.3173C6.6302 19.0324 6.59349 19.863 6.47515 20.5083C6.43446 20.8919 6.35097 21.1281 6.26902 21.3599C6.19866 21.5589 6.12948 21.7546 6.09386 22.0431ZM10.2987 8.73167C10.2718 8.73167 10.25 8.70987 10.25 8.68298C10.25 8.6561 10.2718 8.6343 10.2987 8.6343H11.0942C11.1211 8.6343 11.1429 8.6561 11.1429 8.68298C11.1429 8.70987 11.1211 8.73167 11.0942 8.73167H10.2987ZM11.4165 13.0191C11.3896 13.0191 11.3678 12.9973 11.3678 12.9705C11.3678 12.9436 11.3896 12.9218 11.4165 12.9218H12.6756C12.7025 12.9218 12.7243 12.9436 12.7243 12.9705C12.7243 12.9973 12.7025 13.0191 12.6756 13.0191H11.4165ZM18.4076 12.8001C18.5017 12.8001 18.578 12.8764 18.578 12.9705C18.578 13.0646 18.5017 13.1409 18.4076 13.1409C18.3304 13.1409 18.2652 13.0895 18.2443 13.0191H15.2998C15.2729 13.0191 15.2511 12.9973 15.2511 12.9705C15.2511 12.9436 15.2729 12.9218 15.2998 12.9218H18.2443C18.2652 12.8514 18.3304 12.8001 18.4076 12.8001ZM18.4076 8.5141C18.5017 8.5141 18.578 8.59038 18.578 8.68449C18.578 8.7786 18.5017 8.85488 18.4076 8.85488C18.3299 8.85488 18.2643 8.80282 18.2438 8.73167H14.7009C14.674 8.73167 14.6522 8.70987 14.6522 8.68298C14.6522 8.6561 14.674 8.6343 14.7009 8.6343H18.2447C18.2662 8.56469 18.331 8.5141 18.4076 8.5141ZM18.4076 5.55546C18.5017 5.55546 18.578 5.63175 18.578 5.72586C18.578 5.81996 18.5017 5.89625 18.4076 5.89625C18.3336 5.89625 18.2706 5.84903 18.2471 5.78306H13.6575C13.6306 5.78306 13.6088 5.76126 13.6088 5.73438C13.6088 5.7075 13.6306 5.68569 13.6575 5.68569H18.242C18.2601 5.61098 18.3274 5.55546 18.4076 5.55546ZM10.1964 12.7611C10.1714 12.7296 10.1766 12.6838 10.2081 12.6587C10.2396 12.6337 10.2855 12.6389 10.3105 12.6704L10.5384 12.958L10.3095 13.2502C10.2847 13.2819 10.239 13.2875 10.2073 13.2627C10.1757 13.238 10.17 13.1923 10.1948 13.1606L10.2943 13.0336H10.0751C10.0543 13.0336 10.0343 13.0247 10.0205 13.009C9.97885 12.9618 10.0124 12.8876 10.0751 12.8876H10.2966L10.1964 12.7611ZM4.3123 12.6704C4.33735 12.6389 4.3832 12.6337 4.41471 12.6587C4.44622 12.6838 4.45146 12.7296 4.42641 12.7611L4.32621 12.8876H4.52518C4.546 12.8876 4.56604 12.8965 4.57982 12.9121C4.62146 12.9593 4.58795 13.0336 4.52518 13.0336H4.32855L4.42803 13.1606C4.45277 13.1923 4.44715 13.238 4.41548 13.2627C4.38382 13.2875 4.33809 13.2819 4.31337 13.2502L4.08444 12.958L4.3123 12.6704ZM5.42222 8.39683C5.44727 8.36532 5.49312 8.36008 5.52463 8.38513C5.55614 8.41018 5.56137 8.45603 5.53633 8.48754L5.43674 8.61319H5.68081C5.70163 8.61319 5.72167 8.62213 5.73545 8.63777C5.77709 8.68497 5.74358 8.75925 5.68081 8.75925H5.43785L5.53795 8.88702C5.56269 8.91868 5.55706 8.96441 5.5254 8.98914C5.49374 9.01387 5.44801 9.00826 5.42329 8.97659L5.19436 8.68436L5.42222 8.39683ZM9.23523 8.48267C9.21018 8.45116 9.21542 8.40531 9.24693 8.38026C9.27844 8.35522 9.32429 8.36045 9.34934 8.39196L9.5772 8.67949L9.34828 8.97172C9.32355 9.00339 9.27782 9.009 9.24616 8.98427C9.21449 8.95954 9.20887 8.91382 9.23361 8.88216L9.32989 8.75925H9.03999C9.01917 8.75925 8.99913 8.75031 8.98535 8.73467C8.94371 8.68747 8.97722 8.61319 9.03999 8.61319H9.33209C9.33438 8.61319 9.33667 8.6133 9.33893 8.61352L9.23523 8.48267ZM9.88422 5.53106C9.85917 5.49956 9.86441 5.45371 9.89592 5.42866C9.92743 5.40361 9.97327 5.40885 9.99832 5.44036L10.2262 5.72789L9.99726 6.02012C9.97253 6.05178 9.9268 6.0574 9.89514 6.03267C9.86348 6.00794 9.85786 5.96222 9.88259 5.93055L9.97906 5.8074H9.79569C9.77488 5.8074 9.75483 5.79847 9.74106 5.78283C9.69941 5.73563 9.73293 5.66135 9.79569 5.66135H9.98747L9.88422 5.53106ZM4.81905 5.44523C4.8441 5.41372 4.88995 5.40848 4.92146 5.43353C4.95297 5.45858 4.95821 5.50443 4.93316 5.53593L4.83376 5.66135H4.976C4.99681 5.66135 5.01686 5.67029 5.03063 5.68593C5.07228 5.73313 5.03876 5.8074 4.976 5.8074H4.8345L4.93478 5.93542C4.95952 5.96708 4.9539 6.01281 4.92224 6.03754C4.89057 6.06227 4.84484 6.05665 4.82012 6.02499L4.63489 5.78854C4.63292 5.78675 4.63103 5.78485 4.62925 5.78283C4.62531 5.77836 4.62205 5.77365 4.61941 5.76878L4.59119 5.73276L4.81905 5.44523ZM7.29642 10.2624C7.25798 10.2741 7.21737 10.2524 7.20571 10.2139C7.19405 10.1755 7.21577 10.1349 7.2542 10.1232C7.28576 10.1135 7.31572 10.1088 7.34378 10.1081C7.40713 10.1066 7.46035 10.1253 7.50099 10.1543C7.54337 10.1845 7.57227 10.2264 7.58532 10.2691C7.59027 10.2852 7.59302 10.3017 7.59342 10.318C7.59392 10.3386 7.59227 10.3598 7.588 10.3805C7.57881 10.425 7.55779 10.4678 7.52061 10.5007C7.48428 10.5329 7.43434 10.5541 7.36768 10.5557C7.33948 10.5564 7.30821 10.5536 7.27365 10.5464C7.23427 10.5384 7.20885 10.5 7.21689 10.4606C7.22492 10.4212 7.26337 10.3958 7.30275 10.4038C7.32643 10.4087 7.34682 10.4107 7.36425 10.4103C7.39292 10.4096 7.41213 10.4024 7.4242 10.3918C7.43542 10.3818 7.4421 10.3673 7.44538 10.3514C7.4474 10.3416 7.44818 10.3314 7.44794 10.3215C7.44786 10.3184 7.44724 10.315 7.44611 10.3113C7.442 10.2978 7.43191 10.2839 7.41655 10.273C7.39946 10.2608 7.37613 10.2529 7.34721 10.2536C7.33186 10.254 7.31492 10.2567 7.29642 10.2624ZM9.63698 13.0336C9.69974 13.0336 9.73326 12.9593 9.69162 12.9121C9.67784 12.8965 9.65779 12.8876 9.63698 12.8876H9.34488C9.28211 12.8876 9.2486 12.9618 9.29024 13.009C9.30402 13.0247 9.32406 13.0336 9.34488 13.0336H9.63698ZM8.90673 13.0336C8.96949 13.0336 9.00301 12.9593 8.96136 12.9121C8.94758 12.8965 8.92754 12.8876 8.90673 12.8876H8.61462C8.55185 12.8876 8.51834 12.9618 8.55998 13.009C8.57376 13.0247 8.5938 13.0336 8.61462 13.0336H8.90673ZM8.17647 13.0336C8.23923 13.0336 8.27275 12.9593 8.23111 12.9121C8.21733 12.8965 8.19728 12.8876 8.17647 12.8876H7.88436C7.8216 12.8876 7.78808 12.9618 7.82972 13.009C7.8435 13.0247 7.86355 13.0336 7.88436 13.0336H8.17647ZM7.44621 13.0336C7.50898 13.0336 7.54249 12.9593 7.50085 12.9121C7.48707 12.8965 7.46703 12.8876 7.44621 12.8876H7.15411C7.09134 12.8876 7.05782 12.9618 7.09947 13.009C7.11325 13.0247 7.13329 13.0336 7.15411 13.0336H7.44621ZM6.71595 13.0336C6.77872 13.0336 6.81224 12.9593 6.77059 12.9121C6.75681 12.8965 6.73677 12.8876 6.71595 12.8876H6.42385C6.36108 12.8876 6.32757 12.9618 6.36921 13.009C6.38299 13.0247 6.40303 13.0336 6.42385 13.0336H6.71595ZM5.9857 13.0336C6.04846 13.0336 6.08198 12.9593 6.04033 12.9121C6.02655 12.8965 6.00651 12.8876 5.9857 12.8876H5.69359C5.63082 12.8876 5.59731 12.9618 5.63895 13.009C5.65273 13.0247 5.67277 13.0336 5.69359 13.0336H5.9857ZM5.25544 13.0336C5.3182 13.0336 5.35172 12.9593 5.31008 12.9121C5.2963 12.8965 5.27625 12.8876 5.25544 12.8876H4.96333C4.90057 12.8876 4.86705 12.9618 4.90869 13.009C4.92247 13.0247 4.94252 13.0336 4.96333 13.0336H5.25544ZM9.35754 5.8074C9.42031 5.8074 9.45382 5.73313 9.41218 5.68593C9.3984 5.67029 9.37836 5.66135 9.35754 5.66135H9.06544C9.00267 5.66135 8.96916 5.73563 9.0108 5.78283C9.02458 5.79847 9.04462 5.8074 9.06544 5.8074H9.35754ZM8.62728 5.8074C8.69005 5.8074 8.72357 5.73313 8.68192 5.68593C8.66814 5.67029 8.6481 5.66135 8.62728 5.66135H8.33518C8.27241 5.66135 8.2389 5.73563 8.28055 5.78283C8.29432 5.79847 8.31436 5.8074 8.33518 5.8074H8.62728ZM7.89703 5.8074C7.95979 5.8074 7.99331 5.73313 7.95167 5.68593C7.93789 5.67029 7.91784 5.66135 7.89703 5.66135H7.60492C7.54216 5.66135 7.50864 5.73563 7.55029 5.78283C7.56406 5.79847 7.5841 5.8074 7.60492 5.8074H7.89703ZM7.16677 5.8074C7.22953 5.8074 7.26305 5.73313 7.22141 5.68593C7.20763 5.67029 7.18759 5.66135 7.16677 5.66135H6.87466C6.8119 5.66135 6.77838 5.73563 6.82003 5.78283C6.8338 5.79847 6.85385 5.8074 6.87466 5.8074H7.16677ZM6.43651 5.8074C6.49928 5.8074 6.53279 5.73313 6.49115 5.68593C6.47737 5.67029 6.45733 5.66135 6.43651 5.66135H6.14441C6.08164 5.66135 6.04812 5.73563 6.08977 5.78283C6.10355 5.79847 6.12359 5.8074 6.14441 5.8074H6.43651ZM5.70625 5.8074C5.76902 5.8074 5.80254 5.73313 5.76089 5.68593C5.74711 5.67029 5.72707 5.66135 5.70625 5.66135H5.41415C5.35138 5.66135 5.31787 5.73563 5.35951 5.78283C5.37329 5.79847 5.39333 5.8074 5.41415 5.8074H5.70625ZM8.60184 8.75925C8.66461 8.75925 8.69812 8.68497 8.65647 8.63777C8.6427 8.62213 8.62265 8.61319 8.60184 8.61319H8.30974C8.24697 8.61319 8.21345 8.68747 8.2551 8.73467C8.26888 8.75031 8.28891 8.75925 8.30974 8.75925H8.60184ZM7.87158 8.75925C7.93435 8.75925 7.96786 8.68497 7.92622 8.63777C7.91244 8.62213 7.89239 8.61319 7.87158 8.61319H7.57948C7.51671 8.61319 7.4832 8.68747 7.52484 8.73467C7.53862 8.75031 7.55866 8.75925 7.57948 8.75925H7.87158ZM7.14133 8.75925C7.20409 8.75925 7.23761 8.68497 7.19596 8.63777C7.18219 8.62213 7.16214 8.61319 7.14133 8.61319H6.84923C6.78646 8.61319 6.75294 8.68747 6.79459 8.73467C6.80836 8.75031 6.8284 8.75925 6.84923 8.75925H7.14133ZM6.41107 8.75925C6.47383 8.75925 6.50735 8.68497 6.46571 8.63777C6.45193 8.62213 6.43188 8.61319 6.41107 8.61319H6.11897C6.0562 8.61319 6.02269 8.68747 6.06433 8.73467C6.0781 8.75031 6.09815 8.75925 6.11897 8.75925H6.41107ZM4.33801 11.3387C4.79773 11.4913 5.28975 11.6181 5.80759 11.7059C6.30897 11.791 6.83569 11.8395 7.38216 11.8395C7.92862 11.8395 8.45534 11.791 8.95672 11.7059C9.47646 11.6178 9.97019 11.4903 10.4313 11.337C10.3939 11.2042 10.3537 11.069 10.3103 10.9313C10.23 10.6757 10.1654 10.4765 10.1075 10.2976C9.77594 9.27426 9.64704 8.87636 9.71346 7.9825C9.73413 7.7044 9.78793 7.46267 9.85809 7.24618C9.22461 7.24413 8.77578 7.16943 8.38393 7.1042C8.04399 7.04762 7.74818 6.99838 7.41732 7.01304L7.41209 7.01327L7.40686 7.01304C7.08782 6.99891 6.86192 7.05693 6.61408 7.12059C6.2284 7.21966 5.79275 7.33151 4.91018 7.23474C4.98101 7.45502 5.03546 7.70064 5.0564 7.9825C5.12282 8.87636 4.99392 9.27426 4.66238 10.2976C4.60446 10.4765 4.53992 10.6757 4.45954 10.9313C4.41602 11.0696 4.37557 11.2054 4.33801 11.3387ZM10.4952 11.5718C10.0269 11.7268 9.52525 11.8559 8.99666 11.9455C8.48099 12.033 7.94076 12.0829 7.38216 12.0829C6.82355 12.0829 6.28332 12.033 5.76765 11.9455C5.24096 11.8562 4.74104 11.7278 4.27415 11.5735C4.22289 11.7691 4.17791 11.9593 4.13865 12.1448C4.39003 12.1611 4.62958 12.2065 4.84868 12.2695C5.16234 12.3597 5.43649 12.4865 5.64493 12.6166C5.7019 12.652 5.71935 12.727 5.68391 12.7839C5.64846 12.8409 5.57353 12.8584 5.51656 12.8229C5.32542 12.7036 5.07275 12.587 4.78212 12.5034C4.56773 12.4417 4.33393 12.3982 4.09053 12.3849C3.76373 14.1075 3.92823 15.417 4.09433 16.7382C4.24131 17.9073 4.38943 19.0854 4.20719 20.5666C4.15419 20.9974 4.08371 21.244 4.02057 21.4648C3.96948 21.6436 3.9234 21.8048 3.89736 22.0355C3.89001 22.1022 3.82998 22.1503 3.76328 22.1429C3.69659 22.1356 3.64849 22.0755 3.65584 22.0089C3.68437 21.7561 3.73288 21.5865 3.78666 21.3983C3.84727 21.1863 3.91493 20.9496 3.96567 20.5371C4.14424 19.0857 3.99797 17.9222 3.85281 16.7677C3.68221 15.4107 3.51325 14.0659 3.86258 12.2806C3.86131 12.2732 3.8607 12.2657 3.86082 12.2579C3.86118 12.2348 3.86803 12.2132 3.87959 12.195C3.96482 11.7759 4.07861 11.3325 4.22753 10.859C4.29662 10.6393 4.36761 10.4202 4.43133 10.2235C4.75221 9.23299 4.87697 8.84788 4.81394 7.99962C4.76974 7.40487 4.55851 6.97263 4.37485 6.59684C4.27835 6.39938 4.18892 6.21634 4.13112 6.03171L4.13108 6.03175L4.13105 6.03179L4.13101 6.03184L4.13099 6.03188L4.13095 6.03192L4.13092 6.03197L4.13088 6.03201L4.13085 6.03205L4.13031 6.03276L4.13028 6.03281L4.13025 6.03285L4.13021 6.03289L4.13018 6.03293L4.13014 6.03298L4.13011 6.03302L4.13008 6.03307L4.13004 6.03311L4.13001 6.03315L4.12997 6.0332L4.12994 6.03324L4.1299 6.03328L4.12987 6.03333L4.12984 6.03337L4.1298 6.03341L4.12977 6.03346L4.12973 6.0335L4.1297 6.03354L4.12967 6.03359L4.12963 6.03363L4.1296 6.03368L4.12957 6.03372L4.12953 6.03376L4.1295 6.0338L4.12946 6.03385L4.12943 6.03389L4.12939 6.03393L4.12936 6.03398L4.12932 6.03402L4.12926 6.03411L4.12922 6.03415L4.12918 6.03419L4.12915 6.03424L4.12912 6.03428L4.12908 6.03432L4.12905 6.03437L4.12901 6.03441L4.12898 6.03445L4.12894 6.0345C4.02843 6.37332 3.93228 6.72584 3.83369 7.08733C3.62903 7.83778 3.41391 8.6265 3.12884 9.41103C2.97534 9.83347 2.54762 10.5531 2.18566 11.162C1.88949 11.6603 1.63889 12.0819 1.63639 12.1532C1.62966 12.364 1.65886 12.4726 1.68763 12.5797C1.72721 12.727 1.7661 12.8718 1.7336 13.2132C1.72886 13.2631 1.70726 13.5033 1.69166 13.7249C1.68308 13.8467 1.67672 13.957 1.6769 14.0137C1.67724 14.1185 1.6536 14.2794 1.58504 14.401C1.52614 14.5054 1.43684 14.5837 1.30572 14.5933C1.20185 14.6009 1.11854 14.5663 1.05467 14.504C1.00257 14.4533 0.966606 14.3849 0.945535 14.308C0.920991 14.4217 0.904233 14.5241 0.903982 14.5845V14.5902C0.892404 14.8076 0.851372 15.0079 0.791376 15.1745C0.725224 15.3583 0.634431 15.504 0.532205 15.5913C0.476633 15.6387 0.416841 15.6706 0.354319 15.6843C0.289142 15.6985 0.222981 15.693 0.157484 15.6652L0.129886 15.6534L0.110895 15.63C0.0323294 15.533 0.0006277 15.332 1.02834e-05 15.0808C-0.000681409 14.8001 0.0335921 14.4465 0.0812214 14.1112C0.110389 13.9059 0.145377 13.7035 0.180807 13.5269C0.217977 13.3417 0.255087 13.1887 0.286032 13.0939C0.413921 12.7022 0.466355 12.4061 0.521444 12.095C0.569663 11.8227 0.619892 11.5391 0.724337 11.1663C0.876923 10.6217 0.965575 10.1816 1.04731 9.77589C1.21127 8.96197 1.348 8.28327 1.89212 7.22361C2.06078 6.89515 2.18542 6.59416 2.29264 6.28728C2.39965 5.98098 2.49013 5.66534 2.58997 5.30968C2.68351 4.97649 2.75943 4.64644 2.83428 4.32104C2.97492 3.70956 3.11188 3.11416 3.35381 2.5383C3.68443 1.75135 4.17958 1.72456 4.70025 1.69641C5.07607 1.67608 5.46729 1.65491 5.79088 1.26835C5.91093 1.12493 5.99501 0.954648 6.04638 0.76972C6.10203 0.569394 6.11954 0.351284 6.10305 0.130606C6.09807 0.063656 6.1483 0.0053264 6.21525 0.000340642C6.2822 -0.00464047 6.34053 0.0455931 6.34552 0.112543C6.36398 0.359556 6.34379 0.60578 6.28028 0.834387C6.21976 1.0523 6.12006 1.25369 5.97725 1.4243C5.69919 1.75647 5.39371 1.86469 5.08659 1.90782C4.9586 2.30794 4.88508 2.80197 4.87198 3.29926C4.85925 3.78242 4.90368 4.26667 5.01067 4.66864C5.05618 4.66258 5.10262 4.65795 5.14983 4.65467C5.58467 4.62448 6.08914 4.70939 6.5129 4.84781C6.62232 4.88355 6.72728 4.92325 6.82514 4.96581C7.11013 5.08975 7.29599 5.14024 7.46322 5.13122C7.62903 5.12229 7.79169 5.05273 8.02638 4.93691C8.21075 4.84592 8.41448 4.7689 8.62414 4.7104C9.01307 4.60188 9.42385 4.55728 9.77151 4.60553C9.77779 4.6064 9.78404 4.60731 9.79028 4.60824C9.88608 4.21865 9.92559 3.75846 9.9135 3.29926C9.90042 2.8029 9.82716 2.30978 9.6996 1.91007C9.38699 1.86846 9.0756 1.76236 8.79261 1.4243C8.6498 1.25369 8.55011 1.0523 8.48958 0.834387C8.42607 0.60578 8.40589 0.359556 8.42435 0.112543C8.42933 0.0455931 8.48766 -0.00464047 8.55461 0.000340642C8.62156 0.0053264 8.6718 0.063656 8.66681 0.130606C8.65032 0.351284 8.66783 0.569394 8.72348 0.76972C8.77485 0.954648 8.85892 1.12493 8.97898 1.26835C9.30257 1.65491 9.69379 1.67608 10.0696 1.69641C10.5903 1.72456 11.0854 1.75135 11.416 2.5383C11.658 3.11416 11.7949 3.70956 11.9356 4.32104C12.0104 4.64644 12.0864 4.97649 12.1799 5.30968C12.2797 5.66534 12.3702 5.98098 12.4772 6.28728C12.5844 6.59416 12.7091 6.89515 12.8777 7.22361C13.4219 8.28327 13.5586 8.96197 13.7226 9.77589C13.8043 10.1816 13.8929 10.6217 14.0455 11.1663C14.15 11.5391 14.2002 11.8227 14.2484 12.095C14.3035 12.4061 14.3559 12.7022 14.4838 13.0939C14.5148 13.1887 14.5519 13.3417 14.5891 13.5269C14.6245 13.7035 14.6595 13.9059 14.6886 14.1112C14.7363 14.4465 14.7705 14.8001 14.7699 15.0808C14.7692 15.332 14.7375 15.533 14.659 15.63L14.64 15.6534L14.6124 15.6652C14.5469 15.693 14.4807 15.6985 14.4155 15.6843C14.353 15.6706 14.2932 15.6387 14.2377 15.5913C14.1354 15.504 14.0446 15.3583 13.9785 15.1745C13.9185 15.0079 13.8775 14.8076 13.8659 14.5902V14.5845C13.8656 14.5241 13.8489 14.4217 13.8243 14.308C13.8033 14.3849 13.7673 14.4533 13.7152 14.504C13.6513 14.5663 13.568 14.6009 13.4641 14.5933C13.333 14.5837 13.2437 14.5054 13.1848 14.401C13.1163 14.2794 13.0926 14.1185 13.093 14.0137C13.0931 13.957 13.0868 13.8467 13.0782 13.7249C13.0626 13.5033 13.041 13.2631 13.0363 13.2132C13.0038 12.8718 13.0427 12.727 13.0822 12.5797C13.111 12.4726 13.1402 12.364 13.1335 12.1532C13.131 12.0819 12.8804 11.6603 12.5842 11.162C12.2222 10.5531 11.7945 9.83347 11.641 9.41103C11.3559 8.6265 11.1408 7.83778 10.9362 7.08733C10.8386 6.72946 10.7434 6.38036 10.6439 6.04466C10.5854 6.23209 10.4938 6.41638 10.395 6.61506C10.2108 6.98527 9.99977 7.40959 9.95593 7.99962C9.89289 8.84788 10.0176 9.23299 10.3385 10.2235C10.4022 10.4201 10.4732 10.6393 10.5423 10.859C11.3408 13.3975 11.1301 15.0731 10.917 16.7677C10.7719 17.9222 10.6256 19.0857 10.8042 20.5371C10.8549 20.9496 10.9226 21.1863 10.9832 21.3983C11.037 21.5865 11.0855 21.7561 11.114 22.0089C11.1214 22.0755 11.0733 22.1356 11.0066 22.1429C10.9399 22.1503 10.8799 22.1022 10.8725 22.0355C10.8465 21.8048 10.8004 21.6436 10.7493 21.4648C10.6861 21.244 10.6157 20.9974 10.5627 20.5666C10.3804 19.0854 10.5285 17.9073 10.6755 16.7382C10.8403 15.4278 11.0035 14.1288 10.6872 12.4269C10.3891 12.4361 10.1069 12.4727 9.85301 12.5352C9.5806 12.6023 9.34252 12.699 9.15488 12.8235C9.09895 12.8605 9.02359 12.8452 8.98657 12.7893C8.94955 12.7333 8.96487 12.658 9.0208 12.6209C9.2319 12.4809 9.49582 12.373 9.79501 12.2994C10.0529 12.2359 10.3384 12.1976 10.6397 12.186C10.5983 11.987 10.5504 11.7824 10.4952 11.5718ZM9.95996 1.93341C10.0764 2.33625 10.1433 2.81441 10.156 3.29355C10.1685 3.77138 10.1272 4.25195 10.0271 4.6617C10.0968 4.68348 10.1624 4.71021 10.2233 4.74219L10.2027 4.67692C10.1825 4.61285 10.218 4.54452 10.2821 4.5243C10.2959 4.51994 10.3099 4.51817 10.3237 4.51873C10.3771 4.5166 10.4276 4.5502 10.4444 4.6037L10.6998 5.41073C10.7479 5.55515 10.7944 5.70283 10.8399 5.85334L10.8615 5.92162C10.8633 5.92749 10.8647 5.93339 10.8656 5.93928C10.9694 6.28788 11.0685 6.65104 11.1701 7.02362C11.373 7.76754 11.5862 8.54941 11.8692 9.32831C12.0144 9.72791 12.4363 10.4377 12.7934 11.0384C13.1064 11.5649 13.3712 12.0105 13.3759 12.1456C13.3839 12.394 13.3502 12.5191 13.3171 12.6425C13.283 12.7693 13.2495 12.8939 13.2778 13.1904C13.2829 13.2443 13.3058 13.4974 13.3207 13.7087C13.3293 13.8309 13.3356 13.9454 13.3354 14.0137C13.3352 14.089 13.3507 14.202 13.3959 14.2821C13.4173 14.3201 13.4455 14.3482 13.4813 14.3509C13.5095 14.3529 13.5308 14.3448 13.5459 14.33C13.5714 14.3052 13.5885 14.263 13.5975 14.2127C13.6243 14.0647 13.6201 13.984 13.616 13.9062C13.6125 13.8403 13.6091 13.7761 13.6197 13.683C13.6242 13.644 13.6384 13.6136 13.6613 13.5912C13.7499 13.5041 13.8239 13.5341 13.8832 13.6538C13.8979 13.6834 13.9145 13.7259 13.9317 13.7767C14.0059 13.9954 14.1054 14.4069 14.1083 14.5778L14.1083 14.5778C14.1186 14.7713 14.1545 14.9477 14.2067 15.0928C14.2584 15.2364 14.3246 15.3463 14.3955 15.4068C14.4203 15.428 14.4443 15.4416 14.4669 15.4465C14.4736 15.448 14.4803 15.4487 14.487 15.4485C14.5151 15.3824 14.527 15.25 14.5274 15.0808C14.528 14.8148 14.4946 14.4727 14.4481 14.1454C14.4186 13.9381 14.3847 13.7408 14.3513 13.5744C14.3166 13.4012 14.2818 13.2579 14.2528 13.169C14.1191 12.7594 14.0653 12.4559 14.0088 12.1368C13.9614 11.8691 13.912 11.5902 13.8116 11.2319C13.6584 10.6851 13.5681 10.2368 13.4848 9.82343C13.3245 9.02761 13.1908 8.364 12.6619 7.33391C12.4871 6.99345 12.3584 6.68288 12.2481 6.36716C12.1376 6.05086 12.0463 5.73281 11.946 5.37529C11.8512 5.03759 11.7745 4.70407 11.6988 4.37523C11.5609 3.77555 11.4266 3.19163 11.1916 2.63243C10.9199 1.98553 10.4994 1.96278 10.0572 1.93887C10.0249 1.93712 9.99247 1.93537 9.95996 1.93341ZM4.77215 4.7164C4.66208 4.29508 4.61637 3.79281 4.62952 3.29355C4.64215 2.81403 4.70922 2.33548 4.8258 1.93244C4.78797 1.93479 4.75022 1.93684 4.71262 1.93887C4.27048 1.96278 3.85 1.98553 3.57821 2.63243C3.34329 3.19163 3.20896 3.77555 3.07103 4.37523C2.9954 4.70407 2.91868 5.03759 2.82388 5.37529C2.72352 5.73281 2.63229 6.05086 2.52179 6.36716C2.41149 6.68288 2.28278 6.99345 2.10797 7.33391C1.57903 8.364 1.44534 9.02761 1.28502 9.82343C1.20175 10.2368 1.11143 10.6851 0.958245 11.2319C0.857866 11.5902 0.808468 11.8691 0.761057 12.1368C0.704566 12.4559 0.650804 12.7594 0.517085 13.169C0.488043 13.2579 0.453282 13.4012 0.418521 13.5744C0.385148 13.7408 0.351251 13.9381 0.321786 14.1454C0.27529 14.4727 0.241819 14.8148 0.242474 15.0808C0.242892 15.25 0.254725 15.3824 0.282885 15.4485C0.289593 15.4487 0.296296 15.448 0.302976 15.4465C0.325523 15.4416 0.349593 15.428 0.37436 15.4068C0.445298 15.3463 0.511435 15.2364 0.563168 15.0928C0.615384 14.9477 0.651213 14.7713 0.661519 14.5778L0.661588 14.5778C0.664452 14.4069 0.763917 13.9954 0.838165 13.7767C0.855406 13.7259 0.871993 13.6834 0.886662 13.6538C0.946013 13.5341 1.01999 13.5041 1.10857 13.5912C1.13143 13.6136 1.1457 13.644 1.15015 13.683C1.16077 13.7761 1.15738 13.8403 1.1539 13.9062C1.1498 13.984 1.14555 14.0647 1.17232 14.2127C1.18141 14.263 1.19847 14.3052 1.22393 14.33C1.23908 14.3448 1.26038 14.3529 1.2886 14.3509C1.32435 14.3482 1.35254 14.3201 1.37395 14.2821C1.41913 14.202 1.43468 14.089 1.43444 14.0137C1.43422 13.9454 1.4406 13.8309 1.44919 13.7087C1.46407 13.4974 1.48695 13.2443 1.49208 13.1904C1.52031 12.8939 1.48683 12.7693 1.45277 12.6425C1.41962 12.5191 1.38599 12.394 1.39393 12.1456C1.39866 12.0105 1.66349 11.5649 1.97648 11.0384C2.33351 10.4377 2.75542 9.72791 2.90063 9.32831C3.18366 8.54941 3.3969 7.76754 3.59978 7.02362C3.78573 6.34181 3.96309 5.69154 4.17652 5.10433C4.17695 5.10314 4.1774 5.10196 4.17787 5.1008L4.33517 4.6037C4.35538 4.53963 4.42372 4.50408 4.48778 4.5243C4.55184 4.54452 4.58739 4.61285 4.56717 4.67692L4.52435 4.81223C4.60018 4.77268 4.68333 4.74098 4.77215 4.7164ZM10.3766 5.22667C10.3744 5.22184 10.3722 5.21706 10.3698 5.21232C10.2656 5.00122 10.0307 4.88669 9.73823 4.8461C9.42395 4.80248 9.0479 4.8441 8.68881 4.9443C8.4943 4.99858 8.30515 5.07011 8.13383 5.15465C7.87108 5.28432 7.68542 5.36238 7.47559 5.37369C7.26718 5.38492 7.05002 5.32829 6.72815 5.18831C6.63889 5.14949 6.54128 5.11267 6.43778 5.07887C6.04016 4.94898 5.56909 4.86916 5.16599 4.89714C4.8022 4.9224 4.49883 5.03531 4.37606 5.28088L4.33002 5.42641C4.25302 5.7935 4.40891 6.11253 4.59355 6.49033C4.66777 6.64222 4.74628 6.8029 4.81753 6.97967C5.73808 7.09529 6.17201 6.9839 6.55417 6.88573C6.81931 6.81763 7.06112 6.75553 7.41207 6.77036C7.76699 6.75526 8.07275 6.80615 8.42387 6.86459C8.82534 6.93143 9.28792 7.00841 9.94674 7.00351C10.0197 6.82347 10.1006 6.66062 10.1772 6.50666C10.3644 6.13033 10.5229 5.81163 10.4418 5.43259L10.3766 5.22667Z" fill="#2E2D2D"/>
</svg>
