<svg width="33" height="11" viewBox="0 0 33 11" fill="none" xmlns="http://www.w3.org/2000/svg">
<path d="M30.2677 0H2.02258C0.922581 0 0 0.922581 0 2.02258V8.97742C0 10.0774 0.922581 11 2.02258 11H30.2677C31.3677 11 32.2903 10.0774 32.2903 8.97742V2.02258C32.2903 0.922581 31.3677 0 30.2677 0ZM30.6935 8.97742C30.6935 9.22581 30.5161 9.40323 30.2677 9.40323H2.02258C1.77419 9.40323 1.59677 9.19032 1.59677 8.97742V2.02258C1.59677 1.77419 1.77419 1.59677 2.02258 1.59677H4.43548V4.11613H6.03226V1.59677H8.83548V4.11613H10.4323V1.59677H13.2355V4.11613H14.8323V1.59677H17.6355V4.11613H19.2323V1.59677H22.0355V4.11613H23.5968V1.59677H26.4V4.11613H27.9968V1.59677H30.3032C30.5516 1.59677 30.729 1.77419 30.729 2.02258V8.97742H30.6935Z" fill="#2E2D2D"/>
</svg>
