<svg width="27" height="23" viewBox="0 0 27 23" fill="none" xmlns="http://www.w3.org/2000/svg">
<path d="M25.06 0H1.11482C0.81912 0.000372757 0.53565 0.118062 0.326637 0.327234C0.117624 0.536405 0.000148883 0.819965 0 1.11567V21.6052C0.000372376 21.9007 0.117946 22.1841 0.326935 22.3931C0.535924 22.6021 0.819266 22.7196 1.11482 22.72H25.06C25.3555 22.7196 25.6389 22.6021 25.8479 22.3931C26.0568 22.1841 26.1744 21.9007 26.1748 21.6052V1.11567C26.1746 0.819965 26.0572 0.536405 25.8482 0.327234C25.6391 0.118062 25.3557 0.000372757 25.06 0ZM25.3304 21.6052C25.3304 21.6769 25.3018 21.7456 25.2511 21.7963C25.2004 21.8471 25.1317 21.8756 25.06 21.8757H22.7208V20.6868C22.7208 20.5748 22.6764 20.4675 22.5972 20.3883C22.518 20.3091 22.4106 20.2646 22.2987 20.2646C22.1867 20.2646 22.0793 20.3091 22.0001 20.3883C21.921 20.4675 21.8765 20.5748 21.8765 20.6868V21.8765H20.418V21.0884C20.418 20.9765 20.3735 20.8691 20.2944 20.7899C20.2152 20.7107 20.1078 20.6663 19.9958 20.6663C19.8839 20.6663 19.7765 20.7107 19.6973 20.7899C19.6182 20.8691 19.5737 20.9765 19.5737 21.0884V21.8765H18.1149V20.6868C18.1149 20.5748 18.0704 20.4675 17.9913 20.3883C17.9121 20.3091 17.8047 20.2646 17.6928 20.2646C17.5808 20.2646 17.4734 20.3091 17.3942 20.3883C17.3151 20.4675 17.2706 20.5748 17.2706 20.6868V21.8765H15.8124V21.0884C15.8124 20.9765 15.7679 20.8691 15.6887 20.7899C15.6096 20.7107 15.5022 20.6663 15.3902 20.6663C15.2782 20.6663 15.1709 20.7107 15.0917 20.7899C15.0125 20.8691 14.968 20.9765 14.968 21.0884V21.8765H13.5096V20.6868C13.5096 20.5748 13.4651 20.4675 13.3859 20.3883C13.3067 20.3091 13.1994 20.2646 13.0874 20.2646C12.9754 20.2646 12.868 20.3091 12.7889 20.3883C12.7097 20.4675 12.6652 20.5748 12.6652 20.6868V21.8765H11.2067V21.0884C11.2067 20.9765 11.1623 20.8691 11.0831 20.7899C11.0039 20.7107 10.8965 20.6663 10.7846 20.6663C10.6726 20.6663 10.5652 20.7107 10.4861 20.7899C10.4069 20.8691 10.3624 20.9765 10.3624 21.0884V21.8765H8.90421V20.6868C8.90421 20.5748 8.85973 20.4675 8.78056 20.3883C8.70139 20.3091 8.59401 20.2646 8.48204 20.2646C8.37007 20.2646 8.26269 20.3091 8.18352 20.3883C8.10434 20.4675 8.05986 20.5748 8.05986 20.6868V21.8765H6.60111V21.0884C6.60111 20.9765 6.55663 20.8691 6.47746 20.7899C6.39829 20.7107 6.29091 20.6663 6.17894 20.6663C6.06697 20.6663 5.95959 20.7107 5.88042 20.7899C5.80124 20.8691 5.75676 20.9765 5.75676 21.0884V21.8765H4.29829V20.6868C4.29829 20.5748 4.25382 20.4675 4.17464 20.3883C4.09547 20.3091 3.98809 20.2646 3.87612 20.2646C3.76415 20.2646 3.65677 20.3091 3.5776 20.3883C3.49843 20.4675 3.45395 20.5748 3.45395 20.6868V21.8765H1.11482C1.07924 21.8765 1.04402 21.8694 1.01116 21.8557C0.97831 21.8421 0.948471 21.8221 0.923351 21.7969C0.898232 21.7717 0.878325 21.7418 0.864769 21.7089C0.851213 21.676 0.844274 21.6408 0.844348 21.6052V19.0158H25.3304V21.6052ZM25.3304 18.1715H0.844348V1.11567C0.844423 1.04395 0.872943 0.975202 0.92365 0.924495C0.974357 0.873787 1.04311 0.845267 1.11482 0.845192H25.06C25.1317 0.845267 25.2004 0.873787 25.2511 0.924495C25.3018 0.975202 25.3304 1.04395 25.3304 1.11567V18.1715ZM22.5722 15.1152C22.589 15.1977 22.5805 15.2833 22.548 15.3609C22.5033 15.4685 22.5593 15.3947 21.161 16.793C21.1219 16.8322 21.0753 16.8633 21.0241 16.8845C20.9729 16.9057 20.918 16.9167 20.8625 16.9167C20.8071 16.9167 20.7522 16.9058 20.701 16.8846C20.6497 16.8634 20.6032 16.8323 20.564 16.7931C20.5247 16.7539 20.4936 16.7074 20.4724 16.6561C20.4512 16.6049 20.4402 16.55 20.4402 16.4946C20.4402 16.4391 20.4511 16.3842 20.4723 16.333C20.4935 16.2818 20.5246 16.2352 20.5638 16.196L21.1391 15.621H5.03541L5.61069 16.196C5.65166 16.2348 5.68443 16.2814 5.70707 16.3331C5.72971 16.3848 5.74176 16.4405 5.74251 16.4969C5.74325 16.5534 5.73268 16.6094 5.71141 16.6616C5.69014 16.7139 5.65861 16.7614 5.61868 16.8012C5.57875 16.8411 5.53123 16.8726 5.47893 16.8938C5.42664 16.915 5.37062 16.9255 5.3142 16.9246C5.25778 16.9238 5.20209 16.9117 5.15044 16.889C5.09878 16.8663 5.0522 16.8334 5.01346 16.7924L3.71879 15.4977C3.6637 15.4417 3.6252 15.3715 3.60757 15.295C3.58993 15.2184 3.59384 15.1385 3.61888 15.064C3.66391 14.9317 3.58792 15.0311 5.0143 13.6047C5.09346 13.5255 5.20084 13.481 5.31282 13.481C5.4248 13.4809 5.5322 13.5254 5.6114 13.6046C5.69059 13.6837 5.7351 13.7911 5.73513 13.9031C5.73516 14.0151 5.6907 14.1225 5.61154 14.2017L5.03625 14.7769H21.1394L20.5641 14.2017C20.5249 14.1624 20.4938 14.1159 20.4726 14.0647C20.4514 14.0134 20.4405 13.9585 20.4405 13.9031C20.4405 13.8476 20.4515 13.7927 20.4727 13.7415C20.4939 13.6903 20.525 13.6438 20.5642 13.6046C20.6035 13.5654 20.65 13.5343 20.7012 13.5131C20.7525 13.4919 20.8074 13.481 20.8628 13.481C20.9183 13.481 20.9732 13.4919 21.0244 13.5131C21.0756 13.5344 21.1221 13.5655 21.1613 13.6047C22.5053 14.9486 22.5382 14.945 22.5722 15.1152ZM7.5662 7.67681C7.62551 7.75594 7.71071 7.81173 7.80695 7.83447C7.90318 7.8572 8.00435 7.84543 8.0928 7.80121L8.77784 7.45869V12.607C8.77784 12.7189 8.82232 12.8263 8.90149 12.9055C8.98067 12.9847 9.08805 13.0291 9.20002 13.0291H16.9748C17.0867 13.0291 17.1941 12.9847 17.2733 12.9055C17.3525 12.8263 17.3969 12.7189 17.3969 12.607V7.45869L18.082 7.80121C18.1704 7.84543 18.2716 7.8572 18.3678 7.83447C18.4641 7.81173 18.5493 7.75594 18.6086 7.67681L20.5523 5.0841C20.6181 4.99639 20.6472 4.88652 20.6334 4.77773C20.6197 4.66894 20.5641 4.56978 20.4785 4.50122L17.2388 1.9102C17.1638 1.85032 17.0707 1.81776 16.9748 1.81788H9.20002C9.10408 1.81776 9.01097 1.85032 8.93602 1.9102L5.69625 4.50206C5.61067 4.57062 5.55512 4.66979 5.54136 4.77857C5.52759 4.88736 5.5567 4.99724 5.62251 5.08495L7.5662 7.67681ZM12.2149 2.66364H13.9599V3.49279C13.9598 3.56442 13.9313 3.6331 13.8807 3.68376C13.83 3.73441 13.7613 3.7629 13.6897 3.76298H12.484C12.4123 3.7629 12.3436 3.73441 12.293 3.68376C12.2423 3.6331 12.2139 3.56442 12.2138 3.49279L12.2149 2.66364ZM9.34918 2.66364H11.3706V3.49279C11.3714 3.78778 11.489 4.07045 11.6976 4.27899C11.9062 4.48753 12.189 4.60497 12.484 4.60564H13.6908C13.9863 4.60526 14.2696 4.48772 14.4785 4.27879C14.6874 4.06985 14.805 3.78658 14.8054 3.4911V2.66364H16.8267L19.6314 4.90707L18.1445 6.88819L17.1636 6.39791C17.0993 6.36572 17.0278 6.35051 16.9559 6.35373C16.884 6.35696 16.8141 6.37849 16.7529 6.41631C16.6917 6.45412 16.6412 6.50695 16.6061 6.56979C16.571 6.63262 16.5526 6.70338 16.5526 6.77533V12.1848H9.62219V6.77533C9.62216 6.70338 9.60375 6.63262 9.56869 6.56979C9.53363 6.50695 9.48309 6.45412 9.42188 6.41631C9.36066 6.37849 9.29079 6.35696 9.21891 6.35373C9.14703 6.35051 9.07552 6.36572 9.01116 6.39791L8.03031 6.88819L6.54342 4.90566L9.34918 2.66364Z" fill="#2E2D2D"/>
</svg>
