<svg width="12" height="23" viewBox="0 0 12 23" fill="none" xmlns="http://www.w3.org/2000/svg">
<path d="M3.83348 0.226025C3.83033 0.226088 3.82721 0.226015 3.82412 0.225821C3.73394 0.226609 3.64992 0.236979 3.57219 0.255784C3.34428 0.310928 3.16932 0.440131 3.05025 0.61385C2.92828 0.791792 2.86339 1.01676 2.85862 1.25822C2.85625 1.37803 2.86869 1.5019 2.89629 1.62619C2.98352 1.57798 3.02786 1.43536 3.0771 1.27692C3.17733 0.954452 3.29431 0.578099 3.80464 0.59592C3.82767 0.596722 3.84498 0.597832 3.86232 0.598934C3.96568 0.605519 4.07041 0.612195 4.10765 0.48733C4.11836 0.451398 4.15617 0.430948 4.1921 0.441654C4.22371 0.451072 4.24333 0.481461 4.24031 0.513096C4.22436 0.794195 4.38069 0.871171 4.54012 0.94963C4.64612 1.0018 4.75321 1.05452 4.82942 1.14798C4.80978 0.948601 4.74745 0.764399 4.64426 0.61385C4.52519 0.440131 4.35022 0.310928 4.12232 0.255784C4.04189 0.236331 3.95476 0.225911 3.86103 0.225775L3.86102 0.226025C3.85642 0.225934 3.85183 0.225866 3.84726 0.225825C3.84268 0.225866 3.83809 0.225934 3.83348 0.226025ZM8.19729 21.522C8.19729 21.5644 8.2506 21.5835 8.27758 21.5508C8.28431 21.5425 8.28793 21.5328 8.28793 21.522L8.28794 21.3407C8.28794 21.2984 8.23463 21.2792 8.20764 21.3119C8.20091 21.3202 8.19729 21.33 8.19729 21.3407L8.19729 21.522ZM8.28854 8.65026C8.28854 8.60791 8.23524 8.58877 8.20825 8.62143C8.20152 8.62976 8.1979 8.63951 8.1979 8.65026L8.19789 8.83155C8.19789 8.8739 8.2512 8.89305 8.27818 8.86038C8.28491 8.85206 8.28854 8.8423 8.28854 8.83155L8.28854 8.65026ZM8.28852 9.10349C8.28852 9.06115 8.23521 9.042 8.20823 9.07466C8.2015 9.08299 8.19788 9.09274 8.19788 9.10349L8.19787 9.28478C8.19787 9.32713 8.25117 9.34628 8.27816 9.31361C8.28489 9.30529 8.28851 9.29553 8.28851 9.28478L8.28852 9.10349ZM8.2885 9.55672C8.2885 9.51438 8.23519 9.49523 8.2082 9.52789C8.20147 9.53622 8.19785 9.54598 8.19785 9.55672L8.19784 9.73801C8.19784 9.78036 8.25115 9.79951 8.27814 9.76684C8.28487 9.75852 8.28849 9.74876 8.28849 9.73801L8.2885 9.55672ZM8.28848 10.01C8.28848 9.96761 8.23517 9.94846 8.20818 9.98112C8.20145 9.98945 8.19783 9.99921 8.19783 10.01L8.19782 10.1912C8.19782 10.2336 8.25113 10.2527 8.27811 10.2201C8.28485 10.2117 8.28847 10.202 8.28847 10.1912L8.28848 10.01ZM8.28845 10.4632C8.28845 10.4208 8.23514 10.4017 8.20816 10.4344C8.20143 10.4427 8.19781 10.4524 8.19781 10.4632L8.1978 10.6445C8.1978 10.6868 8.25111 10.706 8.27809 10.6733C8.28482 10.665 8.28845 10.6552 8.28845 10.6445L8.28845 10.4632ZM8.28843 10.9164C8.28843 10.8741 8.23512 10.8549 8.20814 10.8876C8.20141 10.8959 8.19778 10.9057 8.19778 10.9164L8.19778 11.0977C8.19778 11.1401 8.25109 11.1592 8.27807 11.1265C8.2848 11.1182 8.28842 11.1085 8.28842 11.0977L8.28843 10.9164ZM8.28841 11.3696C8.28841 11.3273 8.2351 11.3081 8.20811 11.3408C8.20138 11.3491 8.19776 11.3589 8.19776 11.3696L8.19775 11.5509C8.19775 11.5933 8.25106 11.6124 8.27805 11.5798C8.28478 11.5714 8.2884 11.5617 8.2884 11.5509L8.28841 11.3696ZM8.28839 11.8229C8.28839 11.7805 8.23508 11.7614 8.20809 11.794C8.20136 11.8024 8.19774 11.8121 8.19774 11.8229L8.19773 12.0042C8.19773 12.0465 8.25104 12.0657 8.27802 12.033C8.28475 12.0247 8.28838 12.0149 8.28838 12.0042L8.28839 11.8229ZM8.28836 12.2761C8.28836 12.2338 8.23505 12.2146 8.20807 12.2473C8.20134 12.2556 8.19772 12.2654 8.19772 12.2761L8.19771 12.4574C8.19771 12.4997 8.25102 12.5189 8.278 12.4862C8.28473 12.4779 8.28835 12.4681 8.28835 12.4574L8.28836 12.2761ZM8.28834 12.7293C8.28834 12.687 8.23503 12.6678 8.20805 12.7005C8.20132 12.7088 8.19769 12.7186 8.19769 12.7293L8.19769 12.9106C8.19769 12.953 8.25099 12.9721 8.27798 12.9395C8.28471 12.9311 8.28833 12.9214 8.28833 12.9106L8.28834 12.7293ZM8.28832 13.1826C8.28832 13.1402 8.23501 13.1211 8.20802 13.1537C8.20129 13.1621 8.19767 13.1718 8.19767 13.1826L8.19766 13.3639C8.19766 13.4062 8.25097 13.4254 8.27796 13.3927C8.28469 13.3844 8.28831 13.3746 8.28831 13.3639L8.28832 13.1826ZM8.28829 13.6358C8.28829 13.5935 8.23499 13.5743 8.208 13.607C8.20127 13.6153 8.19765 13.6251 8.19765 13.6358L8.19764 13.8171C8.19764 13.8594 8.25095 13.8786 8.27793 13.8459C8.28466 13.8376 8.28829 13.8278 8.28829 13.8171L8.28829 13.6358ZM8.28827 14.089C8.28827 14.0467 8.23496 14.0275 8.20798 14.0602C8.20125 14.0685 8.19763 14.0783 8.19763 14.089L8.19762 14.2703C8.19762 14.3127 8.25093 14.3318 8.27791 14.2992C8.28464 14.2908 8.28826 14.2811 8.28826 14.2703L8.28827 14.089ZM8.28825 14.5423C8.28825 14.4999 8.23494 14.4808 8.20796 14.5134C8.20123 14.5218 8.1976 14.5315 8.1976 14.5423L8.19759 14.7236C8.19759 14.7659 8.2509 14.785 8.27789 14.7524C8.28462 14.7441 8.28824 14.7343 8.28824 14.7236L8.28825 14.5423ZM8.28823 14.9955C8.28823 14.9531 8.23492 14.934 8.20793 14.9667C8.2012 14.975 8.19758 14.9847 8.19758 14.9955L8.19757 15.1768C8.19757 15.2191 8.25088 15.2383 8.27787 15.2056C8.2846 15.1973 8.28822 15.1875 8.28822 15.1768L8.28823 14.9955ZM8.2882 15.4487C8.2882 15.4064 8.2349 15.3872 8.20791 15.4199C8.20118 15.4282 8.19756 15.438 8.19756 15.4487L8.19755 15.63C8.19755 15.6724 8.25086 15.6915 8.27784 15.6588C8.28457 15.6505 8.2882 15.6408 8.2882 15.63L8.2882 15.4487ZM8.28818 15.9019C8.28818 15.8596 8.23487 15.8405 8.20789 15.8731C8.20116 15.8814 8.19754 15.8912 8.19754 15.9019L8.19753 16.0832C8.19753 16.1256 8.25084 16.1447 8.27782 16.1121C8.28455 16.1037 8.28817 16.094 8.28817 16.0832L8.28818 15.9019ZM8.28816 16.3552C8.28816 16.3128 8.23485 16.2937 8.20786 16.3264C8.20113 16.3347 8.19751 16.3444 8.19751 16.3552L8.1975 16.5365C8.1975 16.5788 8.25081 16.598 8.2778 16.5653C8.28453 16.557 8.28815 16.5472 8.28815 16.5365L8.28816 16.3552ZM8.28814 16.8084C8.28814 16.7661 8.23483 16.7469 8.20784 16.7796C8.20111 16.7879 8.19749 16.7977 8.19749 16.8084L8.19748 16.9897C8.19748 17.032 8.25079 17.0512 8.27777 17.0185C8.2845 17.0102 8.28813 17.0004 8.28813 16.9897L8.28814 16.8084ZM8.28811 17.2616C8.28811 17.2193 8.23481 17.2001 8.20782 17.2328C8.20109 17.2411 8.19747 17.2509 8.19747 17.2616L8.19746 17.4429C8.19746 17.4853 8.25077 17.5044 8.27775 17.4718C8.28448 17.4634 8.28811 17.4537 8.28811 17.4429L8.28811 17.2616ZM8.28809 17.7149C8.28809 17.6725 8.23478 17.6534 8.2078 17.686C8.20107 17.6944 8.19744 17.7041 8.19744 17.7149L8.19744 17.8962C8.19744 17.9385 8.25074 17.9577 8.27773 17.925C8.28446 17.9167 8.28808 17.9069 8.28808 17.8962L8.28809 17.7149ZM8.28807 18.1681C8.28807 18.1258 8.23476 18.1066 8.20777 18.1393C8.20104 18.1476 8.19742 18.1574 8.19742 18.1681L8.19741 18.3494C8.19741 18.3917 8.25072 18.4109 8.27771 18.3782C8.28444 18.3699 8.28806 18.3601 8.28806 18.3494L8.28807 18.1681ZM8.28804 18.6213C8.28804 18.579 8.23474 18.5598 8.20775 18.5925C8.20102 18.6008 8.1974 18.6106 8.1974 18.6213L8.19739 18.8026C8.19739 18.845 8.2507 18.8641 8.27768 18.8315C8.28442 18.8231 8.28804 18.8134 8.28804 18.8026L8.28804 18.6213ZM8.28802 19.0746C8.28802 19.0322 8.23471 19.0131 8.20773 19.0457C8.201 19.0541 8.19738 19.0638 8.19738 19.0746L8.19737 19.2559C8.19737 19.2982 8.25068 19.3174 8.27766 19.2847C8.28439 19.2764 8.28801 19.2666 8.28801 19.2559L8.28802 19.0746ZM8.288 19.5278C8.288 19.4854 8.23469 19.4663 8.20771 19.499C8.20098 19.5073 8.19735 19.517 8.19735 19.5278L8.19735 19.7091C8.19735 19.7514 8.25066 19.7706 8.27764 19.7379C8.28437 19.7296 8.28799 19.7198 8.28799 19.7091L8.288 19.5278ZM8.28798 19.981C8.28798 19.9387 8.23467 19.9195 8.20768 19.9522C8.20095 19.9605 8.19733 19.9703 8.19733 19.981L8.19733 20.1623C8.19733 20.2047 8.25064 20.2238 8.27762 20.1911C8.28435 20.1828 8.28797 20.1731 8.28797 20.1623L8.28798 19.981ZM8.28796 20.4343C8.28796 20.3919 8.23465 20.3728 8.20767 20.4054C8.20094 20.4138 8.19732 20.4235 8.19732 20.4343L8.19731 20.6155C8.19731 20.6579 8.25062 20.677 8.27761 20.6444C8.28434 20.6361 8.28796 20.6263 8.28796 20.6155L8.28796 20.4343ZM8.28795 20.8875C8.28795 20.8451 8.23464 20.826 8.20766 20.8587C8.20093 20.867 8.1973 20.8767 8.1973 20.8875L8.1973 21.0688C8.1973 21.1111 8.25061 21.1303 8.27759 21.0976C8.28432 21.0893 8.28795 21.0795 8.28795 21.0688L8.28795 20.8875ZM8.24292 8.06489C8.32402 8.06489 8.38977 8.13064 8.38977 8.21175C8.38977 8.29285 8.32402 8.3586 8.24292 8.3586C8.16182 8.3586 8.09607 8.29285 8.09607 8.21175C8.09607 8.13064 8.16182 8.06489 8.24292 8.06489ZM8.24287 21.8163C8.32397 21.8163 8.38972 21.882 8.38972 21.9631C8.38972 22.0443 8.32397 22.11 8.24287 22.11C8.16177 22.11 8.09602 22.0443 8.09602 21.9631C8.09602 21.882 8.16177 21.8163 8.24287 21.8163ZM5.78604 4.42743C5.76834 4.40974 5.76834 4.38104 5.78604 4.36335C5.80373 4.34565 5.83243 4.34565 5.85012 4.36335L6.04231 4.55554L5.84855 4.75232C5.83105 4.77012 5.80244 4.77035 5.78464 4.75285C5.76685 4.73535 5.76661 4.70674 5.78411 4.68894L5.91481 4.55621L5.78604 4.42743ZM1.85547 4.36788C1.87316 4.35018 1.90186 4.35018 1.91956 4.36788C1.93725 4.38557 1.93725 4.41427 1.91956 4.43196L1.79078 4.56074L1.92148 4.69347C1.93898 4.71127 1.93874 4.73988 1.92095 4.75738C1.90315 4.77488 1.87454 4.77465 1.85704 4.75685L1.66328 4.56007L1.85547 4.36788ZM1.92936 4.51199C1.88702 4.51199 1.86787 4.5653 1.90053 4.59229C1.90886 4.59902 1.91862 4.60264 1.92936 4.60264H2.11066C2.153 4.60264 2.17215 4.54933 2.13949 4.52234C2.13116 4.51561 2.1214 4.51199 2.11066 4.51199H1.92936ZM5.7365 4.60264C5.77885 4.60264 5.798 4.54933 5.76533 4.52234C5.75701 4.51561 5.74725 4.51199 5.7365 4.51199H5.55521C5.51286 4.51199 5.49372 4.5653 5.52638 4.59229C5.53471 4.59902 5.54446 4.60264 5.55521 4.60264H5.7365ZM5.28327 4.60264C5.32562 4.60264 5.34477 4.54933 5.3121 4.52234C5.30378 4.51561 5.29402 4.51199 5.28327 4.51199H5.10198C5.05963 4.51199 5.04048 4.5653 5.07315 4.59229C5.08147 4.59902 5.09123 4.60264 5.10198 4.60264H5.28327ZM4.83004 4.60264C4.87239 4.60264 4.89154 4.54933 4.85887 4.52234C4.85054 4.51561 4.84079 4.51199 4.83004 4.51199H4.64875C4.6064 4.51199 4.58725 4.5653 4.61992 4.59229C4.62824 4.59902 4.638 4.60264 4.64875 4.60264H4.83004ZM4.37681 4.60264C4.41916 4.60264 4.4383 4.54933 4.40564 4.52234C4.39731 4.51561 4.38756 4.51199 4.37681 4.51199H4.19552C4.15317 4.51199 4.13402 4.5653 4.16669 4.59229C4.17501 4.59902 4.18477 4.60264 4.19552 4.60264H4.37681ZM3.92358 4.60264C3.96592 4.60264 3.98507 4.54933 3.95241 4.52234C3.94408 4.51561 3.93432 4.51199 3.92358 4.51199H3.74229C3.69994 4.51199 3.68079 4.5653 3.71346 4.59229C3.72178 4.59902 3.73154 4.60264 3.74229 4.60264H3.92358ZM3.47035 4.60264C3.51269 4.60264 3.53184 4.54933 3.49918 4.52234C3.49085 4.51561 3.48109 4.51199 3.47035 4.51199H3.28906C3.24671 4.51199 3.22756 4.5653 3.26023 4.59229C3.26855 4.59902 3.27831 4.60264 3.28906 4.60264H3.47035ZM3.01712 4.60264C3.05946 4.60264 3.07861 4.54933 3.04595 4.52234C3.03762 4.51561 3.02786 4.51199 3.01712 4.51199H2.83583C2.79348 4.51199 2.77433 4.5653 2.807 4.59229C2.81532 4.59902 2.82508 4.60264 2.83583 4.60264H3.01712ZM2.56389 4.60264C2.60623 4.60264 2.62538 4.54933 2.59272 4.52234C2.58439 4.51561 2.57463 4.51199 2.56389 4.51199H2.38259C2.34025 4.51199 2.3211 4.5653 2.35377 4.59229C2.36209 4.59902 2.37185 4.60264 2.38259 4.60264H2.56389ZM5.26482 9.69694C5.24713 9.67925 5.24713 9.65055 5.26482 9.63285C5.28251 9.61516 5.31121 9.61516 5.32891 9.63285L5.5211 9.82505L5.32734 10.0218C5.30984 10.0396 5.28122 10.0399 5.26343 10.0224C5.24564 10.0049 5.2454 9.97624 5.2629 9.95845L5.35059 9.86939H5.2228C5.21205 9.86939 5.2023 9.86577 5.19397 9.85904C5.16131 9.83205 5.18046 9.77875 5.2228 9.77875H5.34662L5.26482 9.69694ZM2.08208 9.63739C2.09978 9.61969 2.12848 9.61969 2.14617 9.63739C2.16387 9.65508 2.16387 9.68378 2.14617 9.70147L2.0689 9.77875H2.23148C2.24223 9.77875 2.25199 9.78237 2.26031 9.7891C2.29298 9.81608 2.27383 9.86939 2.23148 9.86939H2.05594L2.14809 9.96298C2.16559 9.98078 2.16536 10.0094 2.14756 10.0269C2.12977 10.0444 2.10115 10.0442 2.08365 10.0264L1.88989 9.82958L2.08208 9.63739ZM4.87504 7.94331C4.85735 7.92562 4.85735 7.89692 4.87504 7.87922C4.89274 7.86153 4.92143 7.86153 4.93913 7.87922L5.13132 8.07142L4.93756 8.2682C4.92006 8.28599 4.89144 8.28623 4.87365 8.26873C4.85586 8.25123 4.85562 8.22261 4.87312 8.20482L4.96318 8.11336H4.82726C4.81651 8.11336 4.80675 8.10974 4.79843 8.10301C4.76576 8.07602 4.78491 8.02271 4.82726 8.02271H4.95444L4.87504 7.94331ZM2.5897 7.87922C2.6074 7.86153 2.6361 7.86153 2.65379 7.87922C2.67148 7.89692 2.67148 7.92562 2.65379 7.94331L2.57439 8.02271H2.7424C2.75314 8.02271 2.7629 8.02633 2.77123 8.03306C2.80389 8.06005 2.78474 8.11336 2.7424 8.11336H2.56565L2.65571 8.20482C2.67321 8.22261 2.67298 8.25123 2.65518 8.26873C2.63739 8.28623 2.60877 8.28599 2.59127 8.2682L2.39751 8.07142L2.5897 7.87922ZM5.10166 6.0584C5.08396 6.04071 5.08396 6.01201 5.10166 5.99431C5.11935 5.97662 5.14805 5.97662 5.16574 5.99431L5.35794 6.18651L5.16418 6.38329C5.14668 6.40108 5.11806 6.40132 5.10027 6.38382C5.08247 6.36632 5.08224 6.3377 5.09974 6.31991L5.18473 6.23359L5.18393 6.23361H5.06127C5.05052 6.23361 5.04077 6.22999 5.03244 6.22325C4.99978 6.19627 5.01892 6.14296 5.06127 6.14296H5.18393C5.18472 6.14296 5.1855 6.14298 5.18628 6.14302L5.10166 6.0584ZM5.22924 6.1884L5.23043 6.18718L5.22921 6.18595C5.22924 6.18677 5.22925 6.18758 5.22924 6.1884ZM2.38122 5.99885C2.39891 5.98115 2.42761 5.98115 2.4453 5.99885C2.463 6.01654 2.463 6.04524 2.4453 6.06293L2.36528 6.14296H2.52318C2.53392 6.14296 2.54368 6.14658 2.55201 6.15331C2.58467 6.1803 2.56552 6.23361 2.52318 6.23361H2.35778L2.44723 6.32444C2.46473 6.34224 2.46449 6.37085 2.4467 6.38835C2.4289 6.40585 2.40029 6.40562 2.38279 6.38782L2.18902 6.19104L2.38122 5.99885ZM10.8685 21.5368C10.8685 21.5791 10.9218 21.5983 10.9488 21.5656C10.9555 21.5573 10.9591 21.5475 10.9591 21.5368L10.9591 21.3555C10.9591 21.3131 10.9058 21.294 10.8788 21.3267C10.8721 21.335 10.8685 21.3447 10.8685 21.3555L10.8685 21.5368ZM10.9597 0.506878C10.9597 0.464533 10.9064 0.445384 10.8794 0.478048C10.8727 0.486374 10.8691 0.496132 10.8691 0.506878L10.8691 0.68817C10.8691 0.730516 10.9224 0.749665 10.9494 0.717C10.9561 0.708674 10.9597 0.698916 10.9597 0.68817L10.9597 0.506878ZM10.9597 0.960109C10.9597 0.917763 10.9064 0.898614 10.8794 0.931279C10.8727 0.939605 10.8691 0.949363 10.8691 0.960109L10.8691 1.1414C10.8691 1.18375 10.9224 1.2029 10.9494 1.17023C10.9561 1.16191 10.9597 1.15215 10.9597 1.1414L10.9597 0.960109ZM10.9597 1.41334C10.9597 1.37099 10.9064 1.35185 10.8794 1.38451C10.8727 1.39284 10.869 1.40259 10.869 1.41334L10.869 1.59463C10.869 1.63698 10.9223 1.65613 10.9493 1.62346C10.9561 1.61514 10.9597 1.60538 10.9597 1.59463L10.9597 1.41334ZM10.9597 1.86657C10.9597 1.82422 10.9064 1.80508 10.8794 1.83774C10.8726 1.84607 10.869 1.85582 10.869 1.86657L10.869 2.04786C10.869 2.09021 10.9223 2.10936 10.9493 2.07669C10.956 2.06837 10.9597 2.05861 10.9597 2.04786L10.9597 1.86657ZM10.9597 2.3198C10.9597 2.27746 10.9063 2.25831 10.8794 2.29097C10.8726 2.2993 10.869 2.30905 10.869 2.3198L10.869 2.50109C10.869 2.54344 10.9223 2.56259 10.9493 2.52992C10.956 2.5216 10.9596 2.51184 10.9596 2.50109L10.9597 2.3198ZM10.9596 2.77303C10.9596 2.73069 10.9063 2.71154 10.8793 2.7442C10.8726 2.75253 10.869 2.76229 10.869 2.77303L10.869 2.95432C10.869 2.99667 10.9223 3.01582 10.9493 2.98315C10.956 2.97483 10.9596 2.96507 10.9596 2.95432L10.9596 2.77303ZM10.9596 3.22626C10.9596 3.18392 10.9063 3.16477 10.8793 3.19743C10.8726 3.20576 10.869 3.21552 10.869 3.22626L10.869 3.40755C10.869 3.4499 10.9223 3.46905 10.9493 3.43638C10.956 3.42806 10.9596 3.4183 10.9596 3.40755L10.9596 3.22626ZM10.9596 3.67949C10.9596 3.63715 10.9063 3.618 10.8793 3.65066C10.8726 3.65899 10.8689 3.66875 10.8689 3.67949L10.8689 3.86079C10.8689 3.90313 10.9223 3.92228 10.9492 3.88962C10.956 3.88129 10.9596 3.87153 10.9596 3.86079L10.9596 3.67949ZM10.9596 4.13272C10.9596 4.09038 10.9063 4.07123 10.8793 4.10389C10.8726 4.11222 10.8689 4.12198 10.8689 4.13272L10.8689 4.31402C10.8689 4.35636 10.9222 4.37551 10.9492 4.34285C10.956 4.33452 10.9596 4.32476 10.9596 4.31402L10.9596 4.13272ZM10.9596 4.58595C10.9596 4.54361 10.9063 4.52446 10.8793 4.55712C10.8725 4.56545 10.8689 4.57521 10.8689 4.58595L10.8689 4.76725C10.8689 4.80959 10.9222 4.82874 10.9492 4.79608C10.9559 4.78775 10.9596 4.77799 10.9596 4.76725L10.9596 4.58595ZM10.9596 5.03919C10.9596 4.99684 10.9062 4.97769 10.8793 5.01035C10.8725 5.01868 10.8689 5.02844 10.8689 5.03919L10.8689 5.22048C10.8689 5.26282 10.9222 5.28197 10.9492 5.24931C10.9559 5.24098 10.9595 5.23122 10.9595 5.22048L10.9596 5.03919ZM10.9595 5.49242C10.9595 5.45007 10.9062 5.43092 10.8792 5.46359C10.8725 5.47191 10.8689 5.48167 10.8689 5.49242L10.8689 5.67371C10.8689 5.71605 10.9222 5.7352 10.9492 5.70254C10.9559 5.69421 10.9595 5.68445 10.9595 5.67371L10.9595 5.49242ZM10.9595 5.94565C10.9595 5.9033 10.9062 5.88415 10.8792 5.91682C10.8725 5.92514 10.8689 5.9349 10.8689 5.94565L10.8689 6.12694C10.8689 6.16928 10.9222 6.18843 10.9492 6.15577C10.9559 6.14744 10.9595 6.13768 10.9595 6.12694L10.9595 5.94565ZM10.9595 6.39888C10.9595 6.35653 10.9062 6.33738 10.8792 6.37005C10.8725 6.37837 10.8689 6.38813 10.8689 6.39888L10.8689 6.58017C10.8689 6.62251 10.9222 6.64166 10.9492 6.609C10.9559 6.60067 10.9595 6.59092 10.9595 6.58017L10.9595 6.39888ZM10.9595 6.85211C10.9595 6.80976 10.9062 6.79061 10.8792 6.82328C10.8725 6.8316 10.8689 6.84136 10.8689 6.85211L10.8688 7.0334C10.8688 7.07575 10.9222 7.09489 10.9491 7.06223C10.9559 7.0539 10.9595 7.04415 10.9595 7.0334L10.9595 6.85211ZM10.9595 7.30534C10.9595 7.26299 10.9062 7.24384 10.8792 7.27651C10.8725 7.28483 10.8688 7.29459 10.8688 7.30534L10.8688 7.48663C10.8688 7.52898 10.9221 7.54813 10.9491 7.51546C10.9559 7.50713 10.9595 7.49738 10.9595 7.48663L10.9595 7.30534ZM10.9595 7.75857C10.9595 7.71622 10.9062 7.69707 10.8792 7.72974C10.8724 7.73806 10.8688 7.74782 10.8688 7.75857L10.8688 7.93986C10.8688 7.98221 10.9221 8.00136 10.9491 7.96869C10.9558 7.96037 10.9595 7.95061 10.9595 7.93986L10.9595 7.75857ZM10.9595 8.2118C10.9595 8.16945 10.9061 8.1503 10.8792 8.18297C10.8724 8.1913 10.8688 8.20105 10.8688 8.2118L10.8688 8.39309C10.8688 8.43544 10.9221 8.45459 10.9491 8.42192C10.9558 8.4136 10.9595 8.40384 10.9595 8.39309L10.9595 8.2118ZM10.9594 8.66503C10.9594 8.62269 10.9061 8.60354 10.8792 8.6362C10.8724 8.64453 10.8688 8.65428 10.8688 8.66503L10.8688 8.84632C10.8688 8.88867 10.9221 8.90782 10.9491 8.87515C10.9558 8.86683 10.9594 8.85707 10.9594 8.84632L10.9594 8.66503ZM10.9594 9.11826C10.9594 9.07592 10.9061 9.05677 10.8791 9.08943C10.8724 9.09776 10.8688 9.10752 10.8688 9.11826L10.8688 9.29955C10.8688 9.3419 10.9221 9.36105 10.9491 9.32838C10.9558 9.32006 10.9594 9.3103 10.9594 9.29955L10.9594 9.11826ZM10.9594 9.57149C10.9594 9.52915 10.9061 9.51 10.8791 9.54266C10.8724 9.55099 10.8688 9.56075 10.8688 9.57149L10.8688 9.75278C10.8688 9.79513 10.9221 9.81428 10.9491 9.78161C10.9558 9.77329 10.9594 9.76353 10.9594 9.75278L10.9594 9.57149ZM10.9594 10.0247C10.9594 9.98238 10.9061 9.96323 10.8791 9.99589C10.8724 10.0042 10.8688 10.014 10.8688 10.0247L10.8688 10.206C10.8688 10.2484 10.9221 10.2675 10.949 10.2348C10.9558 10.2265 10.9594 10.2168 10.9594 10.206L10.9594 10.0247ZM10.9594 10.478C10.9594 10.4356 10.9061 10.4165 10.8791 10.4491C10.8724 10.4574 10.8687 10.4672 10.8687 10.478L10.8687 10.6592C10.8687 10.7016 10.922 10.7207 10.949 10.6881C10.9558 10.6797 10.9594 10.67 10.9594 10.6592L10.9594 10.478ZM10.9594 10.9312C10.9594 10.8888 10.9061 10.8697 10.8791 10.9024C10.8724 10.9107 10.8687 10.9204 10.8687 10.9312L10.8687 11.1125C10.8687 11.1548 10.922 11.174 10.949 11.1413C10.9558 11.133 10.9594 11.1232 10.9594 11.1125L10.9594 10.9312ZM10.9594 11.3844C10.9594 11.3421 10.9061 11.3229 10.8791 11.3556C10.8723 11.3639 10.8687 11.3737 10.8687 11.3844L10.8687 11.5657C10.8687 11.6081 10.922 11.6272 10.949 11.5945C10.9557 11.5862 10.9594 11.5765 10.9594 11.5657L10.9594 11.3844ZM10.9594 11.8376C10.9594 11.7953 10.906 11.7762 10.8791 11.8088C10.8723 11.8171 10.8687 11.8269 10.8687 11.8376L10.8687 12.0189C10.8687 12.0613 10.922 12.0804 10.949 12.0478C10.9557 12.0394 10.9593 12.0297 10.9593 12.0189L10.9594 11.8376ZM10.9593 12.2909C10.9593 12.2485 10.906 12.2294 10.879 12.262C10.8723 12.2704 10.8687 12.2801 10.8687 12.2909L10.8687 12.4722C10.8687 12.5145 10.922 12.5337 10.949 12.501C10.9557 12.4927 10.9593 12.4829 10.9593 12.4722L10.9593 12.2909ZM10.9593 12.7441C10.9593 12.7018 10.906 12.6826 10.879 12.7153C10.8723 12.7236 10.8687 12.7334 10.8687 12.7441L10.8687 12.9254C10.8687 12.9677 10.922 12.9869 10.949 12.9542C10.9557 12.9459 10.9593 12.9361 10.9593 12.9254L10.9593 12.7441ZM10.9593 13.1973C10.9593 13.155 10.906 13.1358 10.879 13.1685C10.8723 13.1768 10.8687 13.1866 10.8687 13.1973L10.8687 13.3786C10.8687 13.421 10.922 13.4401 10.949 13.4075C10.9557 13.3991 10.9593 13.3894 10.9593 13.3786L10.9593 13.1973ZM10.9593 13.6506C10.9593 13.6082 10.906 13.5891 10.879 13.6217C10.8723 13.6301 10.8687 13.6398 10.8687 13.6506L10.8686 13.8319C10.8686 13.8742 10.922 13.8934 10.9489 13.8607C10.9557 13.8524 10.9593 13.8426 10.9593 13.8319L10.9593 13.6506ZM10.9593 14.1038C10.9593 14.0615 10.906 14.0423 10.879 14.075C10.8723 14.0833 10.8686 14.0931 10.8686 14.1038L10.8686 14.2851C10.8686 14.3274 10.9219 14.3466 10.9489 14.3139C10.9557 14.3056 10.9593 14.2958 10.9593 14.2851L10.9593 14.1038ZM10.9593 14.557C10.9593 14.5147 10.906 14.4955 10.879 14.5282C10.8722 14.5365 10.8686 14.5463 10.8686 14.557L10.8686 14.7383C10.8686 14.7807 10.9219 14.7998 10.9489 14.7672C10.9556 14.7588 10.9593 14.7491 10.9593 14.7383L10.9593 14.557ZM10.9593 15.0103C10.9593 14.9679 10.9059 14.9488 10.879 14.9814C10.8722 14.9898 10.8686 14.9995 10.8686 15.0103L10.8686 15.1916C10.8686 15.2339 10.9219 15.253 10.9489 15.2204C10.9556 15.2121 10.9593 15.2023 10.9593 15.1916L10.9593 15.0103ZM10.9592 15.4635C10.9592 15.4211 10.9059 15.402 10.8789 15.4347C10.8722 15.443 10.8686 15.4527 10.8686 15.4635L10.8686 15.6448C10.8686 15.6871 10.9219 15.7063 10.9489 15.6736C10.9556 15.6653 10.9592 15.6555 10.9592 15.6448L10.9592 15.4635ZM10.9592 15.9167C10.9592 15.8744 10.9059 15.8552 10.8789 15.8879C10.8722 15.8962 10.8686 15.906 10.8686 15.9167L10.8686 16.098C10.8686 16.1404 10.9219 16.1595 10.9489 16.1268C10.9556 16.1185 10.9592 16.1088 10.9592 16.098L10.9592 15.9167ZM10.9592 16.37C10.9592 16.3276 10.9059 16.3085 10.8789 16.3411C10.8722 16.3494 10.8686 16.3592 10.8686 16.37L10.8686 16.5512C10.8686 16.5936 10.9219 16.6127 10.9489 16.5801C10.9556 16.5717 10.9592 16.562 10.9592 16.5512L10.9592 16.37ZM10.9592 16.8232C10.9592 16.7808 10.9059 16.7617 10.8789 16.7944C10.8722 16.8027 10.8686 16.8124 10.8686 16.8232L10.8686 17.0045C10.8686 17.0468 10.9219 17.066 10.9489 17.0333C10.9556 17.025 10.9592 17.0152 10.9592 17.0045L10.9592 16.8232ZM10.9592 17.2764C10.9592 17.2341 10.9059 17.2149 10.8789 17.2476C10.8722 17.2559 10.8686 17.2657 10.8686 17.2764L10.8686 17.4577C10.8686 17.5 10.9219 17.5192 10.9488 17.4865C10.9556 17.4782 10.9592 17.4685 10.9592 17.4577L10.9592 17.2764ZM10.9592 17.7296C10.9592 17.6873 10.9059 17.6681 10.8789 17.7008C10.8722 17.7091 10.8686 17.7189 10.8686 17.7296L10.8685 17.9109C10.8685 17.9533 10.9219 17.9724 10.9488 17.9398C10.9556 17.9314 10.9592 17.9217 10.9592 17.9109L10.9592 17.7296ZM10.9592 18.1829C10.9592 18.1405 10.9059 18.1214 10.8789 18.154C10.8722 18.1624 10.8685 18.1721 10.8685 18.1829L10.8685 18.3642C10.8685 18.4065 10.9218 18.4257 10.9488 18.393C10.9556 18.3847 10.9592 18.3749 10.9592 18.3642L10.9592 18.1829ZM10.9592 18.6361C10.9592 18.5938 10.9059 18.5746 10.8789 18.6073C10.8722 18.6156 10.8685 18.6254 10.8685 18.6361L10.8685 18.8174C10.8685 18.8597 10.9218 18.8789 10.9488 18.8462C10.9556 18.8379 10.9592 18.8281 10.9592 18.8174L10.9592 18.6361ZM10.9592 19.0893C10.9592 19.047 10.9059 19.0278 10.8789 19.0605C10.8721 19.0688 10.8685 19.0786 10.8685 19.0893L10.8685 19.2706C10.8685 19.313 10.9218 19.3321 10.9488 19.2995C10.9555 19.2911 10.9592 19.2814 10.9592 19.2706L10.9592 19.0893ZM10.9592 19.5426C10.9592 19.5002 10.9059 19.4811 10.8789 19.5137C10.8721 19.5221 10.8685 19.5318 10.8685 19.5426L10.8685 19.7239C10.8685 19.7662 10.9218 19.7854 10.9488 19.7527C10.9555 19.7444 10.9592 19.7346 10.9592 19.7239L10.9592 19.5426ZM10.9592 19.9958C10.9592 19.9535 10.9058 19.9343 10.8789 19.967C10.8721 19.9753 10.8685 19.9851 10.8685 19.9958L10.8685 20.1771C10.8685 20.2194 10.9218 20.2386 10.9488 20.2059C10.9555 20.1976 10.9591 20.1878 10.9591 20.1771L10.9592 19.9958ZM10.9591 20.449C10.9591 20.4067 10.9058 20.3875 10.8788 20.4202C10.8721 20.4285 10.8685 20.4383 10.8685 20.449L10.8685 20.6303C10.8685 20.6727 10.9218 20.6918 10.9488 20.6592C10.9555 20.6508 10.9591 20.6411 10.9591 20.6303L10.9591 20.449ZM10.9591 20.9023C10.9591 20.8599 10.9058 20.8408 10.8788 20.8734C10.8721 20.8818 10.8685 20.8915 10.8685 20.9023L10.8685 21.0835C10.8685 21.1259 10.9218 21.145 10.9488 21.1124C10.9555 21.1041 10.9591 21.0943 10.9591 21.0835L10.9591 20.9023ZM10.9095 0.00713226C10.9906 0.00713226 11.0564 0.0728824 11.0564 0.153984C11.0564 0.235085 10.9906 0.300835 10.9095 0.300835C10.8284 0.300835 10.7627 0.235085 10.7627 0.153984C10.7627 0.0728824 10.8284 0.00713226 10.9095 0.00713226ZM10.9141 21.7982C10.9952 21.7982 11.0609 21.8639 11.0609 21.945C11.0609 22.0261 10.9952 22.0919 10.9141 22.0919C10.833 22.0919 10.7672 22.0261 10.7672 21.945C10.7672 21.8639 10.833 21.7982 10.9141 21.7982ZM9.53285 21.6342C9.53285 21.6765 9.58616 21.6956 9.61315 21.663C9.61988 21.6547 9.6235 21.6449 9.6235 21.6342L9.6235 21.4529C9.6235 21.4105 9.57019 21.3914 9.54321 21.424C9.53648 21.4324 9.53286 21.4421 9.53286 21.4529L9.53285 21.6342ZM9.62411 3.77687C9.62411 3.73452 9.5708 3.71538 9.54382 3.74804C9.53709 3.75637 9.53346 3.76612 9.53346 3.77687L9.53346 3.95816C9.53346 4.00051 9.58676 4.01966 9.61375 3.98699C9.62048 3.97867 9.6241 3.96891 9.6241 3.95816L9.62411 3.77687ZM9.62409 4.2301C9.62409 4.18776 9.57078 4.16861 9.54379 4.20127C9.53706 4.2096 9.53344 4.21935 9.53344 4.2301L9.53343 4.41139C9.53343 4.45374 9.58674 4.47289 9.61373 4.44022C9.62046 4.4319 9.62408 4.42214 9.62408 4.41139L9.62409 4.2301ZM9.62406 4.68333C9.62406 4.64099 9.57076 4.62184 9.54377 4.6545C9.53704 4.66283 9.53342 4.67259 9.53342 4.68333L9.53341 4.86462C9.53341 4.90697 9.58672 4.92612 9.6137 4.89345C9.62043 4.88513 9.62406 4.87537 9.62406 4.86462L9.62406 4.68333ZM9.62404 5.13656C9.62404 5.09422 9.57073 5.07507 9.54375 5.10773C9.53702 5.11606 9.5334 5.12582 9.5334 5.13656L9.53339 5.31785C9.53339 5.3602 9.5867 5.37935 9.61368 5.34668C9.62041 5.33836 9.62403 5.3286 9.62403 5.31785L9.62404 5.13656ZM9.62402 5.58979C9.62402 5.54745 9.57071 5.5283 9.54373 5.56096C9.53699 5.56929 9.53337 5.57905 9.53337 5.58979L9.53337 5.77108C9.53337 5.81343 9.58667 5.83258 9.61366 5.79991C9.62039 5.79159 9.62401 5.78183 9.62401 5.77108L9.62402 5.58979ZM9.624 6.04302C9.624 6.00068 9.57069 5.98153 9.5437 6.01419C9.53697 6.02252 9.53335 6.03228 9.53335 6.04302L9.53334 6.22432C9.53334 6.26666 9.58665 6.28581 9.61364 6.25315C9.62037 6.24482 9.62399 6.23506 9.62399 6.22432L9.624 6.04302ZM9.62397 6.49625C9.62397 6.45391 9.57067 6.43476 9.54368 6.46742C9.53695 6.47575 9.53333 6.48551 9.53333 6.49625L9.53332 6.67755C9.53332 6.71989 9.58663 6.73904 9.61361 6.70638C9.62034 6.69805 9.62397 6.68829 9.62397 6.67755L9.62397 6.49625ZM9.62395 6.94948C9.62395 6.90714 9.57064 6.88799 9.54366 6.92065C9.53693 6.92898 9.53331 6.93874 9.53331 6.94948L9.5333 7.13078C9.5333 7.17312 9.58661 7.19227 9.61359 7.15961C9.62032 7.15128 9.62394 7.14152 9.62394 7.13078L9.62395 6.94948ZM9.62393 7.40272C9.62393 7.36037 9.57062 7.34122 9.54364 7.37389C9.53691 7.38221 9.53328 7.39197 9.53328 7.40272L9.53327 7.58401C9.53327 7.62635 9.58658 7.6455 9.61357 7.61284C9.6203 7.60451 9.62392 7.59475 9.62392 7.58401L9.62393 7.40272ZM9.62391 7.85595C9.62391 7.8136 9.5706 7.79445 9.54362 7.82712C9.53689 7.83544 9.53326 7.8452 9.53326 7.85595L9.53326 8.03724C9.53326 8.07958 9.58657 8.09873 9.61355 8.06607C9.62029 8.05774 9.62391 8.04798 9.62391 8.03724L9.62391 7.85595ZM9.6239 8.30918C9.6239 8.26683 9.57059 8.24768 9.5436 8.28035C9.53687 8.28867 9.53325 8.29843 9.53325 8.30918L9.53325 8.49047C9.53325 8.53281 9.58656 8.55196 9.61354 8.5193C9.62027 8.51097 9.62389 8.50121 9.62389 8.49047L9.6239 8.30918ZM9.62388 8.76241C9.62388 8.72006 9.57057 8.70091 9.54359 8.73358C9.53686 8.7419 9.53324 8.75166 9.53324 8.76241L9.53323 8.9437C9.53323 8.98604 9.58654 9.00519 9.61353 8.97253C9.62026 8.9642 9.62388 8.95445 9.62388 8.9437L9.62388 8.76241ZM9.62387 9.21564C9.62387 9.17329 9.57056 9.15414 9.54358 9.18681C9.53685 9.19513 9.53322 9.20489 9.53322 9.21564L9.53322 9.39693C9.53322 9.43928 9.58653 9.45842 9.61351 9.42576C9.62024 9.41743 9.62387 9.40768 9.62387 9.39693L9.62387 9.21564ZM9.62386 9.66887C9.62386 9.62652 9.57055 9.60737 9.54356 9.64004C9.53683 9.64837 9.53321 9.65812 9.53321 9.66887L9.53321 9.85016C9.53321 9.89251 9.58652 9.91165 9.6135 9.87899C9.62023 9.87066 9.62385 9.86091 9.62385 9.85016L9.62386 9.66887ZM9.62384 10.1221C9.62384 10.0798 9.57053 10.0606 9.54355 10.0933C9.53682 10.1016 9.5332 10.1114 9.5332 10.1221L9.53319 10.3034C9.53319 10.3457 9.5865 10.3649 9.61349 10.3322C9.62022 10.3239 9.62384 10.3141 9.62384 10.3034L9.62384 10.1221ZM9.62383 10.5753C9.62383 10.533 9.57052 10.5138 9.54353 10.5465C9.5368 10.5548 9.53318 10.5646 9.53318 10.5753L9.53318 10.7566C9.53318 10.799 9.58649 10.8181 9.61347 10.7855C9.6202 10.7771 9.62383 10.7674 9.62383 10.7566L9.62383 10.5753ZM9.62382 11.0286C9.62382 10.9862 9.57051 10.9671 9.54352 10.9997C9.53679 11.0081 9.53317 11.0178 9.53317 11.0286L9.53316 11.2099C9.53316 11.2522 9.58647 11.2713 9.61346 11.2387C9.62019 11.2304 9.62381 11.2206 9.62381 11.2099L9.62382 11.0286ZM9.6238 11.4818C9.6238 11.4394 9.57049 11.4203 9.54351 11.453C9.53678 11.4613 9.53316 11.471 9.53316 11.4818L9.53315 11.6631C9.53315 11.7054 9.58646 11.7246 9.61345 11.6919C9.62018 11.6836 9.6238 11.6738 9.6238 11.6631L9.6238 11.4818ZM9.62379 11.935C9.62379 11.8927 9.57048 11.8735 9.54349 11.9062C9.53676 11.9145 9.53314 11.9243 9.53314 11.935L9.53314 12.1163C9.53314 12.1587 9.58645 12.1778 9.61343 12.1451C9.62016 12.1368 9.62379 12.1271 9.62379 12.1163L9.62379 11.935ZM9.62378 12.3883C9.62378 12.3459 9.57047 12.3268 9.54348 12.3594C9.53675 12.3677 9.53313 12.3775 9.53313 12.3883L9.53312 12.5695C9.53312 12.6119 9.58643 12.631 9.61342 12.5984C9.62015 12.59 9.62377 12.5803 9.62377 12.5695L9.62378 12.3883ZM9.62376 12.8415C9.62376 12.7991 9.57045 12.78 9.54347 12.8127C9.53674 12.821 9.53312 12.8307 9.53312 12.8415L9.53311 13.0228C9.53311 13.0651 9.58642 13.0843 9.61341 13.0516C9.62014 13.0433 9.62376 13.0335 9.62376 13.0228L9.62376 12.8415ZM9.62375 13.2947C9.62375 13.2524 9.57044 13.2332 9.54345 13.2659C9.53672 13.2742 9.5331 13.284 9.5331 13.2947L9.5331 13.476C9.5331 13.5184 9.58641 13.5375 9.61339 13.5048C9.62012 13.4965 9.62374 13.4868 9.62374 13.476L9.62375 13.2947ZM9.62374 13.7479C9.62374 13.7056 9.57043 13.6865 9.54344 13.7191C9.53671 13.7274 9.53309 13.7372 9.53309 13.7479L9.53308 13.9292C9.53308 13.9716 9.58639 13.9907 9.61338 13.9581C9.62011 13.9497 9.62373 13.94 9.62373 13.9292L9.62374 13.7479ZM9.62372 14.2012C9.62372 14.1588 9.57041 14.1397 9.54343 14.1723C9.5367 14.1807 9.53308 14.1904 9.53308 14.2012L9.53307 14.3825C9.53307 14.4248 9.58638 14.444 9.61336 14.4113C9.62009 14.403 9.62372 14.3932 9.62372 14.3825L9.62372 14.2012ZM9.62371 14.6544C9.62371 14.6121 9.5704 14.5929 9.54341 14.6256C9.53668 14.6339 9.53306 14.6437 9.53306 14.6544L9.53306 14.8357C9.53306 14.878 9.58637 14.8972 9.61335 14.8645C9.62008 14.8562 9.6237 14.8464 9.6237 14.8357L9.62371 14.6544ZM9.62369 15.1076C9.62369 15.0653 9.57039 15.0461 9.5434 15.0788C9.53667 15.0871 9.53305 15.0969 9.53305 15.1076L9.53304 15.2889C9.53304 15.3313 9.58635 15.3504 9.61334 15.3178C9.62007 15.3094 9.62369 15.2997 9.62369 15.2889L9.62369 15.1076ZM9.62368 15.5609C9.62368 15.5185 9.57037 15.4994 9.54339 15.532C9.53666 15.5404 9.53303 15.5501 9.53303 15.5609L9.53303 15.7422C9.53303 15.7845 9.58634 15.8037 9.61332 15.771C9.62005 15.7627 9.62368 15.7529 9.62368 15.7422L9.62368 15.5609ZM9.62367 16.0141C9.62367 15.9718 9.57036 15.9526 9.54337 15.9853C9.53664 15.9936 9.53302 16.0034 9.53302 16.0141L9.53302 16.1954C9.53302 16.2377 9.58633 16.2569 9.61331 16.2242C9.62004 16.2159 9.62366 16.2061 9.62366 16.1954L9.62367 16.0141ZM9.62365 16.4673C9.62365 16.425 9.57034 16.4058 9.54336 16.4385C9.53663 16.4468 9.53301 16.4566 9.53301 16.4673L9.533 16.6486C9.533 16.691 9.58631 16.7101 9.6133 16.6775C9.62003 16.6691 9.62365 16.6594 9.62365 16.6486L9.62365 16.4673ZM9.62364 16.9206C9.62364 16.8782 9.57033 16.8591 9.54335 16.8917C9.53661 16.9001 9.53299 16.9098 9.53299 16.9206L9.53299 17.1019C9.53299 17.1442 9.5863 17.1633 9.61328 17.1307C9.62001 17.1224 9.62363 17.1126 9.62363 17.1019L9.62364 16.9206ZM9.62363 17.3738C9.62363 17.3314 9.57032 17.3123 9.54333 17.345C9.5366 17.3533 9.53298 17.363 9.53298 17.3738L9.53298 17.5551C9.53298 17.5974 9.58628 17.6166 9.61327 17.5839C9.62 17.5756 9.62362 17.5658 9.62362 17.5551L9.62363 17.3738ZM9.62361 17.827C9.62361 17.7847 9.5703 17.7655 9.54332 17.7982C9.53659 17.8065 9.53297 17.8163 9.53297 17.827L9.53296 18.0083C9.53296 18.0507 9.58627 18.0698 9.61326 18.0371C9.61999 18.0288 9.62361 18.0191 9.62361 18.0083L9.62361 17.827ZM9.6236 18.2803C9.6236 18.2379 9.57029 18.2188 9.5433 18.2514C9.53657 18.2597 9.53295 18.2695 9.53295 18.2803L9.53295 18.4615C9.53295 18.5039 9.58626 18.523 9.61324 18.4904C9.61997 18.482 9.62359 18.4723 9.62359 18.4615L9.6236 18.2803ZM9.62358 18.7335C9.62358 18.6911 9.57028 18.672 9.54329 18.7047C9.53656 18.713 9.53294 18.7227 9.53294 18.7335L9.53294 18.9148C9.53294 18.9571 9.58624 18.9763 9.61323 18.9436C9.61996 18.9353 9.62358 18.9255 9.62358 18.9148L9.62358 18.7335ZM9.62357 19.1867C9.62357 19.1444 9.57026 19.1252 9.54328 19.1579C9.53655 19.1662 9.53292 19.176 9.53292 19.1867L9.53292 19.368C9.53292 19.4104 9.58623 19.4295 9.61322 19.3968C9.61995 19.3885 9.62357 19.3787 9.62357 19.368L9.62357 19.1867ZM9.62356 19.6399C9.62356 19.5976 9.57025 19.5784 9.54326 19.6111C9.53653 19.6194 9.53291 19.6292 9.53291 19.6399L9.53291 19.8212C9.53291 19.8636 9.58622 19.8827 9.6132 19.8501C9.61993 19.8417 9.62355 19.832 9.62355 19.8212L9.62356 19.6399ZM9.62354 20.0932C9.62354 20.0508 9.57024 20.0317 9.54325 20.0643C9.53652 20.0727 9.5329 20.0824 9.5329 20.0932L9.53289 20.2745C9.53289 20.3168 9.5862 20.336 9.61319 20.3033C9.61992 20.295 9.62354 20.2852 9.62354 20.2745L9.62354 20.0932ZM9.62353 20.5464C9.62353 20.5041 9.57022 20.4849 9.54324 20.5176C9.5365 20.5259 9.53288 20.5357 9.53288 20.5464L9.53288 20.7277C9.53288 20.77 9.58619 20.7892 9.61317 20.7565C9.61991 20.7482 9.62353 20.7384 9.62353 20.7277L9.62353 20.5464ZM9.62352 20.9996C9.62352 20.9573 9.57021 20.9381 9.54322 20.9708C9.53649 20.9791 9.53287 20.9889 9.53287 20.9996L9.53287 21.1809C9.53287 21.2233 9.58617 21.2424 9.61316 21.2098C9.61989 21.2014 9.62351 21.1917 9.62351 21.1809L9.62352 20.9996ZM9.57849 3.27878C9.65959 3.27878 9.72534 3.34453 9.72534 3.42563C9.72534 3.50673 9.65959 3.57248 9.57849 3.57248C9.49739 3.57248 9.43164 3.50673 9.43164 3.42563C9.43164 3.34453 9.49739 3.27878 9.57849 3.27878ZM9.57843 21.8163C9.65953 21.8163 9.72529 21.882 9.72529 21.9631C9.72529 22.0443 9.65953 22.11 9.57843 22.11C9.49733 22.11 9.43158 22.0443 9.43158 21.9631C9.43158 21.882 9.49733 21.8163 9.57843 21.8163ZM5.93844 3.63604C5.92073 3.62925 5.90144 3.63372 5.88851 3.64757C5.86696 3.67122 5.87577 3.70859 5.90536 3.72043C5.9609 3.74223 6.0159 3.76504 6.0702 3.78977C6.08498 3.79654 6.10221 3.79479 6.11542 3.78535C6.1436 3.76465 6.13952 3.72181 6.10777 3.70728C6.05201 3.68188 5.99548 3.65839 5.93844 3.63604ZM7.39845 11.0423C7.40367 11.0841 7.45814 11.0968 7.48135 11.0616C7.48719 11.0523 7.48979 11.0423 7.48842 11.0313C7.48334 10.9892 7.47885 10.947 7.47395 10.9049C7.46945 10.8638 7.4161 10.8499 7.39204 10.8836C7.3855 10.8927 7.38263 10.9037 7.38386 10.9149C7.38865 10.9574 7.39323 10.9999 7.39845 11.0423ZM7.35371 10.645C7.3562 10.665 7.37096 10.6807 7.39072 10.6843C7.42106 10.6893 7.44707 10.6649 7.44372 10.6343C7.43727 10.5743 7.42844 10.5135 7.42038 10.4538C7.41415 10.4096 7.35477 10.3999 7.33483 10.4398C7.33075 10.4482 7.32937 10.4566 7.33054 10.4659C7.33856 10.5251 7.34731 10.5855 7.35371 10.645ZM7.29365 10.1967C7.2995 10.2383 7.3541 10.2502 7.37673 10.2149C7.38255 10.2059 7.38492 10.1948 7.38343 10.1842C7.37509 10.1243 7.36664 10.0644 7.3581 10.0045C7.35236 9.96374 7.29899 9.95128 7.27571 9.98551C7.26935 9.99496 7.26677 10.0061 7.26836 10.0173C7.27691 10.0771 7.28533 10.1369 7.29365 10.1967ZM7.22936 9.74845C7.23214 9.76622 7.24447 9.78043 7.26179 9.78542C7.29368 9.79422 7.32363 9.76792 7.31903 9.73519C7.31021 9.67537 7.30144 9.61549 7.29221 9.55574C7.2854 9.51217 7.22699 9.50274 7.20681 9.54235C7.20259 9.55111 7.20123 9.55965 7.20259 9.5693C7.21158 9.62901 7.22056 9.68872 7.22936 9.74845ZM7.16114 9.30085C7.16378 9.31777 7.17598 9.33194 7.19235 9.33702C7.22448 9.34699 7.25586 9.3199 7.25067 9.28669C7.24124 9.22697 7.23095 9.16716 7.22191 9.10744C7.21415 9.06231 7.15252 9.05549 7.13513 9.09783C7.13199 9.10582 7.13112 9.11361 7.13245 9.12209C7.14332 9.18078 7.1518 9.24173 7.16114 9.30085ZM7.08727 8.85446C7.08978 8.86907 7.09936 8.88137 7.11271 8.88768C7.14603 8.9031 7.18276 8.87492 7.17655 8.83878C7.16607 8.77907 7.15535 8.71939 7.14407 8.65983C7.14158 8.64655 7.13321 8.63501 7.12137 8.62853C7.08779 8.61015 7.04795 8.63907 7.055 8.67666C7.06615 8.73586 7.07686 8.79513 7.08727 8.85446ZM6.99942 8.41332C7.00407 8.43158 7.01943 8.44506 7.03814 8.44724C7.06963 8.45085 7.09511 8.42181 7.08731 8.39109C7.07252 8.33241 7.0538 8.27307 7.03618 8.21507C7.03147 8.1997 7.01942 8.18813 7.00384 8.18417C6.96942 8.17586 6.93951 8.20723 6.94937 8.24119C6.96689 8.29738 6.98507 8.35635 6.99942 8.41332ZM6.87575 7.97626C6.88636 8.0208 6.94799 8.02389 6.96296 7.98048C6.96561 7.97252 6.96595 7.9643 6.96413 7.95611C6.95094 7.89878 6.94101 7.84083 6.93424 7.78239C6.92858 7.73714 6.86795 7.72728 6.84824 7.76823C6.84455 7.77602 6.84325 7.78426 6.84419 7.79282C6.85152 7.8547 6.86178 7.91553 6.87575 7.97626ZM6.82976 7.51631C6.82976 7.55569 6.87709 7.57626 6.90605 7.54927C6.9153 7.54065 6.9204 7.52867 6.9204 7.51605C6.92028 7.45589 6.921 7.39561 6.92183 7.33546C6.92247 7.29428 6.87155 7.27374 6.84335 7.304C6.8356 7.31231 6.83137 7.32297 6.83119 7.33432C6.83037 7.39495 6.82963 7.45568 6.82976 7.51631ZM6.83555 7.06213C6.835 7.09763 6.87304 7.11983 6.90386 7.10205C6.91739 7.09398 6.92593 7.07967 6.92617 7.06385C6.92732 7.00346 6.92854 6.94307 6.92982 6.88268C6.93051 6.83784 6.87299 6.81914 6.84714 6.85606C6.84201 6.86362 6.83947 6.87167 6.83919 6.88079C6.83791 6.94124 6.83669 7.00168 6.83555 7.06213ZM6.84477 6.60898C6.8445 6.62622 6.85382 6.64212 6.86916 6.65007C6.89895 6.66552 6.93488 6.64425 6.9354 6.61073C6.93657 6.55024 6.93762 6.48976 6.93854 6.42927C6.9392 6.38641 6.88495 6.36673 6.85799 6.40008C6.85157 6.40802 6.84806 6.4177 6.84791 6.42792C6.84698 6.48827 6.84594 6.54863 6.84477 6.60898ZM6.85054 6.15653C6.85054 6.19961 6.90494 6.21841 6.9316 6.18454C6.93778 6.17653 6.94118 6.16696 6.94118 6.15681C6.94135 6.09621 6.94127 6.03563 6.94083 5.97502C6.94014 5.92993 6.88185 5.91305 6.85714 5.95124C6.85244 5.95873 6.85018 5.96689 6.85018 5.97572C6.85062 6.036 6.8507 6.09625 6.85054 6.15653ZM6.84529 5.70483C6.8466 5.74757 6.90122 5.76486 6.9269 5.73062C6.93305 5.72225 6.93622 5.71256 6.9359 5.70214C6.93425 5.64151 6.93186 5.58076 6.92899 5.52017C6.92709 5.47899 6.87509 5.46159 6.84876 5.49348C6.84154 5.5024 6.83791 5.51297 6.83844 5.52448C6.84135 5.5845 6.84366 5.64476 6.84529 5.70483ZM6.8218 5.25446C6.82316 5.27191 6.83434 5.28679 6.85059 5.29318C6.88173 5.30519 6.91476 5.28061 6.91216 5.24736C6.90748 5.18678 6.90219 5.12625 6.89615 5.06579C6.89125 5.02101 6.83194 5.00947 6.81061 5.04984C6.80664 5.05779 6.80512 5.06601 6.80595 5.07486C6.81199 5.13464 6.81717 5.19456 6.8218 5.25446ZM6.77445 4.8064C6.78047 4.84918 6.8371 4.86022 6.85876 4.82268C6.86364 4.81375 6.86569 4.80426 6.86427 4.79411C6.8561 4.73387 6.8472 4.67374 6.83756 4.61372C6.83158 4.57547 6.78266 4.56206 6.75791 4.59201C6.7495 4.60214 6.74604 4.61514 6.74807 4.62813C6.75758 4.68746 6.76639 4.74686 6.77445 4.8064ZM6.68356 4.37423C6.69784 4.41151 6.75052 4.41314 6.76705 4.37677C6.77218 4.36569 6.77249 4.35298 6.76812 4.3416C6.74534 4.28219 6.71777 4.22592 6.68451 4.17167C6.66294 4.13679 6.6097 4.14626 6.60149 4.18663C6.59932 4.19804 6.60124 4.20936 6.60737 4.21927C6.63771 4.26881 6.66276 4.32 6.68356 4.37423ZM6.44151 4.02151C6.47259 4.04936 6.52165 4.02389 6.51681 3.98243C6.5153 3.97131 6.51052 3.96165 6.50211 3.95411C6.45639 3.91281 6.40443 3.87312 6.35259 3.8398C6.33667 3.82948 6.31585 3.83013 6.30069 3.84158C6.2756 3.86052 6.27683 3.89864 6.30317 3.91579C6.34913 3.94388 6.40145 3.98533 6.44151 4.02151ZM6.50211 3.95411L6.35259 3.8398L6.30325 3.91584L6.50211 3.95411ZM7.48614 11.125C7.56724 11.125 7.63299 11.1908 7.63299 11.2719C7.63299 11.353 7.56724 11.4187 7.48614 11.4187C7.40504 11.4187 7.33929 11.353 7.33929 11.2719C7.33929 11.1908 7.40504 11.125 7.48614 11.125ZM5.58872 3.4026C5.66982 3.4026 5.73557 3.46835 5.73557 3.54945C5.73557 3.63055 5.66982 3.6963 5.58872 3.6963C5.50762 3.6963 5.44187 3.63055 5.44187 3.54945C5.44187 3.46835 5.50762 3.4026 5.58872 3.4026ZM3.51074 20.8197C3.51045 20.8381 3.52137 20.8548 3.53831 20.862C3.56799 20.8745 3.60088 20.8532 3.60137 20.821L3.60403 20.6397C3.60431 20.6213 3.5934 20.6046 3.57646 20.5973C3.54678 20.5848 3.51389 20.6062 3.51339 20.6384L3.51074 20.8197ZM3.72191 12.6005C3.7222 12.5821 3.71128 12.5654 3.69434 12.5582C3.66466 12.5457 3.63177 12.567 3.63128 12.5992L3.63035 12.6624C3.63006 12.6808 3.64098 12.6975 3.65792 12.7048C3.6876 12.7173 3.72049 12.6959 3.72098 12.6637L3.72191 12.6005ZM3.71699 12.9356C3.71727 12.9172 3.70636 12.9005 3.68942 12.8933C3.65974 12.8808 3.62684 12.9021 3.62635 12.9343L3.62369 13.1156C3.6234 13.134 3.63432 13.1507 3.65126 13.158C3.68094 13.1705 3.71383 13.1491 3.71433 13.1169L3.71699 12.9356ZM3.71033 13.3888C3.71062 13.3704 3.6997 13.3537 3.68276 13.3464C3.65308 13.3339 3.62019 13.3553 3.6197 13.3875L3.61704 13.5688C3.61675 13.5872 3.62767 13.6039 3.64461 13.6111C3.67429 13.6236 3.70718 13.6023 3.70767 13.5701L3.71033 13.3888ZM3.70369 13.842C3.70397 13.8235 3.69305 13.8069 3.67612 13.7996C3.64643 13.7871 3.61354 13.8085 3.61305 13.8407L3.61039 14.0219C3.6101 14.0404 3.62102 14.0571 3.63796 14.0643C3.66764 14.0768 3.70053 14.0555 3.70103 14.0233L3.70369 13.842ZM3.69704 14.2952C3.69732 14.2767 3.6864 14.2601 3.66947 14.2528C3.63978 14.2403 3.60689 14.2616 3.6064 14.2939L3.60374 14.4751C3.60345 14.4936 3.61437 14.5103 3.63131 14.5175C3.66099 14.53 3.69388 14.5087 3.69438 14.4765L3.69704 14.2952ZM3.69039 14.7484C3.69067 14.7299 3.67975 14.7132 3.66282 14.706C3.63314 14.6935 3.60024 14.7148 3.59975 14.747L3.59709 14.9283C3.5968 14.9468 3.60772 14.9634 3.62466 14.9707C3.65434 14.9832 3.68723 14.9619 3.68773 14.9296L3.69039 14.7484ZM3.68374 15.2016C3.68402 15.1831 3.67311 15.1664 3.65617 15.1592C3.62649 15.1467 3.5936 15.168 3.5931 15.2002L3.59045 15.3815C3.59016 15.4 3.60108 15.4166 3.61802 15.4239C3.6477 15.4364 3.68059 15.4151 3.68108 15.3828L3.68374 15.2016ZM3.67709 15.6547C3.67738 15.6363 3.66646 15.6196 3.64952 15.6124C3.61984 15.5999 3.58695 15.6212 3.58646 15.6534L3.5838 15.8347C3.58352 15.8531 3.59443 15.8698 3.61137 15.8771C3.64105 15.8896 3.67394 15.8682 3.67444 15.836L3.67709 15.6547ZM3.67045 16.1079C3.67074 16.0895 3.65982 16.0728 3.64288 16.0655C3.6132 16.053 3.58031 16.0744 3.57981 16.1066L3.57716 16.2879C3.57687 16.3063 3.58779 16.323 3.60473 16.3303C3.63441 16.3428 3.6673 16.3214 3.66779 16.2892L3.67045 16.1079ZM3.66381 16.5611C3.66409 16.5427 3.65317 16.526 3.63624 16.5187C3.60655 16.5062 3.57366 16.5276 3.57317 16.5598L3.57051 16.7411C3.57023 16.7595 3.58115 16.7762 3.59808 16.7834C3.62776 16.7959 3.66066 16.7746 3.66115 16.7424L3.66381 16.5611ZM3.65716 17.0143C3.65745 16.9958 3.64653 16.9792 3.62959 16.9719C3.59991 16.9594 3.56702 16.9807 3.56652 17.013L3.56387 17.1942C3.56358 17.2127 3.5745 17.2294 3.59144 17.2366C3.62112 17.2491 3.65401 17.2278 3.65451 17.1956L3.65716 17.0143ZM3.65052 17.4675C3.6508 17.449 3.63988 17.4324 3.62295 17.4251C3.59327 17.4126 3.56037 17.4339 3.55988 17.4662L3.55722 17.6474C3.55694 17.6659 3.56786 17.6826 3.58479 17.6898C3.61448 17.7023 3.64737 17.681 3.64786 17.6488L3.65052 17.4675ZM3.64387 17.9207C3.64416 17.9022 3.63324 17.8855 3.6163 17.8783C3.58662 17.8658 3.55373 17.8871 3.55324 17.9193L3.55058 18.1006C3.55029 18.1191 3.56121 18.1357 3.57815 18.143C3.60783 18.1555 3.64072 18.1342 3.64122 18.1019L3.64387 17.9207ZM3.63723 18.3738C3.63751 18.3554 3.6266 18.3387 3.60966 18.3315C3.57998 18.319 3.54709 18.3403 3.54659 18.3725L3.54394 18.5538C3.54365 18.5722 3.55457 18.5889 3.57151 18.5962C3.60119 18.6087 3.63408 18.5873 3.63457 18.5551L3.63723 18.3738ZM3.63059 18.827C3.63087 18.8086 3.61996 18.7919 3.60302 18.7846C3.57334 18.7721 3.54045 18.7935 3.53995 18.8257L3.5373 19.007C3.53701 19.0254 3.54793 19.0421 3.56487 19.0493C3.59455 19.0618 3.62744 19.0405 3.62793 19.0083L3.63059 18.827ZM3.62395 19.2802C3.62423 19.2617 3.61332 19.2451 3.59638 19.2378C3.5667 19.2253 3.53381 19.2466 3.53331 19.2789L3.53066 19.4601C3.53037 19.4786 3.54129 19.4953 3.55823 19.5025C3.58791 19.515 3.6208 19.4937 3.62129 19.4615L3.62395 19.2802ZM3.61731 19.7334C3.61759 19.7149 3.60668 19.6982 3.58974 19.691C3.56006 19.6785 3.52717 19.6998 3.52667 19.732L3.52402 19.9133C3.52373 19.9318 3.53465 19.9484 3.55159 19.9557C3.58127 19.9682 3.61416 19.9469 3.61465 19.9146L3.61731 19.7334ZM3.61067 20.1865C3.61095 20.1681 3.60004 20.1514 3.5831 20.1442C3.55342 20.1317 3.52053 20.153 3.52003 20.1852L3.51738 20.3665C3.51709 20.3849 3.52801 20.4016 3.54495 20.4089C3.57463 20.4214 3.60752 20.4 3.60801 20.3678L3.61067 20.1865ZM3.55259 20.9851C3.63369 20.9851 3.69944 21.0508 3.69944 21.1319C3.69944 21.213 3.63369 21.2788 3.55259 21.2788C3.47149 21.2788 3.40574 21.213 3.40574 21.1319C3.40574 21.0508 3.47149 20.9851 3.55259 20.9851ZM3.68402 12.1848C3.76513 12.1848 3.83088 12.2505 3.83088 12.3316C3.83088 12.4127 3.76513 12.4785 3.68402 12.4785C3.60292 12.4785 3.53717 12.4127 3.53717 12.3316C3.53717 12.2505 3.60292 12.1848 3.68402 12.1848ZM4.95086 9.86939C4.99321 9.86939 5.01236 9.81608 4.97969 9.7891C4.97137 9.78237 4.96161 9.77875 4.95086 9.77875H4.76957C4.72722 9.77875 4.70808 9.83205 4.74074 9.85904C4.74907 9.86577 4.75882 9.86939 4.76957 9.86939H4.95086ZM4.49763 9.86939C4.53998 9.86939 4.55913 9.81608 4.52646 9.7891C4.51814 9.78237 4.50838 9.77875 4.49763 9.77875H4.31634C4.27399 9.77875 4.25485 9.83205 4.28751 9.85904C4.29584 9.86577 4.30559 9.86939 4.31634 9.86939H4.49763ZM4.04441 9.86939C4.08675 9.86939 4.1059 9.81608 4.07324 9.7891C4.06491 9.78237 4.05515 9.77875 4.04441 9.77875H3.86311C3.82077 9.77875 3.80162 9.83205 3.83428 9.85904C3.84261 9.86577 3.85237 9.86939 3.86311 9.86939H4.04441ZM3.59118 9.86939C3.63352 9.86939 3.65267 9.81608 3.62001 9.7891C3.61168 9.78237 3.60192 9.77875 3.59118 9.77875H3.40988C3.36754 9.77875 3.34839 9.83205 3.38105 9.85904C3.38938 9.86577 3.39914 9.86939 3.40988 9.86939H3.59118ZM3.13795 9.86939C3.18029 9.86939 3.19944 9.81608 3.16677 9.7891C3.15845 9.78237 3.14869 9.77875 3.13795 9.77875H2.95665C2.91431 9.77875 2.89516 9.83205 2.92782 9.85904C2.93615 9.86577 2.94591 9.86939 2.95665 9.86939H3.13795ZM2.68471 9.86939C2.72706 9.86939 2.74621 9.81608 2.71354 9.7891C2.70522 9.78237 2.69546 9.77875 2.68471 9.77875H2.50342C2.46108 9.77875 2.44193 9.83205 2.47459 9.85904C2.48292 9.86577 2.49268 9.86939 2.50342 9.86939H2.68471ZM2.89984 2.56365C2.90415 2.88536 2.83247 3.22636 2.67318 3.51668C2.59971 3.65058 2.5077 3.77377 2.39603 3.87959C2.47026 3.85146 2.54627 3.81815 2.62393 3.77661C2.88431 3.63733 3.01778 3.51313 3.07202 3.38814C3.09521 3.33473 3.10404 3.27849 3.1025 3.21866L3.1021 3.21864C3.10219 3.21659 3.10225 3.2145 3.10229 3.2124C3.09965 3.14212 3.08299 3.06689 3.05866 2.98547C3.05715 2.9804 3.05601 2.97531 3.05523 2.97022C3.01234 2.83263 2.94865 2.68035 2.90106 2.56657L2.89984 2.56365ZM1.90012 4.03239C2.19855 3.92073 2.41348 3.70784 2.55421 3.45135C2.71595 3.15656 2.78028 2.8047 2.76137 2.48116C2.74483 2.46433 2.72936 2.44523 2.71495 2.42418C2.66348 2.34899 2.62645 2.24583 2.60415 2.13839C2.60271 2.13147 2.60067 2.12066 2.59807 2.10625C2.5781 1.99534 2.57162 1.87804 2.59096 1.78569C2.6041 1.72298 2.62836 1.66952 2.66651 1.63077C2.64156 1.50384 2.63045 1.37719 2.63289 1.2538C2.63853 0.968498 2.7166 0.700639 2.86347 0.486374C3.01322 0.267894 3.23301 0.105465 3.51908 0.0362478C3.62035 0.0117461 3.72982 -0.00088539 3.84726 4.8265e-05C3.96469 -0.00088539 4.07416 0.0117461 4.17543 0.0362478C4.46149 0.105465 4.68128 0.267894 4.83104 0.486374C4.9779 0.700639 5.05598 0.968498 5.06161 1.2538C5.06405 1.37719 5.05294 1.50384 5.028 1.63077C5.06615 1.66952 5.09041 1.72298 5.10354 1.78569C5.12289 1.87804 5.11641 1.99534 5.09643 2.10625C5.09384 2.12066 5.09179 2.13147 5.09036 2.13839C5.06805 2.24583 5.03103 2.34899 4.97955 2.42418C4.96165 2.45034 4.9421 2.47348 4.9209 2.493C4.90454 2.80551 4.96709 3.12578 5.12166 3.3939C5.26596 3.64421 5.49134 3.84943 5.80867 3.96017C5.81162 3.9612 5.81446 3.96242 5.81717 3.9638C6.22057 4.0925 6.44724 4.27317 6.55442 4.92154C6.6621 5.57702 6.64257 6.16755 6.6217 6.79893C6.6141 7.02894 6.60631 7.26444 6.60452 7.5059C6.60228 7.80794 6.63773 7.92583 6.7048 8.14888C6.71114 8.16996 6.71792 8.1925 6.73947 8.26623C6.77298 8.38092 6.82256 8.64703 6.87676 8.98102C6.93701 9.35231 7.00393 9.81275 7.06107 10.2431C7.08422 10.4175 7.1002 10.5489 7.11576 10.6768C7.15811 11.0253 7.19771 11.351 7.26505 11.6894L7.26557 11.6921L7.26637 11.7009C7.28772 11.9366 7.30077 12.1283 7.2792 12.3168C7.25704 12.5105 7.19947 12.697 7.07953 12.9159C6.97973 13.098 6.85159 13.1794 6.73286 13.1955C6.67416 13.2035 6.61815 13.1955 6.56835 13.1754C6.51849 13.1554 6.47495 13.1231 6.44126 13.0825C6.3747 13.0025 6.34663 12.891 6.38379 12.7785L6.38389 12.7785C6.44477 12.554 6.39815 12.392 6.34496 12.2073C6.27098 11.9503 6.2419 11.8262 6.36943 11.545C6.38986 11.4999 6.4101 11.4553 6.42101 11.4041C6.47314 11.1596 6.27579 10.6428 6.13702 10.2794C6.11264 10.2156 6.09019 10.1568 6.06238 10.0798L6.06224 10.0798L5.74022 9.19579C5.78673 9.40305 5.80207 9.63305 5.81305 9.79784C5.81841 9.87837 5.82267 9.94205 5.82827 9.97119L5.82808 9.97122L5.92978 10.4291C6.28076 11.5906 6.05539 12.76 5.83489 13.9038C5.80265 14.0711 5.7705 14.2378 5.74479 14.3785L5.72477 14.4878C5.59402 15.2021 5.52868 15.5591 5.52033 15.905C5.51202 16.2498 5.56022 16.5974 5.65657 17.2922L5.67183 17.4022C5.76161 18.0504 5.5494 18.9707 5.37 19.7486C5.34495 19.8572 5.32049 19.9633 5.30373 20.0377L5.29594 20.0722C5.24773 20.2855 5.20983 20.4533 5.21258 20.6764C5.2143 20.8171 5.23139 20.9173 5.23513 20.9393L5.23521 20.9401L5.23528 20.9401L5.24512 20.9991C5.27897 21.2018 5.28359 21.2293 5.42753 21.3255C5.46815 21.3526 5.52485 21.3821 5.58168 21.4117C5.78788 21.519 5.99565 21.6271 5.91307 21.8484L5.91218 21.8515C5.80512 22.1145 5.39925 22.1039 5.07311 22.0954C5.0487 22.0948 5.0248 22.0942 5.00504 22.0937C4.73428 22.0879 4.58613 22.0735 4.4786 21.9878C4.36773 21.8994 4.33053 21.7645 4.28164 21.5175C4.22598 21.2363 4.20597 21.0562 4.20463 20.9294C4.2032 20.7938 4.22262 20.7188 4.24389 20.6496C4.3054 20.4496 4.28422 20.2972 4.25565 20.0917C4.25391 20.0792 4.2519 20.0647 4.24695 20.0281C4.22675 19.8787 4.20074 19.7151 4.17318 19.5417C4.07906 18.9497 3.96714 18.2457 4.0121 17.6843C4.01582 17.6378 4.01939 17.5943 4.02273 17.5533C4.06677 17.0146 4.07348 16.9326 3.93565 16.3418C3.84107 15.9363 3.86764 15.649 3.89857 15.3146C3.91062 15.1844 3.92336 15.0467 3.9293 14.8915C3.94543 14.4701 3.95991 14.0909 3.95063 13.722C3.9414 13.3552 3.90868 12.996 3.83064 12.6102C3.81843 12.5491 3.85806 12.4897 3.91917 12.4775C3.98027 12.4652 4.03973 12.5049 4.05195 12.566C4.1329 12.9662 4.16682 13.3378 4.17636 13.7167C4.18585 14.0936 4.17127 14.4753 4.15503 14.8995C4.1489 15.0596 4.1358 15.2012 4.12342 15.335C4.0975 15.6152 4.07484 15.8602 4.1318 16.1736C4.17348 16.2944 4.22767 16.3991 4.3082 16.4739C4.3929 16.5525 4.51014 16.6 4.67826 16.6009C4.71566 16.6011 4.74586 16.6315 4.74571 16.6689C4.74557 16.7063 4.71512 16.7365 4.67773 16.7364C4.47381 16.7353 4.32804 16.6756 4.21962 16.5767C4.29826 16.9615 4.28673 17.1028 4.24846 17.571C4.24511 17.612 4.24155 17.6555 4.23783 17.702C4.19481 18.2392 4.30423 18.9275 4.39625 19.5063C4.4244 19.6834 4.45096 19.8505 4.47091 19.998L4.47961 20.0607C4.51211 20.2945 4.5362 20.4678 4.45988 20.716C4.44388 20.7681 4.42927 20.8245 4.43035 20.9276C4.43153 21.0393 4.4506 21.2052 4.50383 21.4741C4.54199 21.6669 4.56717 21.7692 4.61935 21.8108C4.67486 21.855 4.79047 21.8633 5.00946 21.868C5.0342 21.8685 5.05613 21.8691 5.07842 21.8697C5.33468 21.8764 5.65349 21.8847 5.70219 21.767C5.70793 21.7327 5.59217 21.6724 5.47723 21.6126C5.4173 21.5814 5.35752 21.5503 5.30184 21.5132C5.07658 21.3627 5.07005 21.3236 5.02205 21.0363L5.01221 20.9782L5.01214 20.9773L5.01206 20.9773C5.00789 20.9528 4.98883 20.8411 4.98685 20.6791C4.98377 20.4287 5.02416 20.2499 5.07553 20.0226L5.08332 19.9881C5.10872 19.8754 5.12891 19.7878 5.14958 19.6982C5.32474 18.9386 5.53193 18.0402 5.44787 17.4332L5.43261 17.3231C5.33476 16.6176 5.28581 16.2646 5.29461 15.8997C5.3034 15.5352 5.36977 15.1727 5.50258 14.4471L5.5226 14.3377C5.55463 14.1625 5.58363 14.0122 5.6127 13.8613C5.82521 12.7589 6.04236 11.6322 5.72689 10.5389C5.57786 10.5978 5.4471 10.6631 5.31013 10.7541C5.13591 10.8698 4.95026 11.0277 4.70357 11.2664C4.5527 11.4124 4.44278 11.5527 4.3472 11.6748C4.14787 11.9293 4.00634 12.11 3.69574 12.1229L3.69255 12.123L3.6899 12.1229C3.34934 12.1058 3.21752 11.9285 3.03104 11.6776C2.94004 11.5552 2.83494 11.4138 2.68261 11.2664C2.43592 11.0277 2.25027 10.8698 2.07605 10.7541C1.93239 10.6587 1.79554 10.5914 1.63731 10.5303L1.62228 10.5897C1.48722 11.1228 1.34353 11.6901 1.44216 12.5895C1.4846 12.8684 1.52623 13.1199 1.56786 13.3713C1.62982 13.7455 1.69177 14.1196 1.74448 14.5018C1.75104 14.5494 1.74842 14.5299 1.75715 14.5927C1.84407 15.2189 1.93997 15.9098 1.80663 16.5366C1.78487 16.6389 1.76976 16.7082 1.75546 16.7737C1.61945 17.3976 1.55144 17.7095 1.66013 18.469C1.68814 18.6648 1.75653 18.983 1.82963 19.3231C1.96211 19.9395 2.1097 20.6262 2.06803 20.8466C2.05428 20.9193 2.04366 20.9828 2.03473 21.0363C1.98673 21.3236 1.9802 21.3627 1.75496 21.5132C1.69928 21.5503 1.6395 21.5814 1.57957 21.6126C1.46463 21.6724 1.34886 21.7327 1.3546 21.767C1.40331 21.8847 1.72212 21.8764 1.97837 21.8697C2.00067 21.8691 2.0226 21.8685 2.04734 21.868C2.26633 21.8633 2.38194 21.855 2.43745 21.8108C2.48963 21.7692 2.51481 21.6669 2.55297 21.4741C2.65901 20.9384 2.62409 20.8306 2.58976 20.7247C2.55709 20.6239 2.52485 20.5244 2.56197 20.233C2.5861 19.7256 2.65135 19.3992 2.71474 19.0822C2.7915 18.6983 2.86545 18.3284 2.85628 17.6684C2.85421 17.6019 2.84675 17.5095 2.83906 17.4141C2.82605 17.2528 2.81237 17.0831 2.82161 16.9577C2.82943 16.8517 2.84763 16.7461 2.87096 16.6405C2.77391 16.7007 2.6523 16.7355 2.49695 16.7364C2.45956 16.7365 2.42911 16.7063 2.42897 16.6689C2.42882 16.6315 2.45902 16.6011 2.49642 16.6009C2.66455 16.6 2.78179 16.5525 2.86648 16.4739C2.88973 16.4523 2.91078 16.4282 2.92997 16.402C2.93546 16.3812 2.94099 16.3604 2.94654 16.3396C2.99834 16.1452 3.05068 15.9487 3.06718 15.7558C3.08162 15.587 3.09077 15.4434 3.09663 15.3183C3.10284 15.1857 3.10591 15.0712 3.10774 14.9684C3.11638 14.4834 3.13234 14.0666 3.16223 13.6819C3.19257 13.2915 3.23708 12.9299 3.30247 12.5598C3.31323 12.4982 3.37188 12.457 3.43348 12.4677C3.49508 12.4785 3.5363 12.5371 3.52554 12.5987C3.4613 12.9623 3.41764 13.3168 3.38796 13.6987C3.35784 14.0863 3.34191 14.498 3.33347 14.9719C3.33153 15.0804 3.32843 15.1985 3.32236 15.328C3.31594 15.4651 3.30668 15.6134 3.2929 15.7744C3.27484 15.9856 3.21973 16.1924 3.16518 16.3972C3.11283 16.5937 3.06101 16.7881 3.04734 16.9736C3.03939 17.0815 3.05241 17.243 3.06479 17.3964C3.07219 17.4882 3.07936 17.5772 3.08198 17.6622V17.664C3.0917 18.3524 3.01575 18.7322 2.93693 19.1265C2.87467 19.4378 2.81057 19.7584 2.78755 20.2467L2.78667 20.2555C2.75484 20.5014 2.7797 20.578 2.80487 20.6557C2.84823 20.7894 2.89233 20.9255 2.77516 21.5175C2.72627 21.7645 2.68906 21.8994 2.5782 21.9878C2.47066 22.0735 2.32252 22.0879 2.05176 22.0937C2.03199 22.0942 2.0081 22.0948 1.98368 22.0954C1.65754 22.1039 1.25168 22.1145 1.14461 21.8515L1.14373 21.8484C1.06114 21.6271 1.26891 21.519 1.47512 21.4117C1.53195 21.3821 1.58864 21.3526 1.62926 21.3255C1.7732 21.2293 1.77781 21.2018 1.81166 20.9992C1.82044 20.9466 1.83089 20.8841 1.84584 20.805C1.87901 20.6295 1.73636 19.9658 1.60832 19.37C1.53446 19.0263 1.46533 18.7048 1.43617 18.5009C1.32165 17.7006 1.39248 17.3757 1.53416 16.7259C1.5522 16.6432 1.57133 16.5555 1.58533 16.4897C1.71051 15.9012 1.61749 15.2311 1.53319 14.6237L1.52052 14.5319C1.46851 14.1547 1.40665 13.7812 1.34479 13.4076C1.30019 13.1383 1.2556 12.869 1.21822 12.6232L1.21778 12.6187C1.11368 11.6758 1.26271 11.0876 1.40274 10.5348C1.47524 10.2487 1.54525 9.97233 1.57371 9.66637C1.57719 9.58627 1.59005 9.5036 1.60907 9.42061L1.11186 10.4776L1.11214 10.4777C0.794905 11.234 0.864259 11.3869 0.935946 11.545C0.985607 11.6545 1.03614 11.7659 1.01678 11.9894L1.01632 11.9948L1.01413 12.0044C0.998528 12.0731 0.981669 12.1338 0.965688 12.1913C0.915125 12.3734 0.87432 12.5204 0.938897 12.7511L0.938847 12.7511C0.973288 12.8682 0.957039 12.9711 0.907324 13.046C0.874647 13.0953 0.828277 13.1317 0.772308 13.1521C0.720553 13.1709 0.66132 13.1754 0.598516 13.1626C0.474621 13.1376 0.332515 13.0428 0.212386 12.8538C-0.0379465 12.46 -0.0148951 12.2342 0.024255 11.8505C0.0294354 11.7998 0.0349008 11.7463 0.0390071 11.7009L0.0398144 11.6921L0.0403349 11.6894C0.0612515 11.5843 0.0702036 11.4795 0.0790551 11.3758C0.0916142 11.2288 0.104001 11.0838 0.149655 10.928C0.226287 10.6665 0.290455 10.3001 0.359423 9.90622C0.469015 9.28038 0.59058 8.58617 0.803312 8.08937C0.950304 7.74607 0.958925 7.36404 0.967722 6.97387C0.970758 6.83904 0.973823 6.70327 0.981799 6.57347C0.997327 6.3208 0.999013 6.07104 1.0006 5.83472C1.00442 5.26803 1.00774 4.77485 1.19443 4.51929C1.41313 4.21992 1.64404 4.11236 1.90012 4.03239ZM3.24709 2.83118C3.25036 2.83579 3.25311 2.84088 3.25521 2.8464C3.31072 2.99128 3.41846 3.09388 3.54782 3.15407L3.54777 3.15417C3.69292 3.22164 3.86464 3.23632 4.02152 3.19822C4.05789 3.18942 4.09452 3.21177 4.10332 3.24814C4.11211 3.28452 4.08977 3.32114 4.05339 3.32994C3.86727 3.37514 3.66329 3.35759 3.49072 3.2773H3.49046C3.43183 3.25002 3.37676 3.21555 3.32711 3.1739L3.32739 3.17832C3.33472 3.28028 3.32208 3.37867 3.27917 3.47755C3.20457 3.6494 3.04017 3.80996 2.73016 3.97578C2.51124 4.09289 2.31435 4.1486 2.13107 4.20045C1.84587 4.28114 1.59696 4.35157 1.37679 4.65296C1.23297 4.84983 1.22988 5.30853 1.22633 5.83561C1.22469 6.07869 1.22296 6.33561 1.20753 6.58675C1.19924 6.72167 1.19633 6.85044 1.19345 6.9783C1.18414 7.39126 1.17502 7.79563 1.01134 8.17789C0.809377 8.64954 0.69006 9.33091 0.582494 9.94517C0.512901 10.3426 0.448148 10.7124 0.366534 10.9909C0.328032 11.1223 0.316484 11.2574 0.304782 11.3944C0.295481 11.5034 0.286072 11.6135 0.263048 11.7302C0.257868 11.7869 0.253372 11.8308 0.249103 11.8727C0.214961 12.2072 0.194859 12.4042 0.403595 12.7325C0.487121 12.864 0.573298 12.9273 0.642779 12.9413C0.663505 12.9455 0.681322 12.9447 0.695295 12.9396C0.705053 12.9361 0.713124 12.9297 0.718772 12.9212C0.733352 12.8992 0.736089 12.8623 0.721577 12.8135L0.721138 12.8121C0.691519 12.7064 0.679069 12.616 0.678081 12.5335C0.655601 12.5371 0.632744 12.5368 0.610445 12.5329C0.577486 12.5272 0.545302 12.5137 0.517202 12.4937C0.450482 12.4465 0.406174 12.3634 0.42759 12.263L0.49851 11.9307C0.506279 11.894 0.542311 11.8706 0.578973 11.8784C0.615635 11.8861 0.639058 11.9222 0.631289 11.9588L0.560368 12.2912C0.551792 12.3314 0.569337 12.3645 0.595811 12.3833C0.607178 12.3913 0.620122 12.3968 0.633288 12.3991C0.645267 12.4012 0.657005 12.4006 0.667217 12.3969C0.674981 12.394 0.682341 12.3891 0.688913 12.3819C0.701568 12.2981 0.723807 12.218 0.747928 12.1311C0.762477 12.0787 0.777787 12.0236 0.791506 11.9645C0.80451 11.8029 0.766782 11.7197 0.72969 11.6379C0.637294 11.4342 0.547917 11.2371 0.903232 10.3901L0.905444 10.3861L1.52303 9.07321L1.52613 9.06701C1.62574 8.88389 1.70555 8.49889 1.76107 8.06341C1.82112 7.59239 1.85126 7.06726 1.84704 6.67112C1.82863 6.29943 1.85757 6.05651 1.8825 5.84739C1.90721 5.64001 1.92771 5.46796 1.8884 5.2333C1.87813 5.17171 1.91974 5.11344 1.98134 5.10318C2.04294 5.09291 2.1012 5.13452 2.11147 5.19612C2.12955 5.30405 2.13672 5.39874 2.13708 5.48805C2.24299 5.43229 2.37277 5.39164 2.51662 5.36736C2.7408 5.32952 3.00121 5.33071 3.25868 5.37602C3.75472 5.4633 3.7771 5.46053 4.22079 5.40547L4.28805 5.39714C4.59443 5.35933 4.85117 5.36588 5.06084 5.3938C5.19774 5.41203 5.31439 5.43931 5.4117 5.46933C5.41073 5.37188 5.41484 5.27481 5.42634 5.17725C5.43231 5.12496 5.47304 5.08508 5.52283 5.07804L5.52308 5.06247L5.52499 5.07776C5.53364 5.0767 5.54256 5.07663 5.5516 5.07766C5.61369 5.08475 5.65828 5.14084 5.65119 5.20292C5.61889 5.47679 5.65184 5.75924 5.68699 6.06063C5.71591 6.30855 5.74626 6.56887 5.74479 6.85388C5.75642 6.9639 5.76715 7.07922 5.77717 7.19723C5.79278 7.38101 5.80716 7.57975 5.82062 7.77723C5.83149 7.93693 5.82965 8.10005 5.82782 8.2628C5.82719 8.31873 5.82656 8.37464 5.82648 8.42935C5.82628 8.56474 5.8464 8.66337 5.86569 8.75794C5.88004 8.82826 5.89398 8.8966 5.90069 8.97606L6.2747 10.0028V10.0033C6.28867 10.042 6.31732 10.117 6.34859 10.1988C6.49714 10.5878 6.7084 11.141 6.64231 11.451C6.62623 11.5265 6.60108 11.582 6.57569 11.6379C6.5386 11.7197 6.50088 11.8029 6.51387 11.9644C6.52777 12.0239 6.54556 12.0857 6.56272 12.1453C6.58175 12.2114 6.60005 12.275 6.6141 12.3396C6.62768 12.3703 6.64726 12.3868 6.66768 12.3921C6.67778 12.3947 6.68849 12.3947 6.69898 12.3926L6.69897 12.3926C6.70973 12.3903 6.72009 12.3857 6.72916 12.3791C6.75215 12.3622 6.76635 12.3311 6.75782 12.2912L6.6869 11.9588C6.67913 11.9222 6.70255 11.8861 6.73922 11.8784C6.77588 11.8706 6.81191 11.894 6.81968 11.9307L6.8906 12.263C6.91176 12.3622 6.87208 12.4425 6.80937 12.4885C6.78468 12.5066 6.75631 12.5192 6.72659 12.5253H6.72632C6.69807 12.5312 6.66843 12.5312 6.63936 12.5245C6.64363 12.62 6.63366 12.7235 6.60022 12.844L6.59889 12.8493C6.58784 12.8828 6.59569 12.9153 6.61476 12.9382C6.62463 12.9501 6.63753 12.9596 6.65245 12.9656C6.66742 12.9717 6.68454 12.974 6.70277 12.9716C6.75696 12.9642 6.82102 12.9169 6.88124 12.807C6.98559 12.6166 7.03547 12.4561 7.05436 12.2911C7.07357 12.1232 7.06184 11.9468 7.04232 11.7301C6.97374 11.3848 6.93371 11.0555 6.89091 10.7034C6.8725 10.5519 6.85361 10.3966 6.83711 10.2723C6.7807 9.84744 6.71412 9.38976 6.65369 9.01731C6.60068 8.69065 6.55314 8.43365 6.52258 8.32909C6.51949 8.31849 6.50314 8.26412 6.48792 8.2135C6.41489 7.97064 6.3763 7.84227 6.37879 7.50501C6.38064 7.25556 6.3884 7.02098 6.39598 6.79185C6.41646 6.17217 6.43562 5.59259 6.33134 4.95783C6.22202 4.29646 5.95236 4.22641 5.43247 4.09137C5.32587 4.06369 5.20981 4.03353 5.08724 3.99734C4.90029 3.94214 4.73032 3.86963 4.60114 3.75315C4.46487 3.63028 4.37723 3.46411 4.36668 3.22838C4.35746 3.0227 4.49633 2.6907 4.58453 2.47982C4.6042 2.4328 4.61063 2.41814 4.61649 2.40378L4.65203 2.31675L4.74461 2.33585L4.74462 2.3358C4.74251 2.33531 4.73851 2.33438 4.74468 2.33548V2.33581C4.74452 2.33578 4.74468 2.33585 4.74468 2.33592C4.75815 2.33834 4.77511 2.3225 4.79278 2.2967C4.82663 2.24725 4.85233 2.17291 4.86905 2.09236C4.87162 2.08003 4.87334 2.07143 4.87424 2.06641C4.88961 1.98105 4.89533 1.89424 4.88224 1.83172C4.87737 1.80845 4.87297 1.793 4.86992 1.79213L4.76559 1.76227L4.78859 1.66723C4.78859 1.66404 4.78881 1.66082 4.78927 1.65758C4.84759 1.25212 4.66185 1.1607 4.48011 1.07126C4.32102 0.992968 4.1644 0.915842 4.11744 0.701491C4.04204 0.746347 3.94756 0.740342 3.85382 0.734368C3.8339 0.733099 3.81399 0.731825 3.80039 0.731354C3.39308 0.717127 3.2927 1.04006 3.2067 1.31676C3.13769 1.5388 3.07633 1.73617 2.89191 1.77286L2.82458 1.79213C2.82153 1.793 2.81714 1.80845 2.81227 1.83172C2.79917 1.89424 2.80489 1.98105 2.82027 2.06641C2.82117 2.07143 2.82289 2.08003 2.82545 2.09236C2.84218 2.17291 2.86788 2.24725 2.90173 2.2967C2.91939 2.3225 2.93636 2.33834 2.94983 2.33592C2.94983 2.33585 2.94999 2.33578 2.94983 2.33581V2.33548C2.956 2.33438 2.952 2.33531 2.94989 2.3358L2.9499 2.33585L3.04247 2.31675L3.07802 2.40378C3.08388 2.41814 3.0903 2.4328 3.10997 2.47982C3.15137 2.57879 3.20392 2.70444 3.24709 2.83118ZM2.94983 2.33586V2.33581C2.94876 2.33606 2.94823 2.33619 2.94983 2.33586ZM4.78293 2.59173C4.70211 2.78526 4.58576 3.07037 4.5924 3.21864C4.59988 3.38561 4.65969 3.50126 4.75251 3.58496C4.85242 3.67504 4.99324 3.73389 5.15097 3.78046C5.20326 3.79591 5.25321 3.80996 5.30115 3.82304C5.18027 3.7184 5.08177 3.59576 5.00429 3.46135C4.85371 3.20015 4.78333 2.89482 4.78293 2.59173ZM4.55532 8.11336C4.59766 8.11336 4.61681 8.06005 4.58415 8.03306C4.57582 8.02633 4.56607 8.02271 4.55532 8.02271H4.37403C4.33168 8.02271 4.31253 8.07602 4.3452 8.10301C4.35352 8.10974 4.36328 8.11336 4.37403 8.11336H4.55532ZM4.10209 8.11336C4.14443 8.11336 4.16358 8.06005 4.13092 8.03306C4.12259 8.02633 4.11283 8.02271 4.10209 8.02271H3.9208C3.87845 8.02271 3.8593 8.07602 3.89197 8.10301C3.90029 8.10974 3.91005 8.11336 3.9208 8.11336H4.10209ZM3.64886 8.11336C3.6912 8.11336 3.71035 8.06005 3.67769 8.03306C3.66936 8.02633 3.6596 8.02271 3.64886 8.02271H3.46757C3.42522 8.02271 3.40607 8.07602 3.43874 8.10301C3.44706 8.10974 3.45682 8.11336 3.46757 8.11336H3.64886ZM3.19563 8.11336C3.23797 8.11336 3.25712 8.06005 3.22446 8.03306C3.21613 8.02633 3.20637 8.02271 3.19563 8.02271H3.01434C2.97199 8.02271 2.95284 8.07602 2.9855 8.10301C2.99383 8.10974 3.00359 8.11336 3.01434 8.11336H3.19563ZM4.78933 6.23361C4.83168 6.23361 4.85083 6.1803 4.81816 6.15331C4.80984 6.14658 4.80008 6.14296 4.78933 6.14296H4.60804C4.56569 6.14296 4.54654 6.19627 4.57921 6.22325C4.58753 6.22999 4.59729 6.23361 4.60804 6.23361H4.78933ZM4.3361 6.23361C4.37845 6.23361 4.3976 6.1803 4.36493 6.15331C4.35661 6.14658 4.34685 6.14296 4.3361 6.14296H4.15481C4.11246 6.14296 4.09331 6.19627 4.12598 6.22325C4.1343 6.22999 4.14406 6.23361 4.15481 6.23361H4.3361ZM3.88287 6.23361C3.92522 6.23361 3.94436 6.1803 3.9117 6.15331C3.90337 6.14658 3.89362 6.14296 3.88287 6.14296H3.70158C3.65923 6.14296 3.64008 6.19627 3.67275 6.22325C3.68107 6.22999 3.69083 6.23361 3.70158 6.23361H3.88287ZM3.42964 6.23361C3.47199 6.23361 3.49113 6.1803 3.45847 6.15331C3.45014 6.14658 3.44039 6.14296 3.42964 6.14296H3.24835C3.206 6.14296 3.18685 6.19627 3.21952 6.22325C3.22784 6.22999 3.2376 6.23361 3.24835 6.23361H3.42964ZM2.97641 6.23361C3.01875 6.23361 3.0379 6.1803 3.00524 6.15331C2.99691 6.14658 2.98716 6.14296 2.97641 6.14296H2.79512C2.75277 6.14296 2.73362 6.19627 2.76629 6.22325C2.77461 6.22999 2.78437 6.23361 2.79512 6.23361H2.97641ZM2.84094 9.53741C2.84582 9.56186 2.82997 9.58564 2.80553 9.59053C2.78108 9.59541 2.7573 9.57956 2.75241 9.55512C2.7241 9.4141 2.71874 9.26256 2.73954 9.11696C2.75915 8.97967 2.80202 8.84707 2.87082 8.73265C2.88362 8.71124 2.91137 8.70426 2.93278 8.71707C2.95419 8.72987 2.96117 8.75762 2.94836 8.77903C2.88608 8.88262 2.84712 9.00368 2.82912 9.1297C2.80972 9.26551 2.81466 9.40651 2.84094 9.53741ZM4.68877 9.55235C4.6834 9.5767 4.6593 9.59208 4.63495 9.5867C4.6106 9.58133 4.59523 9.55723 4.6006 9.53288C4.62956 9.40153 4.63541 9.26548 4.61643 9.13405C4.59829 9.00846 4.5574 8.88736 4.49227 8.77903C4.47946 8.75762 4.48644 8.72987 4.50785 8.71707C4.52926 8.70426 4.55701 8.71124 4.56982 8.73265C4.64137 8.85165 4.68621 8.9842 4.70601 9.1213C4.7265 9.2631 4.72012 9.41015 4.68877 9.55235ZM2.13087 5.64992C2.12529 5.72332 2.11659 5.79635 2.10734 5.87395C2.0871 6.04379 2.06409 6.23694 2.06834 6.50848L2.06904 6.50843C2.08708 6.65602 2.12082 6.79865 2.15701 6.93307C2.42708 6.96793 2.64436 6.95597 2.82957 6.91868C3.02377 6.87959 3.18487 6.81216 3.33491 6.74162C3.48618 6.67052 3.64583 6.63496 3.80527 6.63496C3.96471 6.63496 4.12436 6.67052 4.27562 6.74162C4.42566 6.81216 4.58676 6.87959 4.78096 6.91868C4.97055 6.95685 5.19376 6.96848 5.47277 6.93051C5.48618 6.8556 5.49514 6.7702 5.49681 6.66792L5.50043 6.44651C5.48977 6.32322 5.47579 6.20334 5.46214 6.0863C5.44328 5.92461 5.42504 5.76813 5.41653 5.61359C5.31723 5.57981 5.19325 5.54814 5.04331 5.52818C4.84442 5.50169 4.59938 5.49566 4.30451 5.53205L4.23726 5.54038C3.77469 5.59778 3.75136 5.60067 3.23531 5.50987C2.99267 5.46717 2.74833 5.46587 2.53893 5.50121C2.37314 5.5292 2.2307 5.57961 2.13087 5.64992ZM2.1963 7.07442L2.19933 7.08512C2.24299 7.23944 2.28296 7.3807 2.29892 7.50898C2.37528 8.12324 2.33197 8.21953 2.16546 8.58967C2.13042 8.66756 2.08951 8.7585 2.04322 8.86985L2.0323 8.89611C1.93461 9.1308 1.80949 9.4314 1.79933 9.67743L1.79889 9.68318C1.78944 9.78598 1.77591 9.88441 1.75949 9.98013C1.99793 10.0889 2.29627 10.1746 2.62599 10.2349C2.98472 10.3005 3.37993 10.3359 3.77544 10.3379C3.95286 10.3388 4.13176 10.3329 4.30885 10.3198C4.48041 10.3071 4.64831 10.2877 4.80939 10.2613C4.9835 10.2329 5.14998 10.1964 5.30489 10.1516C5.41347 10.1201 5.51667 10.0845 5.61315 10.0446L5.60696 10.0168L5.60608 10.0137C5.59786 9.97097 5.5932 9.90117 5.58733 9.81289C5.57333 9.60285 5.55177 9.27958 5.46632 9.06869C5.41208 8.93482 5.37033 8.84146 5.33639 8.76556C5.16883 8.39088 5.16796 8.38891 5.28277 7.61564C5.30572 7.46107 5.3453 7.34951 5.38513 7.23724C5.40407 7.18386 5.42308 7.13031 5.4399 7.07151C5.1683 7.10357 4.94606 7.09004 4.7544 7.05146C4.54611 7.00953 4.37604 6.93848 4.21826 6.86431C4.08583 6.80206 3.94564 6.77093 3.80527 6.77093C3.66489 6.77093 3.5247 6.80206 3.39227 6.86431C3.23449 6.93848 3.06442 7.00953 2.85613 7.05146C2.67054 7.08882 2.45629 7.1027 2.1963 7.07442ZM3.6265 9.04891C3.60265 9.05634 3.57728 9.04302 3.56985 9.01917C3.56242 8.99531 3.57574 8.96994 3.59959 8.96251C3.63892 8.95019 3.67321 8.94478 3.70293 8.94464C3.74914 8.94444 3.78451 8.95709 3.81097 8.97694C3.8385 8.99758 3.85542 9.02515 3.86447 9.05404C3.87013 9.07208 3.87264 9.09095 3.87272 9.10897C3.87284 9.1336 3.86819 9.1573 3.85928 9.17872C3.84697 9.20829 3.82657 9.23385 3.79931 9.25217C3.77263 9.27011 3.73966 9.28077 3.7017 9.28094C3.67194 9.28107 3.63932 9.27476 3.6047 9.26034C3.58162 9.25076 3.57068 9.22429 3.58026 9.20121C3.58984 9.17814 3.61632 9.1672 3.63939 9.17678C3.66268 9.18647 3.68342 9.19073 3.70135 9.19065C3.72042 9.19056 3.73648 9.18554 3.74903 9.17711C3.761 9.16907 3.77008 9.15753 3.77571 9.14402C3.78016 9.13332 3.78248 9.12152 3.78243 9.10932C3.78239 9.1002 3.78107 9.09048 3.77808 9.08096C3.77421 9.0686 3.76742 9.05714 3.7568 9.04917C3.74511 9.04041 3.72783 9.03483 3.70328 9.03493C3.68262 9.03503 3.6573 9.03926 3.6265 9.04891ZM1.73377 10.1175C1.71459 10.2122 1.69305 10.305 1.67038 10.3977C1.84407 10.4637 1.99315 10.5362 2.15094 10.641C2.33238 10.7615 2.52399 10.9242 2.77715 11.1692C2.93696 11.3239 3.04574 11.4702 3.13993 11.5969C3.30343 11.8169 3.4192 11.9726 3.69355 11.9873C3.93935 11.9758 4.06451 11.816 4.24045 11.5914C4.33904 11.4655 4.4524 11.3208 4.60902 11.1692C4.86218 10.9242 5.0538 10.7615 5.23524 10.641C5.38623 10.5407 5.52924 10.47 5.69348 10.4062L5.64298 10.1789C5.54849 10.217 5.44799 10.2512 5.3426 10.2817C5.18165 10.3283 5.00986 10.366 4.83116 10.3952C4.66494 10.4224 4.49297 10.4423 4.31842 10.4552C4.14088 10.4683 3.95854 10.4743 3.77491 10.4733C3.3711 10.4712 2.96767 10.4351 2.60156 10.3682C2.27444 10.3084 1.97654 10.2241 1.73377 10.1175ZM4.74468 2.33581V2.33586C4.74628 2.33619 4.74574 2.33606 4.74468 2.33581ZM5.67367 8.97766C5.66744 8.9161 5.65607 8.86033 5.64439 8.80308C5.62291 8.69781 5.60052 8.58802 5.60075 8.42935C5.60084 8.37261 5.60147 8.31683 5.6021 8.26103C5.60385 8.10548 5.60561 7.94959 5.59489 7.79228C5.58624 7.66535 5.57697 7.53533 5.56674 7.40396C5.54245 7.47723 5.52061 7.55495 5.50673 7.64839C5.40141 8.35768 5.40215 8.35933 5.54264 8.6735C5.57921 8.75527 5.62406 8.85554 5.67367 8.97766ZM1.89433 8.64245C1.91785 8.58865 1.93945 8.54064 1.95921 8.49672C2.10485 8.17296 2.14273 8.08874 2.07407 7.53642C2.06893 7.49509 2.06064 7.45113 2.0502 7.40492C2.03534 7.63344 2.01347 7.8686 1.98503 8.09173C1.96002 8.28787 1.92971 8.47548 1.89433 8.64245Z" fill="#2E2D2D"/>
</svg>
