<svg width="27" height="16" viewBox="0 0 27 16" fill="none" xmlns="http://www.w3.org/2000/svg">
<path d="M25.2153 0.572266C25.2153 0.572266 14.3782 0.572266 13.4465 0.572266C12.5947 0.572266 11.9018 1.26517 11.9018 2.11697V11.2547H10.8307V7.76103C10.8307 7.76103 10.8306 7.76056 10.8306 7.76031C10.829 5.26842 8.51272 3.24131 5.66561 3.24131C2.81706 3.24131 0.5 5.26974 0.5 7.76279V11.2331C0.5 13.5486 2.38412 15.4323 4.69967 15.4323C11.8103 15.4323 21.6937 15.4308 25.2153 15.4308C26.0671 15.4308 26.76 14.7379 26.76 13.8861V2.11697C26.76 1.26517 26.0671 0.572266 25.2153 0.572266ZM18.1047 1.60207H20.557V5.12241L19.6198 4.48683C19.5323 4.42774 19.4317 4.39808 19.3306 4.39808C19.2296 4.39808 19.129 4.42774 19.0415 4.48683L18.1047 5.12216V1.60207ZM5.66561 4.27111C7.94596 4.27111 9.80092 5.83744 9.80092 7.76279C9.80092 9.68839 7.94596 11.2547 5.66561 11.2547C3.38526 11.2547 1.5298 9.68839 1.5298 7.76279C1.5298 5.83744 3.38526 4.27111 5.66561 4.27111ZM9.80092 10.4606V11.2547H8.94308C9.26543 11.0224 9.55076 10.7536 9.80092 10.4606ZM17.1704 14.401H13.9518V13.6331C13.9518 13.3485 13.7215 13.1182 13.4369 13.1182C13.1523 13.1182 12.922 13.3485 12.922 13.6331V14.401H12.4167C12.414 14.401 12.4118 14.4024 12.4092 14.4025H11.3934V13.6331C11.3934 13.3485 11.1631 13.1182 10.8785 13.1182C10.5939 13.1182 10.3636 13.3485 10.3636 13.6331V14.4025H8.83497V13.6331C8.83497 13.3485 8.60468 13.1182 8.32007 13.1182C8.03547 13.1182 7.80517 13.3485 7.80517 13.6331V14.4025H4.69967C2.95182 14.4025 1.5298 12.9804 1.5298 11.2331V10.4605C2.47249 11.565 3.97288 12.2845 5.66561 12.2845H17.1704V14.401ZM25.7302 13.8861C25.7302 14.1702 25.4994 14.401 25.2153 14.401H18.2003V11.7696C18.2003 11.485 17.97 11.2547 17.6854 11.2547H12.9316V2.11697C12.9316 1.83312 13.1624 1.60207 13.4465 1.60207H17.0749V6.09338C17.0749 6.28396 17.18 6.45894 17.3485 6.5482C17.4244 6.58842 17.5073 6.60828 17.5898 6.60828C17.6909 6.60828 17.792 6.57837 17.8789 6.51953L19.3306 5.53499L20.7828 6.51953C20.9407 6.62613 21.1438 6.63795 21.3133 6.5482C21.4817 6.45894 21.5868 6.28396 21.5868 6.09338V1.60207H25.2153C25.4994 1.60207 25.7302 1.83312 25.7302 2.11697V13.8861Z" fill="#2E2D2D"/>
<path d="M5.6665 9.57477C6.84816 9.57477 7.80907 8.76068 7.80907 7.75979C7.80907 6.7594 6.84816 5.94531 5.6665 5.94531C4.48484 5.94531 3.52393 6.7594 3.52393 7.75979C3.52393 8.76068 4.48484 9.57477 5.6665 9.57477ZM5.6665 6.97512C6.2699 6.97512 6.77927 7.33439 6.77927 7.75979C6.77927 8.18544 6.2699 8.54496 5.6665 8.54496C5.0631 8.54496 4.55373 8.18544 4.55373 7.75979C4.55373 7.33439 5.0631 6.97512 5.6665 6.97512Z" fill="#2E2D2D"/>
</svg>
