<svg width="13" height="23" viewBox="0 0 13 23" fill="none" xmlns="http://www.w3.org/2000/svg">
<path d="M12.2704 4.99171C11.3878 4.20683 10.139 3.88241 8.45064 3.99404C8.28668 4.00799 8.13668 4.0952 8.05296 4.22776C7.7425 4.71962 7.5925 5.27427 7.59599 5.91613C6.99599 6.29985 6.53552 6.8545 6.22157 7.57311C5.90762 6.8545 5.44715 6.29985 4.84715 5.91613C4.85064 5.27078 4.70064 4.71962 4.39017 4.22776C4.30645 4.0952 4.15645 4.00799 3.98901 3.99404C2.32506 3.88241 1.04134 4.22078 0.169244 4.99171C0.0227321 5.12078 -0.033082 5.31962 0.0192436 5.50799C0.0750576 5.69985 0.232034 5.83939 0.427383 5.87427C1.62389 6.0766 2.53087 6.5859 3.13087 7.38474C3.45529 7.81729 3.72738 8.45567 3.98552 9.40101C4.02738 9.5545 4.05878 9.71148 4.07273 9.87194C4.0832 9.96613 4.16343 10.0394 4.26459 10.0289C4.35878 10.0185 4.42855 9.93474 4.42157 9.83706C4.40413 9.65915 4.36924 9.48125 4.32389 9.31032C4.05529 8.32311 3.76576 7.64287 3.41343 7.17543C2.75762 6.29985 1.77389 5.7452 0.490174 5.52892C0.423895 5.51846 0.375058 5.47311 0.357616 5.41032C0.350639 5.38241 0.336686 5.30915 0.402965 5.24985C1.21227 4.53125 2.37738 4.23474 3.96459 4.33939C4.02041 4.34288 4.06924 4.37078 4.09366 4.41264C4.3832 4.86962 4.51227 5.38939 4.49482 6.00683C4.49482 6.06962 4.52622 6.12892 4.57855 6.16032C5.27622 6.57543 5.75762 7.21729 6.05413 8.1138C6.07855 8.18706 6.14482 8.23241 6.22157 8.23241C6.29831 8.23241 6.36459 8.18357 6.38901 8.1138C6.68552 7.2138 7.16692 6.57543 7.86459 6.16032C7.9204 6.12892 7.9518 6.06962 7.94831 6.00683C7.93087 5.38939 8.06343 4.86962 8.34947 4.41264C8.37389 4.37078 8.42273 4.34636 8.47855 4.33939C10.0658 4.23474 11.2309 4.53125 12.0402 5.24985C12.1065 5.30915 12.096 5.38241 12.089 5.41032C12.0716 5.47311 12.0227 5.51497 11.9599 5.52543C10.6762 5.74171 9.68901 6.29636 9.0332 7.17194C8.85878 7.40567 8.7018 7.68125 8.55878 8.02311V8.0266C8.4018 8.39287 8.25529 8.82543 8.11227 9.35915C8.07041 9.51613 8.03901 9.6766 8.02157 9.83706C8.0111 9.93474 8.08087 10.0185 8.17506 10.0289C8.18203 10.0289 8.18901 10.0289 8.19599 10.0289C8.2832 10.0289 8.35994 9.96264 8.37041 9.87543C8.38785 9.73241 8.41227 9.58939 8.45064 9.44985C8.57622 8.98939 8.7018 8.59869 8.83785 8.27078H8.90064C9.44482 8.27078 9.89134 8.7138 9.89134 9.26148C9.89134 9.80567 9.44831 10.2522 8.90064 10.2522H2.75762C2.01808 10.2522 1.41808 10.8522 1.41808 11.5917V13.9219C1.41808 13.9254 1.41808 13.9254 1.41808 13.9289C1.42157 14.665 2.02157 15.2615 2.75762 15.2615H2.99831C3.02273 15.4568 3.05064 15.6452 3.08901 15.8092C3.58436 17.9405 3.9332 20.0371 4.12157 22.0429C4.1425 22.301 4.36227 22.4999 4.62041 22.4999H7.81924C8.07738 22.4999 8.29715 22.2975 8.31808 22.0429C8.50296 20.0336 8.8518 17.9371 9.35064 15.8057C9.5425 14.9964 9.53901 13.6917 9.35413 12.8371C9.36459 12.8336 9.37854 12.8301 9.3925 12.8266C9.39599 12.8266 9.39948 12.8266 9.40296 12.8231C9.88785 12.6208 10.2297 12.1429 10.2297 11.5882V9.26148C10.2297 8.55334 9.67506 7.97776 8.98087 7.93241C9.08552 7.72311 9.19366 7.54171 9.30529 7.38822C9.90878 6.5859 10.8192 6.0766 12.0123 5.87776C12.2076 5.84287 12.3646 5.70334 12.4204 5.51497C12.4762 5.31962 12.4169 5.12427 12.2704 4.99171ZM2.75762 14.9126C2.20994 14.9126 1.76692 14.4696 1.76692 13.9219C1.76692 13.9219 1.76692 13.9219 1.76692 13.9185C1.76692 13.3743 2.20994 12.9312 2.75762 12.9312H3.06808C2.95645 13.4964 2.92157 14.2394 2.96692 14.9126H2.75762ZM9.01575 15.7289C8.51343 17.8743 8.16459 19.9882 7.97622 22.015C7.96924 22.0917 7.90296 22.1545 7.82273 22.1545H4.62389C4.54366 22.1545 4.47738 22.0952 4.47041 22.015C4.27855 19.9917 3.92971 17.8778 3.43087 15.7324C3.25296 14.9789 3.25296 13.7161 3.42389 12.9347H8.89366C8.93552 12.9347 8.97738 12.9243 9.01924 12.9208C9.19017 13.7126 9.19366 14.9754 9.01575 15.7289ZM9.88087 11.5917C9.88087 11.9022 9.73436 12.1778 9.50761 12.3592V11.7731C9.50761 11.6754 9.43087 11.5987 9.3332 11.5987C9.23552 11.5987 9.15878 11.6754 9.15878 11.7731V12.5405C9.07854 12.565 8.99482 12.5789 8.90761 12.5789V12.265C8.90761 12.1673 8.83087 12.0905 8.7332 12.0905C8.63552 12.0905 8.55878 12.1673 8.55878 12.265V12.5824H8.30761V11.7731C8.30761 11.6754 8.23087 11.5987 8.1332 11.5987C8.03552 11.5987 7.95878 11.6754 7.95878 11.7731V12.5824H7.70761V12.265C7.70761 12.1673 7.63087 12.0905 7.5332 12.0905C7.43552 12.0905 7.35878 12.1673 7.35878 12.265V12.5824H7.10761V11.7731C7.10761 11.6754 7.03087 11.5987 6.9332 11.5987C6.83552 11.5987 6.75878 11.6754 6.75878 11.7731V12.5824H6.50761V12.265C6.50761 12.1673 6.43087 12.0905 6.3332 12.0905C6.23552 12.0905 6.15878 12.1673 6.15878 12.265V12.5824H5.90761V11.7731C5.90761 11.6754 5.83087 11.5987 5.7332 11.5987C5.63552 11.5987 5.55878 11.6754 5.55878 11.7731V12.5824H5.30762V12.265C5.30762 12.1673 5.23087 12.0905 5.1332 12.0905C5.03552 12.0905 4.95878 12.1673 4.95878 12.265V12.5824H4.70762V11.7731C4.70762 11.6754 4.63087 11.5987 4.5332 11.5987C4.43552 11.5987 4.35878 11.6754 4.35878 11.7731V12.5824H4.10762V12.265C4.10762 12.1673 4.03087 12.0905 3.9332 12.0905C3.83552 12.0905 3.75878 12.1673 3.75878 12.265V12.5824H3.50762V11.7731C3.50762 11.6754 3.43087 11.5987 3.3332 11.5987C3.23552 11.5987 3.15878 11.6754 3.15878 11.7731V12.5824H2.90762V12.265C2.90762 12.1673 2.83087 12.0905 2.7332 12.0905C2.63552 12.0905 2.55878 12.1673 2.55878 12.265V12.6033C2.24831 12.6487 1.96924 12.7987 1.76692 13.0219V11.5952C1.76692 11.051 2.20994 10.6045 2.75762 10.6045H8.89366C9.28436 10.6045 9.64017 10.4336 9.88436 10.165V11.5917H9.88087Z" fill="#2E2D2D"/>
<path d="M1.40761 9.64224C1.45994 9.40154 1.47738 9.15735 1.48436 8.91666C1.49831 8.91317 1.51227 8.90619 1.52273 8.89921C1.62738 8.98642 1.73552 9.06666 1.85761 9.13294C1.79134 9.00735 1.7111 8.89921 1.62389 8.79805C1.63087 8.7841 1.63785 8.77363 1.64134 8.75968C1.88203 8.74921 2.12622 8.73177 2.36692 8.68294C2.12622 8.63061 1.88203 8.61317 1.64134 8.60619C1.63785 8.59224 1.63087 8.57828 1.62389 8.56782C1.7111 8.46317 1.79134 8.35503 1.85761 8.23294C1.73203 8.29921 1.62389 8.37945 1.52273 8.46666C1.50878 8.45968 1.49831 8.4527 1.48436 8.44921C1.47389 8.20852 1.45645 7.96433 1.40761 7.72363C1.35529 7.96433 1.33785 8.20852 1.33087 8.44921C1.31692 8.4527 1.30296 8.45968 1.2925 8.46666C1.18785 8.37945 1.07971 8.29921 0.954126 8.23294C1.02041 8.35852 1.10064 8.46666 1.18785 8.56782C1.18087 8.58177 1.17389 8.59224 1.17041 8.60619C0.929708 8.61666 0.685522 8.6341 0.444824 8.68294C0.685522 8.73526 0.929708 8.7527 1.17041 8.75968C1.17389 8.77363 1.18087 8.78759 1.18785 8.79805C1.10064 8.89921 1.02041 9.00735 0.954126 9.13294C1.07971 9.06666 1.18785 8.98642 1.2925 8.89921C1.30645 8.90619 1.31692 8.90968 1.33087 8.91666C1.33785 9.15735 1.35529 9.39805 1.40761 9.64224Z" fill="#2E2D2D"/>
<path d="M8.72949 1.41628C9.08182 1.4686 9.43414 1.48605 9.78996 1.49302C9.80042 1.53837 9.81786 1.58023 9.84228 1.61512C9.71321 1.76163 9.58763 1.91163 9.47949 2.07907C9.64693 1.97093 9.80042 1.84535 9.94693 1.71628C9.98531 1.7407 10.0237 1.75814 10.069 1.7686C10.0795 2.12093 10.0969 2.47674 10.1458 2.82907C10.1981 2.47674 10.2155 2.12093 10.2225 1.7686C10.2679 1.75814 10.3097 1.7407 10.3446 1.71628C10.4911 1.84535 10.6411 1.97093 10.8086 2.07907C10.7004 1.91163 10.5748 1.76163 10.4458 1.61512C10.4702 1.57674 10.4876 1.53837 10.4981 1.48953C10.8539 1.48256 11.2097 1.46512 11.5621 1.41628C11.2097 1.36395 10.8539 1.34651 10.5016 1.33953C10.4911 1.29419 10.4737 1.25233 10.4493 1.21395C10.5783 1.06744 10.7039 0.917442 10.8121 0.75C10.6446 0.85814 10.4946 0.983721 10.3481 1.11279C10.3097 1.08837 10.2679 1.07093 10.2225 1.06047C10.2121 0.708139 10.1946 0.352326 10.1458 0C10.0934 0.352326 10.076 0.708139 10.069 1.06047C10.0237 1.07093 9.98182 1.08837 9.94693 1.11279C9.80042 0.983721 9.65042 0.85814 9.47949 0.75C9.58763 0.917442 9.71321 1.07093 9.84228 1.21395C9.81786 1.25233 9.80042 1.2907 9.78996 1.33605C9.43763 1.34651 9.08531 1.36395 8.72949 1.41628Z" fill="#2E2D2D"/>
<path d="M5.21045 2.60805C5.49301 2.66037 5.77208 2.67782 6.05464 2.68479C6.06161 2.70921 6.07208 2.73363 6.08254 2.75456C5.98138 2.87316 5.88371 2.99526 5.80347 3.13479C5.94301 3.05456 6.06859 2.95689 6.18719 2.85572C6.20812 2.86968 6.23254 2.87665 6.25696 2.88363C6.26743 3.16619 6.28487 3.44526 6.33371 3.72782C6.38603 3.44526 6.40347 3.16619 6.41045 2.88363C6.43487 2.87665 6.45929 2.86619 6.48022 2.85572C6.59882 2.95689 6.72091 3.05456 6.86394 3.13479C6.78371 2.99526 6.68603 2.86968 6.58487 2.75456C6.59882 2.73363 6.6058 2.70921 6.61277 2.68479C6.89533 2.67433 7.1744 2.65689 7.45696 2.60805C7.1744 2.55572 6.89533 2.53828 6.61277 2.5313C6.6058 2.50689 6.59533 2.48247 6.58487 2.46154C6.68603 2.34293 6.78371 2.22084 6.86394 2.0813C6.7244 2.16154 6.59882 2.25921 6.48371 2.36037C6.46278 2.34642 6.43836 2.33944 6.41394 2.33247C6.40347 2.04991 6.38603 1.77084 6.33719 1.48828C6.28487 1.77084 6.26743 2.04991 6.26045 2.33247C6.23603 2.33944 6.21161 2.34991 6.19068 2.36037C6.07208 2.25921 5.94999 2.16154 5.80696 2.0813C5.88719 2.22084 5.98487 2.34642 6.08603 2.46154C6.07208 2.48247 6.0651 2.50689 6.05812 2.5313C5.77557 2.54177 5.49301 2.55921 5.21045 2.60805Z" fill="#2E2D2D"/>
</svg>
