<svg width="11" height="23" viewBox="0 0 11 23" fill="none" xmlns="http://www.w3.org/2000/svg">
<path d="M5.94173 4.60574C5.94173 4.83325 5.74327 5.01719 5.50124 5.01719H1.84181V4.1943H5.50124C5.74569 4.1943 5.94173 4.37824 5.94173 4.60574ZM4.56944 6.14987V5.99739C4.56944 5.81345 4.40728 5.6634 4.20882 5.6634H1.84181V6.48628H4.20882C4.40728 6.48628 4.56944 6.33623 4.56944 6.15229V6.14987ZM5.49882 7.13007H1.83939V7.95296H5.49882C6.07968 7.93844 6.0821 7.14459 5.49882 7.13007ZM4.56944 9.08322V8.93074C4.56944 8.7468 4.40728 8.59675 4.20882 8.59675H1.84181V9.41963H4.20882C4.40728 9.41963 4.56944 9.26958 4.56944 9.08564V9.08322ZM5.49882 10.0634H1.83939V10.8863H5.49882C6.07968 10.8718 6.0821 10.0779 5.49882 10.0634ZM4.56944 12.0166V11.8641C4.56944 11.6802 4.40728 11.5301 4.20882 11.5301H1.84181V12.353H4.20882C4.40728 12.353 4.56944 12.2029 4.56944 12.019V12.0166ZM5.49882 12.9968H1.83939V13.8197H5.49882C6.07968 13.8051 6.0821 13.0113 5.49882 12.9968ZM4.56944 14.9499V14.7974C4.56944 14.6135 4.40728 14.4634 4.20882 14.4634H1.84181V15.2863H4.20882C4.40728 15.2863 4.56944 15.1363 4.56944 14.9523V14.9499ZM5.49882 15.9301H1.83939V16.753H5.49882C6.07968 16.7385 6.0821 15.9446 5.49882 15.9301ZM4.56944 17.8833V17.7308C4.56944 17.5468 4.40728 17.3968 4.20882 17.3968H1.84181V18.2197H4.20882C4.40728 18.2197 4.56944 18.0696 4.56944 17.8857V17.8833ZM5.49882 18.8635H1.83939V19.6864H5.49882C6.07968 19.6718 6.0821 18.878 5.49882 18.8635ZM4.20882 20.3301H1.84181V21.153H4.20882C4.40728 21.153 4.56944 21.003 4.56944 20.819V20.6666C4.56944 20.4826 4.40728 20.3326 4.20882 20.3326V20.3301ZM7.98442 1.64335C6.8106 1.67724 6.81302 3.26008 7.98442 3.29397C9.15825 3.26008 9.15583 1.67724 7.98442 1.64335ZM9.03723 0C10.061 0 10.8936 0.774482 10.8936 1.72564V21.2644C10.8936 22.2155 10.061 22.99 9.03723 22.99H1.85634C0.832567 22.99 0 22.2155 0 21.2644V1.7329C0 0.781742 0.832567 0.0072607 1.85634 0.0072607H9.03723V0ZM9.03723 0.977783H1.85634C1.41343 0.977783 1.05281 1.3142 1.05281 1.72564V21.2644C1.05281 21.6782 1.41343 22.0122 1.85634 22.0122H9.03723C9.48014 22.0122 9.84076 21.6758 9.84076 21.2644V1.7329C9.84076 1.31904 9.48014 0.985044 9.03723 0.985044V0.977783Z" fill="#2E2D2D"/>
</svg>
