<svg width="30" height="23" viewBox="0 0 30 23" fill="none" xmlns="http://www.w3.org/2000/svg">
<path d="M1.93269 9.97847C3.52012 10.6917 9.1566 12.9233 14.8622 12.1181H14.9082C14.9312 12.1181 17.0938 11.5429 18.8884 11.5889C18.9022 11.804 18.9919 12.0076 19.1415 12.164C19.3209 12.3343 19.5613 12.4263 19.8086 12.4171H26.9177C27.1604 12.4137 27.3916 12.3147 27.5619 12.141C27.7356 11.9708 27.8345 11.7396 27.838 11.4969V9.31126C27.8426 9.08925 27.6873 8.89598 27.4699 8.85113C29.0573 5.40011 26.9637 2.17937 26.8717 2.01829C26.7348 1.81353 26.4611 1.75257 26.2505 1.88025C21.8103 4.43396 19.0496 1.07502 18.9344 0.936997H18.9114C17.6921 -0.397356 16.4958 -0.0292543 16.0126 0.361846L12.2627 3.14561C12.1074 3.26294 12.043 3.46538 12.1017 3.65176L12.1707 3.83581C11.3194 4.38796 8.60481 5.97539 6.11997 5.44627C2.96814 4.80209 2.02492 7.05673 1.84087 7.65488C1.59125 7.81822 1.43711 8.09315 1.42677 8.39108V9.08128C1.39686 9.45513 1.59678 9.81053 1.93269 9.97847ZM18.8883 10.6456C17.0708 10.5996 14.9773 11.1288 14.7011 11.1978C9.11066 12.003 3.38183 9.61037 2.30079 9.12724L2.3468 8.43704C4.39436 9.21924 9.54775 10.9677 13.4128 10.4386L18.9114 9.70239L18.8883 10.6456ZM26.9176 11.4969H19.8086V9.65637L26.9176 9.7714V11.4969ZM13.643 3.26053L14.0341 4.20378C14.102 4.38554 14.2768 4.50516 14.4712 4.50286H14.6553C14.89 4.40738 15.0027 4.13935 14.9084 3.90471L14.4482 2.73138L15.1154 2.22522L15.4835 3.2145C15.5514 3.39626 15.7262 3.51588 15.9207 3.51358H16.1047C16.2255 3.46412 16.3198 3.36519 16.3635 3.24325C16.4072 3.12017 16.3969 2.98443 16.3348 2.86941L15.8286 1.62705L16.5878 1.0749H16.6108C16.6338 1.0519 17.301 0.522751 18.2443 1.55803C18.4973 1.8571 21.6031 5.37715 26.3195 2.93841C26.8027 3.85866 27.8379 6.3432 26.4576 8.87397L19.7166 8.73593C17.8071 6.27425 14.7013 5.67598 13.7118 5.53816L13.0677 3.67465L13.643 3.26053ZM5.93586 6.36642C8.6046 6.94157 11.3655 5.44617 12.4698 4.75597L12.9299 6.11335C12.984 6.28935 13.1381 6.41587 13.321 6.43545C13.344 6.43545 16.4958 6.68852 18.5663 8.82811L13.2748 9.54131C9.63973 10.0475 4.53225 8.29896 2.82985 7.65481C3.08292 7.01063 3.86525 5.9293 5.93586 6.36642Z" fill="#2E2D2D"/>
<path d="M29.4481 22.0803V17.0187C29.4481 16.8968 29.3998 16.7795 29.3135 16.6932C29.2273 16.6069 29.1099 16.5586 28.988 16.5586H0.460127C0.205907 16.5586 0 16.7645 0 17.0187V22.0803C0 22.2022 0.0483126 22.3195 0.134587 22.4058C0.220861 22.4921 0.338194 22.5404 0.460136 22.5404H28.988C29.1099 22.5404 29.2273 22.4921 29.3135 22.4058C29.3998 22.3195 29.4481 22.2022 29.4481 22.0803ZM28.5279 21.6201H0.920262V17.4792H1.40339V17.9393C1.40339 18.1935 1.60929 18.3994 1.86351 18.3994C2.11773 18.3994 2.32364 18.1935 2.32364 17.9393V17.4792H3.2209V18.8595C3.2209 19.1137 3.4268 19.3197 3.68102 19.3197C3.93524 19.3197 4.14115 19.1137 4.14115 18.8595V17.4792H5.0614V17.9393C5.0614 18.1935 5.26731 18.3994 5.52153 18.3994C5.77575 18.3994 5.98166 18.1935 5.98166 17.9393V17.4792H6.90191V17.9393C6.90191 18.1935 7.10782 18.3994 7.36204 18.3994C7.61626 18.3994 7.82216 18.1935 7.82216 17.9393V17.4792H8.74242V18.8595C8.74242 19.1137 8.94832 19.3197 9.20254 19.3197C9.45676 19.3197 9.66267 19.1137 9.66267 18.8595V17.4792H10.5829V17.9393C10.5829 18.1935 10.7888 18.3994 11.043 18.3994C11.2973 18.3994 11.5032 18.1935 11.5032 17.9393V17.4792H12.4234V17.9393C12.4234 18.1935 12.6293 18.3994 12.8836 18.3994C13.1378 18.3994 13.3437 18.1935 13.3437 17.9393V17.4792H14.2639V18.8595C14.2639 19.1137 14.4698 19.3197 14.7241 19.3197C14.9783 19.3197 15.1842 19.1137 15.1842 18.8595V17.4792H16.1044V17.9393C16.1044 18.1935 16.3104 18.3994 16.5646 18.3994C16.8188 18.3994 17.0247 18.1935 17.0247 17.9393V17.4792H17.9449V17.9393C17.9449 18.1935 18.1509 18.3994 18.4051 18.3994C18.6593 18.3994 18.8652 18.1935 18.8652 17.9393V17.4792H19.7855V18.8595C19.7855 19.1137 19.9914 19.3197 20.2456 19.3197C20.4998 19.3197 20.7057 19.1137 20.7057 18.8595V17.4792H21.626V17.9393C21.626 18.1935 21.8319 18.3994 22.0861 18.3994C22.3403 18.3994 22.5462 18.1935 22.5462 17.9393V17.4792H23.4665V17.9393C23.4665 18.1935 23.6724 18.3994 23.9266 18.3994C24.1808 18.3994 24.3867 18.1935 24.3867 17.9393V17.4792H25.307V18.8595C25.307 19.1137 25.5129 19.3197 25.7671 19.3197C26.0213 19.3197 26.2272 19.1137 26.2272 18.8595V17.4792H27.1705V17.9393C27.1705 18.1935 27.3764 18.3994 27.6306 18.3994C27.8848 18.3994 28.0907 18.1935 28.0907 17.9393V17.4792H28.5279V21.6201Z" fill="#2E2D2D"/>
<path d="M1.84049 15.6376C1.96242 15.6376 2.07975 15.5892 2.16604 15.503C2.25232 15.4167 2.30062 15.2994 2.30062 15.1774V14.9474H27.1704V15.1774C27.1704 15.4316 27.3763 15.6375 27.6306 15.6375C27.8848 15.6375 28.0907 15.4316 28.0907 15.1774V13.797C28.0907 13.5428 27.8848 13.3369 27.6306 13.3369C27.3763 13.3369 27.1704 13.5428 27.1704 13.797V14.0271H2.30062V13.797C2.30062 13.5428 2.09472 13.3369 1.8405 13.3369C1.58628 13.3369 1.38037 13.5428 1.38037 13.797V15.1774C1.38037 15.2994 1.42868 15.4167 1.51496 15.503C1.60123 15.5893 1.71855 15.6376 1.84049 15.6376Z" fill="#2E2D2D"/>
</svg>
