<svg width="34" height="21" viewBox="0 0 34 21" fill="none" xmlns="http://www.w3.org/2000/svg">
<path d="M33.1781 16.1176C32.005 13.9985 28.5613 12.9767 26.5179 12.0307C23.6419 10.7819 20.728 9.68449 17.7385 8.81412C17.7007 7.94376 17.625 7.07339 17.5872 6.24087C17.5872 5.93813 17.3601 5.67324 17.0195 5.67324C14.9761 5.59755 13.5759 2.83509 15.6194 1.51062C17.3223 0.375357 19.1765 2.00256 19.1008 3.81898C19.063 4.53798 20.1983 4.53798 20.2361 3.81898C20.3875 0.829461 16.906 -1.28969 14.522 0.905145C12.2514 2.98645 13.803 6.24087 16.4519 6.73281C16.4897 7.41397 16.5276 8.05728 16.5654 8.73844C16.5276 8.77628 16.4897 8.81412 16.4897 8.85196C13.7651 9.83586 11.0405 10.8954 8.27803 11.9172C6.0832 12.7497 3.35857 13.2795 1.46647 14.6796C0.369057 15.4743 -0.501309 17.0258 0.331215 18.3503C1.31511 19.864 3.73699 19.7505 5.25067 19.7505C11.5703 19.8261 17.8899 19.9397 24.2095 20.0154C26.1773 20.0154 35.8648 20.9614 33.1781 16.1176ZM30.7562 18.8423C30.0372 19.0315 29.0533 18.9179 28.2964 18.9179C27.0477 18.9179 25.8367 18.8801 24.5879 18.8801C21.7498 18.8044 18.9116 18.7666 16.0735 18.7287C13.3489 18.6909 10.6242 18.653 7.89961 18.6152C6.5373 18.5774 5.17499 18.653 3.81268 18.5395C3.28289 18.5017 2.10979 18.426 1.76921 18.0097C1.65568 17.4421 1.54216 16.8366 1.42863 16.269C1.69353 15.8527 2.07195 15.55 2.48821 15.3229C4.56952 14.0363 7.36982 13.4308 9.64034 12.5605C12.1379 11.6144 14.6355 10.6684 17.1331 9.76017C19.5171 10.4413 21.8255 11.2739 24.1338 12.1821C26.48 13.166 29.6966 14.1877 31.6265 15.9284C32.724 17.0258 32.1942 18.4638 30.7562 18.8423Z" fill="#2E2D2D"/>
</svg>
