<svg width="22" height="22" viewBox="0 0 22 22" fill="none" xmlns="http://www.w3.org/2000/svg">
<path d="M14.568 18.3023L16.7647 21.3819C17.0401 21.7693 17.524 22 18.0596 22C18.5941 22 19.0791 21.7693 19.3546 21.3819L21.5513 18.3023C21.8444 17.8914 21.9998 17.4205 21.9998 16.9414V2.03541C21.9998 1.47387 21.7385 0.952355 21.2652 0.565066C20.8179 0.201314 20.2293 0 19.6065 0H16.5115C15.8887 0 15.3001 0.201305 14.8528 0.565066C14.3783 0.95118 14.1182 1.47387 14.1182 2.03541L14.1193 16.9414C14.1193 17.1086 14.1382 17.2746 14.1758 17.4382C14.177 17.4441 14.1782 17.45 14.1806 17.4558C14.25 17.7537 14.3808 18.0397 14.568 18.3023ZM19.0921 3.23384V16.6224L17.1932 15.7737V3.23402L19.0921 3.23384ZM21.0957 15.7889L19.9962 16.5293V3.23263H21.0957V15.7889ZM16.2892 15.81L15.0237 16.5717V3.23372H16.2892V15.81ZM20.8158 17.7772L18.619 20.8568C18.5131 21.004 18.2988 21.0958 18.0599 21.0958C17.8197 21.0958 17.6055 21.004 17.5007 20.8568L15.304 17.7772C15.2498 17.7018 15.2039 17.6229 15.165 17.5417L16.7731 16.5752L19.4136 17.756C19.5561 17.8196 19.7209 17.8054 19.8504 17.7183L21.097 16.879V16.9413C21.0959 17.2309 20.9994 17.5194 20.8158 17.7772ZM15.4252 1.26669C15.7112 1.03242 16.0974 0.90411 16.5129 0.90411H19.608C20.0224 0.90411 20.4085 1.03243 20.6946 1.26669C20.9536 1.47858 21.0972 1.75171 21.0972 2.03542V2.32972H15.0252V2.03542C15.024 1.75053 15.1662 1.4774 15.4252 1.26669Z" fill="#2E2D2D"/>
<path d="M0.452053 21.604H9.22248C9.47205 21.604 9.67453 21.4016 9.67453 21.152V0.7626C9.67453 0.51303 9.47205 0.310547 9.22248 0.310547H0.452053C0.202484 0.310547 0 0.51303 0 0.7626V21.152C0 21.4016 0.202484 21.604 0.452053 21.604ZM8.77043 1.21465V20.6999H0.904106V18.2054H3.22323C3.4728 18.2054 3.67528 18.0029 3.67528 17.7534C3.67528 17.5038 3.4728 17.3013 3.22323 17.3013L0.904106 17.3025V14.808H4.45332C4.70289 14.808 4.90538 14.6055 4.90538 14.3559C4.90538 14.1064 4.70289 13.9039 4.45332 13.9039H0.904106V11.4094H3.22323C3.4728 11.4094 3.67528 11.2069 3.67528 10.9573C3.67528 10.7077 3.4728 10.5052 3.22323 10.5052H0.904106V8.01073H4.45332C4.70289 8.01073 4.90538 7.80824 4.90538 7.55868C4.90538 7.30911 4.70289 7.10662 4.45332 7.10662H0.904106V4.6121H3.22323C3.4728 4.6121 3.67528 4.40962 3.67528 4.16005C3.67528 3.91048 3.4728 3.708 3.22323 3.708H0.904106V1.21465L8.77043 1.21465Z" fill="#2E2D2D"/>
</svg>
